<svg width="350" height="245" fill="none" xmlns="http://www.w3.org/2000/svg"><g clip-path="url(#clip0_311_47)"><path d="M69.735 244.209c38.514 0 69.735-2.378 69.735-5.311 0-2.934-31.221-5.312-69.735-5.312-38.514 0-69.735 2.378-69.735 5.312 0 2.933 31.221 5.311 69.735 5.311z" fill="#E6E6E6"/><path d="M53.304 54.186c12.136-5.177 27.252-1.897 42.014.38.137-2.758 1.802-6.113.058-8.036-2.119-2.336-1.924-4.791-.649-7.26 3.261-6.314-1.41-13.033-6.128-18.619a10.448 10.448 0 00-3.922-2.881 10.42 10.42 0 00-4.797-.79l-8.738.627a10.447 10.447 0 00-5.816 2.292 10.495 10.495 0 00-3.476 5.208c-2.086 2.846-3.203 5.684-2.5 8.507-3.125 2.142-3.65 4.727-2.246 7.642 1.191 1.835 1.179 3.621-.054 5.358a24.765 24.765 0 00-3.668 7.306l-.078.266zm288.402 156.929H94.359a8.285 8.285 0 01-5.864-2.437 8.327 8.327 0 01-2.43-5.881c89.664-10.45 177.642-10.45 263.935 0a8.321 8.321 0 01-5.12 7.684 8.27 8.27 0 01-3.174.634z" fill="#2F2E41"/><path d="M350 203.286l-263.934-.489 30.589-51.617.146-.244V37.179a10.539 10.539 0 013.071-7.435 10.474 10.474 0 017.413-3.08h180.032a10.454 10.454 0 017.413 3.08 10.539 10.539 0 013.071 7.435v114.54L350 203.286z" fill="#3F3D56"/><path d="M127.046 34.004a3.413 3.413 0 00-2.413 1.004 3.43 3.43 0 00-1.002 2.42v103.723a3.43 3.43 0 003.415 3.425H309.02a3.418 3.418 0 002.413-1.005c.64-.642 1-1.512 1.001-2.42V37.428a3.433 3.433 0 00-1.001-2.42 3.413 3.413 0 00-2.413-1.004H127.046z" fill="#fff"/><path d="M127.809 158.275a1.466 1.466 0 00-1.33.854l-9.425 20.549a1.469 1.469 0 001.329 2.082h198.212a1.48 1.48 0 00.713-.186 1.472 1.472 0 00.596-1.939l-10.245-20.548a1.455 1.455 0 00-1.309-.812H127.809z" fill="#2F2E41"/><path d="M217.301 32.291a2.198 2.198 0 002.195-2.201 2.198 2.198 0 00-2.195-2.202 2.198 2.198 0 00-2.195 2.201c0 1.216.983 2.202 2.195 2.202z" fill="#fff"/><path d="M197.818 185.673a1.472 1.472 0 00-.89.303 1.477 1.477 0 00-.523.783l-2.364 8.807a1.473 1.473 0 00.251 1.274c.137.179.313.324.514.424.202.1.423.152.648.151h44.963a1.46 1.46 0 001.449-1.259 1.462 1.462 0 00-.066-.688l-3.04-8.807a1.464 1.464 0 00-1.383-.988h-39.559zm119.983-36.449v1.956H116.655l.151-.244v-1.712h200.995z" fill="#2F2E41"/><path d="M312.191 68.496c18.86 0 34.15-15.333 34.15-34.248S331.051 0 312.191 0C293.33 0 278.04 15.333 278.04 34.248s15.29 34.248 34.151 34.248z" fill="#3914AF"/><path d="M326.339 49.17h-28.296a1.95 1.95 0 01-1.38-.573 1.963 1.963 0 01-.572-1.384V30.09a1.963 1.963 0 01.572-1.384 1.951 1.951 0 011.379-.574h28.297c.517 0 1.013.207 1.379.574.366.367.571.865.572 1.384v17.123a1.964 1.964 0 01-.572 1.384 1.951 1.951 0 01-1.379.574zm-28.296-19.08v17.123h28.297l-.001-17.123h-28.296z" fill="#fff"/><path d="M320.972 30.09h-17.563V22.26c0-5.67 3.693-9.785 8.782-9.785 5.088 0 8.781 4.115 8.781 9.785v7.829zm-15.611-1.958h13.66v-5.87c0-4.61-2.809-7.829-6.83-7.829-4.022 0-6.83 3.22-6.83 7.828v5.871zM312.191 40.119a1.954 1.954 0 001.951-1.957c0-1.08-.874-1.957-1.951-1.957a1.954 1.954 0 00-1.952 1.957c0 1.08.874 1.957 1.952 1.957z" fill="#fff"/><path d="M169.567 98.586c5.859 0 10.608-4.763 10.608-10.639 0-5.876-4.749-10.639-10.608-10.639-5.859 0-10.609 4.763-10.609 10.639 0 5.876 4.75 10.639 10.609 10.639zM194.068 80.854a1.774 1.774 0 000 3.546h83.355a1.774 1.774 0 000-3.546h-83.355zm0 10.64a1.774 1.774 0 000 3.546h35.868a1.774 1.774 0 000-3.546h-35.868z" fill="#E6E6E6"/><path d="M116.309 92.21l-25.998 13.862-.33-11.551c8.486-1.42 16.559-3.894 24.024-7.92l2.719-6.737a4.55 4.55 0 015.85-2.551 4.556 4.556 0 011.89 1.365 4.574 4.574 0 01-.401 6.228l-7.754 7.305z" fill="#FFB8B8"/><path d="M52.786 172.239a5.138 5.138 0 01.649-4.144l5.71-8.79a9.982 9.982 0 015.816-4.214 9.955 9.955 0 017.132.788c-2.4 4.098-2.066 7.692.829 10.815a51.91 51.91 0 00-12.33 8.43 5.1 5.1 0 01-7.806-2.885z" fill="#2F2E41"/><path d="M117.493 160.746a9.81 9.81 0 01-3.543 3.478 9.775 9.775 0 01-4.786 1.294l-37.94.288-1.645-9.571 16.783-4.95-14.15-10.891 15.466-18.151 28.093 26.258a9.852 9.852 0 011.721 12.246l.001-.001z" fill="#2F2E41"/><path d="M65.3 226.2h-8.885c-7.978-54.84-16.098-109.833 7.898-130.359l28.301 4.62-3.62 24.092-15.796 18.151-7.897 83.496z" fill="#2F2E41"/><path d="M73.112 238.623a5.1 5.1 0 01-4.133-.65l-9.648-1.301a10.006 10.006 0 01-4.202-5.832 10.035 10.035 0 01.786-7.152c4.085 2.407 7.67 2.072 10.784-.832 2.2 4.456 5.826 4.185 9.289 7.939a5.132 5.132 0 01-2.877 7.828z" fill="#2F2E41"/><path d="M86.362 59.208l-16.454-3.96c2.732-5.61 2.957-11.851 1.645-18.481l11.189-.33c.35 8.244 1.411 15.946 3.62 22.771z" fill="#FFB8B8"/><path d="M90.884 110.398c-11.978 8.185-20.441.28-26.9-11.917.898-7.463-.555-16.394-3.246-26.1A17.812 17.812 0 0161.99 59.56a17.732 17.732 0 019.563-8.602l14.15 5.94c12.016 9.822 14.381 20.461 9.873 31.683l-4.692 21.817z" fill="#3914AF"/><path d="M56.415 67.46l-13.163 6.93 23.365 13.86 3.251 8.043a4.276 4.276 0 01-1.08 4.758 4.245 4.245 0 01-6.552-1.037 4.277 4.277 0 01-.555-1.868l-.33-5.605-29.696-9.828a6.941 6.941 0 01-4.357-4.254 6.983 6.983 0 01-.075-4.496 6.962 6.962 0 012.68-3.605l23.88-16.43 2.632 13.531z" fill="#FFB8B8"/><path d="M69.579 68.78c-5.49-2.414-10.482.207-16.783 2.31l-.988-17.492c6.257-3.344 12.223-4.246 17.77-1.65v16.831z" fill="#3914AF"/><path d="M76.146 45.101c5.802 0 10.505-4.717 10.505-10.535 0-5.819-4.703-10.536-10.505-10.536-5.802 0-10.505 4.717-10.505 10.536 0 5.818 4.703 10.535 10.505 10.535z" fill="#FFB8B8"/><path d="M88.714 33.236c-10.401 1.022-18.327-.684-23.392-5.541v-3.912H87.83l.883 9.453z" fill="#2F2E41"/></g><defs><clipPath id="clip0_311_47"><path fill="#fff" d="M0 0h350v244.209H0z"/></clipPath></defs></svg>