<svg width="108" height="100" viewBox="0 0 108 100" fill="none" xmlns="http://www.w3.org/2000/svg">
<g id="undraw_features_overview_re_2w78 1" clip-path="url(#clip0_1199_1031)">
<path id="Vector" d="M11.5038 91.0457L11.3411 87.3887C9.64563 86.4824 7.75453 86.0037 5.83203 85.9941C8.47796 88.1574 8.14729 92.3274 9.94117 95.2364C10.5076 96.1394 11.27 96.9034 12.1719 97.4717C13.0737 98.04 14.0919 98.3981 15.1509 98.5194L17.3651 99.8751C17.6689 98.1814 17.602 96.4418 17.1688 94.7764C16.7356 93.111 15.9465 91.5594 14.8559 90.2283C14.2367 89.4876 13.5266 88.8279 12.7425 88.2646C12.2122 89.6629 11.5038 91.0457 11.5038 91.0457Z" fill="#F2F2F2"/>
<path id="Vector_2" d="M71.3956 23.8813H39.7109C38.3771 23.8813 37.2959 24.9626 37.2959 26.2964V42.6579C37.2959 43.9917 38.3771 45.0729 39.7109 45.0729H71.3956C72.7294 45.0729 73.8106 43.9917 73.8106 42.6579V26.2964C73.8106 24.9626 72.7294 23.8813 71.3956 23.8813Z" fill="white"/>
<path id="Vector_3" d="M71.3955 45.2359H39.7108C39.0274 45.2351 38.3721 44.9632 37.8888 44.4799C37.4055 43.9966 37.1336 43.3413 37.1328 42.6578V26.2963C37.1336 25.6128 37.4055 24.9575 37.8888 24.4742C38.3721 23.9909 39.0274 23.719 39.7108 23.7183H71.3955C72.079 23.7191 72.7343 23.9909 73.2175 24.4742C73.7008 24.9575 73.9727 25.6128 73.9735 26.2963V42.6578C73.9727 43.3413 73.7008 43.9966 73.2175 44.4799C72.7343 44.9632 72.079 45.2351 71.3955 45.2359ZM39.7108 24.0443C39.1138 24.045 38.5414 24.2824 38.1192 24.7046C37.697 25.1268 37.4595 25.6992 37.4588 26.2963V42.6578C37.4595 43.2549 37.697 43.8273 38.1192 44.2495C38.5414 44.6717 39.1138 44.9092 39.7108 44.9098H71.3955C71.9926 44.9091 72.565 44.6717 72.9871 44.2495C73.4093 43.8273 73.6468 43.2549 73.6474 42.6578V26.2963C73.6468 25.6992 73.4093 25.1268 72.9871 24.7046C72.565 24.2825 71.9926 24.045 71.3955 24.0443H39.7108Z" fill="#3F3D56"/>
<path id="Vector_4" d="M104.65 21.3546H72.9654C72.3034 21.3539 71.6689 21.0906 71.2008 20.6226C70.7328 20.1545 70.4695 19.52 70.4688 18.8581V2.49652C70.4695 1.83461 70.7328 1.20004 71.2008 0.732007C71.6689 0.263978 72.3034 0.000724417 72.9654 0H104.65C105.312 0.00075722 105.946 0.264028 106.414 0.732055C106.882 1.20008 107.146 1.83464 107.146 2.49652V18.8581C107.146 19.5199 106.882 20.1545 106.414 20.6225C105.946 21.0906 105.312 21.3538 104.65 21.3546Z" fill="#F2F2F2"/>
<path id="Vector_5" d="M104.65 68.9542H72.9654C72.3034 68.9535 71.6688 68.6902 71.2008 68.2222C70.7327 67.7541 70.4695 67.1195 70.4688 66.4576V50.0961C70.4695 49.4342 70.7328 48.7997 71.2008 48.3316C71.6689 47.8636 72.3034 47.6003 72.9654 47.5996H104.65C105.312 47.6004 105.946 47.8636 106.414 48.3317C106.882 48.7997 107.146 49.4343 107.146 50.0961V66.4576C107.146 67.1195 106.883 67.7541 106.414 68.2221C105.946 68.6901 105.312 68.9534 104.65 68.9542Z" fill="#F2F2F2"/>
<path id="Vector_6" d="M64.6663 32.1408C64.4559 31.3718 64.0237 30.6819 63.4236 30.1571C62.8236 29.6323 62.0822 29.2959 61.292 29.1899C61.2745 29.1873 61.2579 29.1908 61.2405 29.1896C61.218 29.1824 61.195 29.1768 61.1717 29.1729C57.4861 28.6717 53.2317 30.5265 51.6957 34.2032C50.9353 33.1433 49.7227 32.4585 48.4259 32.5266C46.7715 32.6134 45.3115 33.8807 44.8642 35.5474C44.8395 35.6476 44.8463 35.753 44.8835 35.8492C44.9207 35.9455 44.9866 36.0279 45.0723 36.0855C45.3127 36.3009 45.6015 36.4552 45.9143 36.5352C46.5836 36.6844 47.2553 36.8211 47.9294 36.9453C49.2447 37.1875 50.567 37.3833 51.8961 37.5327C54.5929 37.8369 57.3083 37.9449 60.0207 37.8559C60.924 37.8263 61.7951 37.7947 62.6227 37.3752C63.2313 37.0564 63.7459 36.5838 64.1154 36.0046C64.4711 35.4344 64.7039 34.7962 64.7988 34.1308C64.8937 33.4655 64.8485 32.7877 64.6663 32.1408Z" fill="#3F3D56"/>
<path id="Vector_7" d="M64.2596 32.3357C64.0603 31.6537 63.6624 31.0465 63.1165 30.5916C62.5489 30.1286 61.8632 29.8334 61.1368 29.7394H61.0928L61.052 29.7321C61.039 29.728 61.0257 29.7249 61.0122 29.7227C59.7969 29.5783 58.5651 29.6664 57.3827 29.9823C55.1099 30.5801 52.9575 31.9955 51.9525 34.2787L51.8091 34.6064L51.5945 34.3206C51.2645 33.8697 50.8346 33.5013 50.3383 33.2445C49.8421 32.9877 49.2931 32.8493 48.7344 32.8403C48.68 32.8403 48.6256 32.8413 48.5701 32.8445C47.8136 32.8932 47.0907 33.1748 46.5007 33.6507C45.9106 34.1266 45.4823 34.7735 45.2745 35.5025C45.264 35.5552 45.2702 35.61 45.2924 35.659C45.3145 35.708 45.3515 35.7488 45.398 35.7757L45.4148 35.7883C45.6259 35.9672 45.8757 36.0944 46.1445 36.1599C46.7946 36.2981 47.4562 36.4258 48.1105 36.54C49.3793 36.7619 50.6816 36.9451 51.9798 37.0843C54.2757 37.3308 56.5844 37.4381 58.8933 37.4057C59.2315 37.4015 59.5689 37.3942 59.9057 37.3837C60.7725 37.3576 61.5922 37.3314 62.369 36.9577C62.9255 36.6819 63.401 36.2663 63.7488 35.7517C64.0779 35.254 64.2942 34.6904 64.3825 34.1003C64.4707 33.5102 64.4288 32.9079 64.2596 32.3357Z" fill="white"/>
<path id="Vector_8" d="M58.8933 37.4058C56.5844 37.4382 54.2757 37.3309 51.9798 37.0844C50.6816 36.9452 49.3793 36.762 48.1105 36.5401C47.4562 36.4259 46.7946 36.2982 46.1445 36.16C45.8757 36.0945 45.6259 35.9673 45.4148 35.7884L45.398 35.7758C45.3515 35.7489 45.3145 35.7081 45.2924 35.6591C45.2702 35.6101 45.264 35.5553 45.2745 35.5026C45.4823 34.7736 45.9106 34.1267 46.5007 33.6508C47.0907 33.1749 47.8136 32.8933 48.5701 32.8446C48.6256 32.8414 48.68 32.8404 48.7344 32.8404C49.2931 32.8494 49.8421 32.9878 50.3383 33.2446C50.8346 33.5014 51.2645 33.8698 51.5945 34.3207L51.8091 34.6065L51.9525 34.2788C52.9575 31.9956 55.1099 30.5802 57.3827 29.9824C57.8412 30.397 58.1365 31.0324 57.969 31.6218C57.7669 32.3369 56.9671 32.7828 56.8331 33.5135C56.7106 34.1804 57.188 34.8001 57.679 35.2671C58.17 35.7329 58.7384 36.2009 58.8808 36.8625C58.9189 37.0412 58.9231 37.2255 58.8933 37.4058Z" fill="#FFD300"/>
<path id="Vector_9" d="M60.8668 35.3737C61.9075 35.3737 62.7512 34.5301 62.7512 33.4894C62.7512 32.4486 61.9075 31.605 60.8668 31.605C59.8261 31.605 58.9824 32.4486 58.9824 33.4894C58.9824 34.5301 59.8261 35.3737 60.8668 35.3737Z" fill="#3F3D56"/>
<path id="Vector_10" d="M61.6565 33.2885L60.9498 32.5819C60.9389 32.5709 60.9259 32.5623 60.9116 32.5563C60.8973 32.5504 60.882 32.5474 60.8666 32.5474C60.8511 32.5474 60.8358 32.5504 60.8215 32.5563C60.8072 32.5623 60.7942 32.5709 60.7833 32.5819L60.0766 33.2885C60.0657 33.2994 60.057 33.3124 60.051 33.3267C60.0451 33.341 60.042 33.3563 60.042 33.3718C60.042 33.3873 60.045 33.4026 60.0509 33.417C60.0569 33.4313 60.0655 33.4443 60.0765 33.4552C60.0874 33.4662 60.1004 33.4748 60.1147 33.4808C60.1291 33.4867 60.1444 33.4897 60.1599 33.4897C60.1754 33.4897 60.1907 33.4866 60.205 33.4807C60.2193 33.4747 60.2323 33.466 60.2432 33.455L60.7488 32.9495V34.314C60.7488 34.3452 60.7612 34.3752 60.7833 34.3972C60.8054 34.4193 60.8353 34.4317 60.8666 34.4317C60.8978 34.4317 60.9278 34.4193 60.9498 34.3972C60.9719 34.3752 60.9843 34.3452 60.9843 34.314V32.9495L61.4899 33.455C61.5121 33.477 61.542 33.4893 61.5731 33.4892C61.6043 33.4892 61.6341 33.4768 61.6562 33.4547C61.6782 33.4327 61.6906 33.4028 61.6907 33.3717C61.6907 33.3405 61.6784 33.3106 61.6565 33.2885Z" fill="white"/>
<path id="Vector_11" d="M95.0011 15.4962H83.7582C83.5292 15.4959 83.3097 15.4049 83.1478 15.243C82.9859 15.0811 82.8948 14.8616 82.8945 14.6326V4.36848C82.8948 4.13952 82.9859 3.92 83.1478 3.7581C83.3097 3.5962 83.5292 3.50514 83.7582 3.50488H95.0011C95.2301 3.50514 95.4496 3.5962 95.6115 3.7581C95.7734 3.92 95.8645 4.13952 95.8647 4.36848V14.6326C95.8645 14.8616 95.7734 15.0811 95.6115 15.243C95.4496 15.4049 95.2301 15.4959 95.0011 15.4962Z" fill="white"/>
<path id="Vector_12" d="M95.001 15.6592H83.7581C83.4859 15.6589 83.2249 15.5506 83.0325 15.3581C82.84 15.1657 82.7318 14.9047 82.7314 14.6325V4.36842C82.7318 4.09624 82.84 3.83529 83.0325 3.64283C83.2249 3.45037 83.4859 3.34211 83.7581 3.3418H95.001C95.2732 3.3421 95.5342 3.45037 95.7266 3.64283C95.9191 3.83529 96.0274 4.09624 96.0277 4.36842V14.6325C96.0274 14.9047 95.9191 15.1657 95.7266 15.3581C95.5342 15.5506 95.2732 15.6589 95.001 15.6592ZM83.7581 3.66783C83.5723 3.66805 83.3943 3.74193 83.2629 3.87328C83.1316 4.00462 83.0577 4.18268 83.0575 4.36843V14.6325C83.0577 14.8183 83.1316 14.9964 83.2629 15.1277C83.3943 15.259 83.5723 15.3329 83.7581 15.3331H95.001C95.1868 15.3329 95.3649 15.259 95.4962 15.1277C95.6275 14.9964 95.7014 14.8183 95.7017 14.6325V4.36842C95.7014 4.18268 95.6275 4.00461 95.4962 3.87327C95.3649 3.74193 95.1868 3.66804 95.001 3.66782L83.7581 3.66783Z" fill="#CCCCCC"/>
<path id="Vector_13" d="M87.0704 8.36973C87.8444 8.36973 88.4718 7.7423 88.4718 6.96831C88.4718 6.19433 87.8444 5.56689 87.0704 5.56689C86.2964 5.56689 85.6689 6.19433 85.6689 6.96831C85.6689 7.7423 86.2964 8.36973 87.0704 8.36973Z" fill="#CCCCCC"/>
<path id="Vector_14" d="M92.6723 10.5001H86.0863C85.9756 10.5001 85.8694 10.4562 85.7912 10.3779C85.7129 10.2997 85.6689 10.1935 85.6689 10.0828C85.6689 9.97216 85.7129 9.86602 85.7912 9.78775C85.8694 9.70949 85.9756 9.66553 86.0863 9.66553H92.6723C92.783 9.66553 92.8891 9.70949 92.9674 9.78775C93.0456 9.86602 93.0896 9.97216 93.0896 10.0828C93.0896 10.1935 93.0456 10.2997 92.9674 10.3779C92.8891 10.4562 92.783 10.5001 92.6723 10.5001Z" fill="#CCCCCC"/>
<path id="Vector_15" d="M89.2644 12.1491H86.0863C85.9756 12.1491 85.8694 12.1052 85.7912 12.0269C85.7129 11.9486 85.6689 11.8425 85.6689 11.7318C85.6689 11.6211 85.7129 11.515 85.7912 11.4367C85.8694 11.3584 85.9756 11.3145 86.0863 11.3145H89.2644C89.3192 11.3143 89.3736 11.3251 89.4243 11.346C89.4751 11.3669 89.5212 11.3976 89.56 11.4364C89.5989 11.4752 89.6297 11.5212 89.6507 11.5719C89.6717 11.6226 89.6825 11.6769 89.6825 11.7318C89.6825 11.7867 89.6717 11.841 89.6507 11.8917C89.6297 11.9424 89.5989 11.9884 89.56 12.0272C89.5212 12.0659 89.4751 12.0967 89.4243 12.1176C89.3736 12.1385 89.3192 12.1492 89.2644 12.1491Z" fill="#CCCCCC"/>
<path id="Vector_16" d="M83.5235 18.5085C82.9383 18.5085 82.3662 18.3349 81.8796 18.0098C81.3929 17.6846 81.0137 17.2225 80.7897 16.6818C80.5657 16.1411 80.5071 15.5461 80.6213 14.9721C80.7355 14.3981 81.0173 13.8709 81.4311 13.457C81.845 13.0432 82.3722 12.7614 82.9462 12.6472C83.5202 12.533 84.1152 12.5916 84.6559 12.8156C85.1966 13.0395 85.6588 13.4188 85.9839 13.9054C86.309 14.392 86.4826 14.9642 86.4826 15.5494C86.4826 16.3342 86.1708 17.0868 85.6159 17.6418C85.061 18.1967 84.3083 18.5085 83.5235 18.5085Z" fill="#CCCCCC"/>
<path id="Vector_17" d="M84.6915 15.2577H83.8158V14.382C83.8156 14.3047 83.7848 14.2307 83.7301 14.1761C83.6754 14.1215 83.6012 14.0908 83.5239 14.0908C83.4466 14.0908 83.3725 14.1215 83.3178 14.1761C83.263 14.2307 83.2322 14.3047 83.232 14.382V15.2577H82.3564C82.2789 15.2577 82.2047 15.2885 82.1499 15.3432C82.0952 15.3979 82.0645 15.4722 82.0645 15.5496C82.0645 15.627 82.0952 15.7013 82.1499 15.756C82.2047 15.8107 82.2789 15.8415 82.3564 15.8415H83.232V16.7172C83.232 16.7946 83.2628 16.8688 83.3175 16.9236C83.3723 16.9783 83.4465 17.0091 83.5239 17.0091C83.6013 17.0091 83.6756 16.9783 83.7303 16.9236C83.7851 16.8688 83.8158 16.7946 83.8158 16.7172V15.8415H84.6915C84.7689 15.8415 84.8432 15.8107 84.8979 15.756C84.9526 15.7013 84.9834 15.627 84.9834 15.5496C84.9834 15.4722 84.9526 15.3979 84.8979 15.3432C84.8432 15.2885 84.7689 15.2577 84.6915 15.2577Z" fill="white"/>
<path id="Vector_18" d="M83.3275 62.0938C83.3216 62.0938 83.3157 62.0937 83.3097 62.0934C83.2401 62.0909 83.1722 62.0716 83.1117 62.0372C83.0512 62.0028 82.9999 61.9543 82.9622 61.8958C82.6796 61.4734 82.3328 61.0978 81.9343 60.7824C81.6931 60.5896 81.4411 60.4104 81.1973 60.237C80.5685 59.7898 79.9762 59.3687 79.6475 58.7868C78.9308 57.518 79.7748 55.7507 80.9807 54.9581C82.3332 54.0692 84.1122 53.9298 85.8332 53.9115C86.0121 53.9096 86.191 53.9087 86.3701 53.9087C89.471 53.9099 92.5653 54.1928 95.615 54.754C96.6291 54.9411 97.6906 55.1703 98.5436 55.7265C99.3915 56.2795 99.9069 57.1502 99.8566 57.9449C99.7832 59.105 98.5534 59.9719 97.4336 60.1985C96.3662 60.4143 95.2573 60.2685 94.0834 60.114C93.8242 60.0799 93.5563 60.0447 93.2913 60.014C90.4114 59.6812 85.0015 60.7071 84.7726 60.751L84.5455 60.7945L83.6645 61.9283C83.6248 61.9799 83.5738 62.0218 83.5154 62.0505C83.4569 62.0792 83.3926 62.094 83.3275 62.0938Z" fill="white"/>
<path id="Vector_19" d="M83.3273 62.2568L83.3053 62.2565C83.2094 62.2533 83.1157 62.2269 83.0322 62.1797C82.9487 62.1325 82.8778 62.0657 82.8257 61.9852C82.5525 61.5772 82.2174 61.2144 81.8324 60.9097C81.594 60.7192 81.3442 60.5417 81.1026 60.3699C80.4592 59.9124 79.8519 59.4805 79.5054 58.867C78.7445 57.5199 79.6249 55.654 80.891 54.8217C82.2783 53.9099 84.0853 53.7671 85.8312 53.7485C86.0107 53.7466 86.1903 53.7456 86.3699 53.7456C89.4807 53.7468 92.5849 54.0306 95.6443 54.5936C96.6746 54.7837 97.754 55.0171 98.6324 55.5898C99.5287 56.1744 100.073 57.1028 100.019 57.9551C99.9406 59.1962 98.6449 60.1195 97.4656 60.3583C96.3713 60.5795 95.2494 60.432 94.062 60.2755C93.8035 60.2416 93.5365 60.2066 93.2723 60.1758C90.4097 59.8457 85.0307 60.8674 84.8031 60.9111L84.6363 60.943L83.7929 62.0282C83.7381 62.0995 83.6675 62.1572 83.5868 62.1968C83.506 62.2365 83.4173 62.257 83.3273 62.2568ZM86.3699 54.0716C86.1914 54.0716 86.013 54.0726 85.8347 54.0745C84.1384 54.0925 82.3871 54.2286 81.07 55.0943C79.9244 55.8473 79.1167 57.5159 79.7893 58.7065C80.1001 59.2568 80.6787 59.6683 81.2911 60.1039C81.5368 60.2785 81.7904 60.4589 82.0358 60.655C82.4477 60.9811 82.8062 61.3696 83.0982 61.8063C83.1218 61.843 83.154 61.8735 83.1919 61.8951C83.2298 61.9168 83.2724 61.9289 83.3161 61.9306L83.3273 61.9308C83.3676 61.931 83.4074 61.9219 83.4435 61.9041C83.4797 61.8863 83.5112 61.8603 83.5355 61.8283L84.4544 60.6459L84.7417 60.5909C84.9712 60.5468 90.3979 59.5149 93.3098 59.852C93.5756 59.8828 93.8444 59.9181 94.1045 59.9523C95.2642 60.1052 96.3597 60.2494 97.401 60.0386C98.4615 59.824 99.6255 59.0136 99.6938 57.9344C99.7403 57.1975 99.2538 56.3844 98.4543 55.863C97.6264 55.3232 96.583 55.0983 95.5852 54.9143C92.5453 54.3548 89.4608 54.0728 86.3699 54.0716Z" fill="#CCCCCC"/>
<path id="Vector_20" d="M96.1511 56.4345H83.979C83.9089 56.4343 83.8417 56.4063 83.7922 56.3567C83.7427 56.307 83.7148 56.2398 83.7148 56.1696C83.7148 56.0995 83.7427 56.0322 83.7922 55.9826C83.8417 55.9329 83.9089 55.905 83.979 55.9048H96.1511C96.2213 55.905 96.2885 55.9329 96.338 55.9826C96.3875 56.0322 96.4153 56.0995 96.4153 56.1696C96.4153 56.2398 96.3875 56.307 96.338 56.3567C96.2885 56.4063 96.2213 56.4343 96.1511 56.4345Z" fill="#CCCCCC"/>
<path id="Vector_21" d="M96.1517 58.0599H83.9796C83.9448 58.0601 83.9102 58.0533 83.878 58.0401C83.8458 58.0268 83.8165 58.0074 83.7919 57.9828C83.7672 57.9582 83.7476 57.929 83.7342 57.8969C83.7208 57.8647 83.7139 57.8302 83.7139 57.7954C83.7138 57.7606 83.7207 57.7261 83.734 57.6939C83.7473 57.6617 83.7668 57.6325 83.7915 57.6078C83.8161 57.5832 83.8453 57.5637 83.8775 57.5504C83.9097 57.5371 83.9442 57.5302 83.979 57.5303H96.1517C96.2218 57.5304 96.289 57.5584 96.3385 57.6081C96.3881 57.6577 96.4159 57.725 96.4159 57.7951C96.4159 57.8652 96.3881 57.9325 96.3385 57.9821C96.289 58.0318 96.2218 58.0598 96.1517 58.0599Z" fill="#CCCCCC"/>
<path id="Vector_22" d="M85.3975 59.6854H83.979C83.9089 59.6853 83.8417 59.6573 83.7922 59.6076C83.7427 59.558 83.7148 59.4907 83.7148 59.4206C83.7148 59.3505 83.7427 59.2832 83.7922 59.2336C83.8417 59.1839 83.9089 59.1559 83.979 59.1558H85.3975C85.4676 59.1559 85.5348 59.1839 85.5843 59.2336C85.6339 59.2832 85.6617 59.3505 85.6617 59.4206C85.6617 59.4907 85.6339 59.558 85.5843 59.6076C85.5348 59.6573 85.4676 59.6853 85.3975 59.6854Z" fill="#CCCCCC"/>
<path id="Vector_23" d="M83.3142 65.0683C84.2881 65.0683 85.0776 64.2788 85.0776 63.3049C85.0776 62.331 84.2881 61.5415 83.3142 61.5415C82.3403 61.5415 81.5508 62.331 81.5508 63.3049C81.5508 64.2788 82.3403 65.0683 83.3142 65.0683Z" fill="white"/>
<path id="Vector_24" d="M83.3142 65.0899C82.9612 65.0899 82.6161 64.9852 82.3226 64.7891C82.029 64.5929 81.8003 64.3142 81.6652 63.988C81.5301 63.6619 81.4947 63.303 81.5636 62.9567C81.6325 62.6105 81.8025 62.2924 82.0521 62.0428C82.3017 61.7932 82.6198 61.6232 82.966 61.5543C83.3122 61.4854 83.6711 61.5208 83.9973 61.6559C84.3234 61.791 84.6022 62.0198 84.7983 62.3133C84.9945 62.6068 85.0992 62.9519 85.0992 63.3049C85.0986 63.7782 84.9104 64.2319 84.5758 64.5665C84.2412 64.9011 83.7875 65.0893 83.3142 65.0899Z" fill="#CCCCCC"/>
<path id="Vector_25" d="M83.1828 64.0099C83.179 64.0099 83.1753 64.0098 83.1715 64.0096C83.1383 64.008 83.1058 63.9992 83.0763 63.9839C83.0468 63.9686 83.021 63.947 83.0006 63.9208L82.7059 63.5419C82.6873 63.518 82.6735 63.4906 82.6655 63.4614C82.6575 63.4322 82.6552 63.4017 82.659 63.3716C82.6628 63.3416 82.6724 63.3125 82.6874 63.2862C82.7024 63.2598 82.7224 63.2367 82.7463 63.2181L82.7569 63.2099C82.7808 63.1912 82.8082 63.1775 82.8374 63.1695C82.8666 63.1614 82.8971 63.1592 82.9272 63.163C82.9573 63.1667 82.9863 63.1764 83.0127 63.1914C83.039 63.2064 83.0622 63.2264 83.0808 63.2503C83.0956 63.2694 83.1145 63.2851 83.136 63.2963C83.1575 63.3074 83.1811 63.3138 83.2053 63.315C83.2295 63.3162 83.2537 63.3121 83.2762 63.3031C83.2987 63.2941 83.3189 63.2803 83.3356 63.2627L83.9339 62.631C83.9761 62.5867 84.0341 62.5608 84.0952 62.5592C84.1564 62.5575 84.2157 62.5802 84.2602 62.6222L84.27 62.6315C84.292 62.6524 84.3096 62.6773 84.322 62.705C84.3343 62.7327 84.3411 62.7625 84.3419 62.7928C84.3428 62.8231 84.3376 62.8532 84.3268 62.8815C84.3159 62.9098 84.2996 62.9357 84.2788 62.9577L83.3502 63.9378C83.3287 63.9606 83.3027 63.9787 83.2739 63.9911C83.2451 64.0035 83.2141 64.0099 83.1828 64.0099Z" fill="white"/>
<path id="Vector_26" d="M27.7239 54.5144C27.6533 54.5147 27.5829 54.5214 27.5135 54.5343L26.3591 47.2262L27.5156 40.1908C27.5884 39.7482 27.4906 39.2945 27.242 38.9212C26.9934 38.5479 26.6125 38.2827 26.1761 38.1792C25.7397 38.0757 25.2803 38.1415 24.8905 38.3634C24.5007 38.5853 24.2096 38.9467 24.0758 39.3748C23.6423 40.7621 23.4277 42.2085 23.4399 43.662L23.4803 48.46L26.5578 55.8287C26.5847 56.0535 26.676 56.2657 26.8207 56.4399C26.9654 56.614 27.1573 56.7426 27.3734 56.8102C27.5894 56.8778 27.8204 56.8815 28.0386 56.821C28.2567 56.7604 28.4527 56.638 28.6029 56.4687C28.7532 56.2993 28.8513 56.0902 28.8855 55.8664C28.9196 55.6426 28.8884 55.4137 28.7955 55.2072C28.7026 55.0008 28.5521 54.8255 28.362 54.7026C28.1718 54.5797 27.9503 54.5144 27.7239 54.5144Z" fill="#FFB8B8"/>
<path id="Vector_27" d="M22.8232 40.4749C22.823 40.1088 22.8948 39.7462 23.0348 39.4078C23.1747 39.0695 23.3799 38.762 23.6387 38.503C23.8975 38.244 24.2048 38.0385 24.543 37.8984C24.8813 37.7582 25.2438 37.686 25.61 37.686C25.9761 37.686 26.3387 37.7582 26.6769 37.8984C27.0151 38.0385 27.3224 38.244 27.5812 38.503C27.84 38.762 28.0453 39.0695 28.1852 39.4078C28.3251 39.7462 28.397 40.1088 28.3967 40.4749L26.5853 46.8645L23.4397 46.7082L22.8232 40.4749Z" fill="#2F2E41"/>
<path id="Vector_28" d="M29.432 96.5234L31.2305 96.5232L32.0861 89.5859L29.4316 89.5861L29.432 96.5234Z" fill="#FFB8B8"/>
<path id="Vector_29" d="M34.3691 98.5505L31.6664 96.684V95.4663L31.3599 95.4842L29.4331 95.6L28.8234 95.6358L28.4762 99.7992L28.4648 99.9377H29.7412L29.7673 99.7992L29.9694 98.7331L30.4862 99.7992L30.553 99.9377H33.9371C34.1386 99.9373 34.3318 99.8572 34.4744 99.7149C34.617 99.5726 34.6976 99.3796 34.6984 99.1781C34.6985 99.0546 34.6686 98.933 34.6112 98.8236C34.5539 98.7143 34.4708 98.6206 34.3691 98.5505Z" fill="#2F2E41"/>
<path id="Vector_30" d="M18.6455 92.3775L20.0746 93.4695L24.9668 88.4769L22.8576 86.8652L18.6455 92.3775Z" fill="#FFB8B8"/>
<path id="Vector_31" d="M21.3373 96.9858L20.3232 93.8618L21.0625 92.8942L20.8081 92.7224L19.2069 91.6444L18.7006 91.3027L15.8969 94.3999L15.8037 94.5031L16.8179 95.2781L16.9227 95.1838L17.7307 94.4595L17.4939 95.6203L17.4629 95.771L20.1518 97.8258C20.3121 97.9478 20.5143 98.0015 20.714 97.975C20.9138 97.9485 21.0949 97.844 21.2179 97.6844C21.293 97.5864 21.343 97.4716 21.3639 97.3499C21.3847 97.2282 21.3755 97.1032 21.3373 96.9858Z" fill="#2F2E41"/>
<path id="Vector_32" d="M25.9418 62.4089L27.7399 67.9269C27.7399 67.9269 28.3789 73.8149 29.0619 75.119C29.1895 75.384 29.2773 75.6663 29.3227 75.9569C29.3423 76.0547 29.3569 76.1574 29.37 76.2601C29.3961 76.4638 29.414 76.6741 29.4254 76.886C29.4596 77.7864 29.4209 78.6881 29.3097 79.5822C28.9869 79.8626 28.7505 82.391 28.5859 85.5094C28.568 85.8338 28.5511 86.1636 28.5354 86.4989C28.5028 87.1754 28.4734 87.8698 28.4473 88.5675C28.2599 93.4155 28.3642 92.3787 28.3642 92.3787C32.922 93.2149 32.7346 91.7071 32.7346 91.7071C32.7346 91.7071 34.2995 84.7155 34.7038 81.5302C34.7527 81.1586 34.782 80.9206 34.7885 80.8521C34.8064 80.5151 34.8684 80.1819 34.9727 79.861C35.0611 79.7349 35.1401 79.6025 35.2091 79.4649L35.2097 79.4648L35.2103 79.4644L35.2106 79.4639L35.2107 79.4632C35.5331 78.7632 35.7148 78.0066 35.7454 77.2365C35.7685 76.9028 35.7696 76.5679 35.7487 76.234C35.723 74.28 35.8884 72.3281 36.2426 70.4063C36.5279 69.094 36.342 66.5576 36.0894 64.3846C35.9867 63.4881 35.8709 62.6534 35.7747 61.9932C35.7699 61.9655 35.7666 61.9378 35.7633 61.9101C35.6394 61.0804 35.5482 60.5457 35.5482 60.5457C35.5482 60.5457 35.9638 59.121 35.6557 58.5944C35.5139 58.3581 35.5335 57.8006 35.5938 57.2496C35.6688 56.578 35.809 55.952 35.809 55.952L27.3438 54.4604C27.1661 54.7555 27.008 55.0408 26.8531 55.3163C24.0542 60.4887 25.9418 62.4089 25.9418 62.4089Z" fill="#2F2E41"/>
<path id="Vector_33" d="M23.5229 38.8046C23.6171 38.5448 23.7751 38.3129 23.9824 38.1303C24.1897 37.9476 24.4397 37.8201 24.7092 37.7594C25.1088 37.6458 25.5246 37.6003 25.9392 37.6249C27.1531 37.6727 28.0086 35.389 29.2105 35.565C29.2105 35.565 30.3418 35.1613 31.2269 35.9011C32.0311 36.5732 32.5854 38.4011 32.7917 38.2971C32.8894 38.2751 32.9907 38.2751 33.0883 38.2973C33.9192 38.4141 34.6754 38.8403 35.2056 39.4907C35.7357 40.1411 36.0007 40.9677 35.9476 41.8052L35.8601 43.2878C35.8601 43.2878 36.4785 44.2187 35.5811 45.8621L36.1021 51.6593C36.1021 51.6593 36.9699 59.7356 35.6659 60.885C34.362 62.0343 29.5587 57.023 29.5587 57.023C29.5587 57.023 25.8686 56.4349 26.0871 55.7527C26.3056 55.0704 27.4516 53.1784 27.4516 53.1784C27.4782 53.0728 27.475 52.962 27.4424 52.8581C27.4097 52.7543 27.3489 52.6616 27.2667 52.5902C26.9878 52.4121 27.3003 52.0088 27.3238 51.9719C27.2969 51.9987 27.0852 52.2205 26.9239 51.7534C26.7626 51.2863 27.26 50.6981 27.26 50.6981L25.8552 47.6735L24.7495 45.284L24.6151 45.0084L23.6842 43.0861L23.6626 43.0415C23.1712 42.0169 23.0624 40.8503 23.356 39.7525C23.453 39.4452 23.5091 39.1265 23.5229 38.8046Z" fill="#FFD300"/>
<path id="Vector_34" d="M20.5996 88.2383C23.943 91.4464 24.6162 90.082 24.6162 90.082C24.6162 90.082 26.424 88.0003 28.5856 85.5095C29.3615 84.6162 30.1815 83.6707 30.9802 82.7497C32.0838 81.4766 33.145 80.2507 33.9894 79.2759C34.9235 78.1952 35.5886 77.4225 35.7451 77.2366C35.7682 76.9029 35.7692 76.568 35.7483 76.2341C35.7226 74.2801 35.8881 72.3283 36.2422 70.4064C36.5275 69.0942 36.3417 66.5577 36.089 64.3848C35.7108 65.1721 35.274 66.1062 34.9121 66.9685C34.5078 67.9286 34.1932 68.7975 34.1443 69.2702C33.9894 70.7259 31.8947 73.132 31.8947 73.132L31.8703 73.1369C31.5263 73.2282 30.5564 74.3562 29.3224 75.957C25.9513 80.329 20.5996 88.2383 20.5996 88.2383Z" fill="#2F2E41"/>
<path id="Vector_35" d="M48.0005 37.2671C48.0088 37.3372 48.0234 37.4063 48.0441 37.4738L40.9146 39.4515L33.7933 39.1023C33.3454 39.0804 32.9057 39.2291 32.5631 39.5185C32.2205 39.8079 32.0003 40.2165 31.9471 40.6618C31.8939 41.1072 32.0115 41.5561 32.2762 41.9182C32.541 42.2802 32.9332 42.5283 33.3737 42.6126C34.8013 42.8856 36.2628 42.9343 37.7054 42.757L42.4677 42.1714L49.4388 38.2761C49.6591 38.2238 49.8596 38.109 50.0161 37.9455C50.1726 37.7819 50.2786 37.5766 50.3212 37.3543C50.3638 37.1319 50.3413 36.902 50.2563 36.6922C50.1713 36.4824 50.0275 36.3016 49.8421 36.1715C49.6568 36.0415 49.4379 35.9678 49.2116 35.9593C48.9854 35.9508 48.7615 36.0079 48.5669 36.1236C48.3724 36.2394 48.2154 36.4089 48.1149 36.6117C48.0144 36.8146 47.9747 37.0422 48.0005 37.2671Z" fill="#FFB8B8"/>
<path id="Vector_36" d="M34.6088 43.7322C34.2451 43.7739 33.8767 43.7437 33.5248 43.6431C33.1728 43.5425 32.8441 43.3735 32.5574 43.1458C32.2708 42.9181 32.0318 42.6362 31.8541 42.3161C31.6765 41.9961 31.5636 41.6441 31.522 41.2804C31.4804 40.9167 31.5108 40.5484 31.6116 40.1965C31.7124 39.8446 31.8815 39.5159 32.1093 39.2294C32.3371 38.9428 32.6191 38.704 32.9393 38.5265C33.2594 38.349 33.6114 38.2363 33.9752 38.1948L40.5292 39.2681L40.7315 42.411L34.6088 43.7322Z" fill="#2F2E41"/>
<path id="Vector_37" d="M33.4667 33.1214C33.0623 33.8609 32.4181 34.4406 31.6402 34.7651C30.8623 35.0895 29.9971 35.1394 29.1871 34.9065C28.3771 34.6736 27.6706 34.1717 27.1839 33.4836C26.6972 32.7955 26.4593 31.9621 26.5095 31.1208C26.5597 30.2794 26.8949 29.4803 27.46 28.8549C28.025 28.2295 28.7862 27.8152 29.6181 27.6802C30.4501 27.5452 31.3032 27.6976 32.037 28.1122C32.7708 28.5269 33.3415 29.179 33.6552 29.9613C33.6721 30.0038 33.6874 30.0462 33.7027 30.0904C33.88 30.5836 33.9507 31.1087 33.91 31.6312C33.8693 32.1537 33.7182 32.6616 33.4667 33.1214Z" fill="#FFB6B6"/>
<path id="Vector_38" d="M33.9999 30.0903C33.8403 29.6437 33.9099 29.8763 33.7486 29.4315C33.8005 29.6506 33.7845 29.8804 33.7027 30.0903H29.2861V27.5229C30.5801 27.0101 31.8451 26.5737 32.6092 27.5229C33.2901 27.5229 33.9431 27.7934 34.4246 28.2749C34.9061 28.7564 35.1766 29.4094 35.1767 30.0903H33.9999Z" fill="#2F2E41"/>
<path id="Vector_39" d="M32.434 37.2273C32.4306 37.1798 32.4255 37.1305 32.4187 37.083C32.3594 36.7342 32.2632 36.3926 32.1317 36.0641C32.0044 35.7059 31.8753 35.3459 31.7463 34.9876C31.9125 35.6379 31.8618 36.3248 31.6019 36.9437C30.8565 36.363 31.3269 35.0351 30.3522 35.0351C28.0089 35.0351 25.5977 33.135 25.5977 30.79C25.5977 28.4467 26.6029 26.6943 28.9462 26.6943C31.2912 26.6943 33.193 27.7675 33.2389 30.1108C30.3522 30.79 32.9791 36.9896 32.434 37.2273Z" fill="#2F2E41"/>
<path id="Vector_40" d="M25.8907 30.4308C27.3912 30.4308 28.6076 29.2144 28.6076 27.7139C28.6076 26.2135 27.3912 24.9971 25.8907 24.9971C24.3902 24.9971 23.1738 26.2135 23.1738 27.7139C23.1738 29.2144 24.3902 30.4308 25.8907 30.4308Z" fill="#2F2E41"/>
<path id="Vector_41" d="M0.853516 99.8058C0.853441 99.8313 0.858405 99.8566 0.868127 99.8801C0.87785 99.9037 0.892134 99.9251 0.910164 99.9431C0.928193 99.9612 0.949608 99.9755 0.973179 99.9852C0.996749 99.9949 1.02201 99.9999 1.04751 99.9998H46.7382C46.7896 99.9998 46.839 99.9793 46.8753 99.943C46.9117 99.9066 46.9322 99.8572 46.9322 99.8058C46.9322 99.7544 46.9117 99.705 46.8753 99.6686C46.839 99.6322 46.7896 99.6118 46.7382 99.6118H1.04751C1.02201 99.6117 0.996754 99.6167 0.973184 99.6264C0.949613 99.6361 0.928198 99.6504 0.910169 99.6685C0.89214 99.6865 0.87785 99.7079 0.868127 99.7315C0.858405 99.755 0.853441 99.7803 0.853516 99.8058Z" fill="#CCCCCC"/>
</g>
<defs>
<clipPath id="clip0_1199_1031">
<rect width="106.293" height="100" fill="white" transform="translate(0.853516)"/>
</clipPath>
</defs>
</svg>
