<svg width="96" height="100" viewBox="0 0 96 100" fill="none" xmlns="http://www.w3.org/2000/svg">
<g id="undraw_choose_re_7d5a 1" clip-path="url(#clip0_1199_242)">
<path id="Vector" d="M88.0451 85.5531L83.648 89.6012L87.1425 83.7377C84.3893 78.745 79.8866 74.4302 79.8866 74.4302C79.8866 74.4302 70.5449 83.3802 70.5449 90.4155C70.5449 97.4508 74.7273 99.9073 79.8866 99.9073C85.0457 99.9073 89.2281 97.4508 89.2281 90.4155C89.2281 88.8496 88.7646 87.1889 88.0451 85.5531Z" fill="#F2F2F2"/>
<path id="Vector_2" d="M82.5172 89.8203V90.1671C82.4966 94.198 81.8168 97.343 80.4829 99.5576C80.464 99.5903 80.4434 99.6212 80.4245 99.6538L80.2752 99.5628L80.1327 99.4735C81.6125 97.0821 82.1361 93.7018 82.155 90.186C82.1567 90.0727 82.1584 89.9576 82.1567 89.8426C82.1516 88.3542 82.0606 86.8486 81.9147 85.386C81.9044 85.2727 81.8924 85.1576 81.8803 85.0426C81.6778 83.113 81.3859 81.2692 81.0872 79.6675C81.0666 79.5542 81.0443 79.4409 81.022 79.3293C80.5052 76.6203 79.9782 74.6581 79.858 74.2237C79.8443 74.1705 79.8357 74.1413 79.834 74.1345L79.9971 74.0881L79.9988 74.0864L80.1636 74.04C80.1653 74.0469 80.1945 74.1448 80.2426 74.3267C80.4263 75.0066 80.9035 76.8521 81.3722 79.2864C81.3928 79.3963 81.4151 79.5096 81.4357 79.6229C81.6795 80.9224 81.9181 82.3748 82.1069 83.8993C82.155 84.2821 82.1979 84.6598 82.2357 85.0323C82.2494 85.1473 82.2615 85.2624 82.2718 85.3757C82.4297 86.9568 82.5115 88.4383 82.5172 89.8203Z" fill="white"/>
<path id="Vector_3" d="M81.3728 79.2864C81.2578 79.3018 81.1411 79.3173 81.0226 79.3293C80.7009 79.3624 80.3778 79.379 80.0544 79.3791C78.6762 79.3809 77.3152 79.0735 76.0715 78.4795C75.9994 78.5705 75.9273 78.6615 75.8535 78.7542C77.1617 79.3928 78.5986 79.7239 80.0544 79.7224C80.3996 79.7223 80.7446 79.704 81.0878 79.6675C81.2046 79.6555 81.3213 79.64 81.4364 79.6228C82.3858 79.4867 83.3091 79.2071 84.1746 78.7937C84.1007 78.6992 84.0286 78.6065 83.9582 78.5155C83.1391 78.8984 82.2679 79.1581 81.3728 79.2864Z" fill="white"/>
<path id="Vector_4" d="M82.2361 85.0325C82.1176 85.0394 81.9992 85.0428 81.8807 85.0428C81.8447 85.0445 81.8069 85.0445 81.7708 85.0445C80.2775 85.0446 78.8063 84.6835 77.4827 83.9921C76.159 83.3006 75.0222 82.2994 74.1691 81.0737C74.1005 81.175 74.0318 81.2763 73.9648 81.3793C74.854 82.6195 76.0259 83.63 77.3833 84.3271C78.7408 85.0242 80.2448 85.3878 81.7708 85.3879C81.8189 85.3879 81.867 85.3879 81.9151 85.3862C82.0352 85.3845 82.1537 85.381 82.2721 85.3759C84.1051 85.282 85.8722 84.6621 87.3623 83.5905C87.3073 83.4892 87.2524 83.3879 87.1957 83.2866C85.7476 84.3388 84.024 84.9456 82.2361 85.0325Z" fill="white"/>
<path id="Vector_5" d="M82.5178 89.8206C82.3976 89.8309 82.2774 89.8377 82.1572 89.8429C82.0285 89.848 81.8997 89.8515 81.771 89.8515C79.7643 89.8492 77.8124 89.1969 76.2074 87.9924C74.6025 86.788 73.4309 85.096 72.868 83.1699C72.7907 83.309 72.7135 83.4463 72.6396 83.5854C73.2739 85.507 74.4975 87.1799 76.1367 88.3664C77.776 89.5529 79.7474 90.1927 81.771 90.1948C81.8997 90.1948 82.0285 90.1931 82.1555 90.1862C82.2774 90.1828 82.3976 90.1759 82.5178 90.1673C84.9451 89.9774 87.2095 88.8722 88.8525 87.0755C88.8165 86.9485 88.7753 86.8231 88.7341 86.6961C87.1471 88.5063 84.9173 89.627 82.5178 89.8206Z" fill="white"/>
<path id="Rectangle 1 - Outline" d="M72.2334 21.6222L24.407 15.5247C24.2782 15.5082 24.1484 15.4998 24.0185 15.4995C23.8905 15.4993 23.7626 15.5074 23.6356 15.5237C23.5088 15.54 23.3833 15.5646 23.2597 15.5973C23.1347 15.6306 23.012 15.6721 22.8923 15.7213C22.775 15.7694 22.6608 15.8246 22.5503 15.8866C22.4382 15.949 22.33 16.018 22.226 16.0932C22.1197 16.1704 22.0179 16.2535 21.921 16.3422C21.821 16.4335 21.7259 16.5301 21.6363 16.6316C21.5442 16.736 21.4576 16.8451 21.3767 16.9585C21.295 17.0732 21.2183 17.1926 21.1467 17.3166C21.0751 17.441 21.0086 17.5704 20.9473 17.7047C20.886 17.839 20.83 17.9779 20.7795 18.1213C20.7271 18.2696 20.6813 18.4211 20.6419 18.5759C20.6025 18.7308 20.5695 18.8883 20.5431 19.0486C20.5172 19.2087 20.4973 19.3714 20.4836 19.5367C20.4698 19.702 20.4629 19.8693 20.4629 20.0386C20.4634 20.2078 20.4703 20.3764 20.4836 20.5445C20.4968 20.7126 20.5166 20.8793 20.5431 21.0446C20.5698 21.2106 20.6029 21.375 20.6423 21.5377C20.6817 21.7004 20.7275 21.8612 20.7799 22.0202C20.8305 22.1738 20.8864 22.3239 20.9477 22.4705C21.009 22.6172 21.0755 22.76 21.1471 22.8987C21.2188 23.0374 21.2954 23.1722 21.3771 23.3029C21.4587 23.4342 21.5452 23.5605 21.6367 23.6819C21.7281 23.8033 21.8231 23.9191 21.9214 24.0293C22.0198 24.1388 22.1215 24.2422 22.2265 24.3393C22.3314 24.4364 22.4395 24.5271 22.5507 24.6114C22.6607 24.6949 22.7748 24.7727 22.8927 24.8445C23.0114 24.917 23.1341 24.9827 23.2601 25.0415C23.3824 25.0985 23.5079 25.1482 23.636 25.1905C23.7615 25.2319 23.8894 25.2656 24.019 25.2915C24.1473 25.3171 24.277 25.3347 24.4075 25.3442L72.2338 28.8426C72.3729 28.8528 72.5127 28.8388 72.6471 28.8013C72.7155 28.7823 72.7822 28.7577 72.8465 28.7277C72.9137 28.6965 72.9784 28.6602 73.0401 28.6192C73.1027 28.5777 73.1625 28.5322 73.2191 28.4828C73.2785 28.4311 73.3348 28.3759 73.3877 28.3175C73.4436 28.2558 73.4963 28.1913 73.5454 28.1241C73.5962 28.0549 73.6451 27.9812 73.6919 27.903C73.7388 27.8247 73.7831 27.7431 73.8248 27.6581C73.8665 27.5731 73.9056 27.4848 73.942 27.3932C73.9785 27.3017 74.0122 27.207 74.0432 27.1092C74.0742 27.0114 74.1025 26.9107 74.128 26.8071C74.1548 26.6999 74.178 26.5908 74.1974 26.4798C74.2168 26.3687 74.2334 26.256 74.2472 26.1417C74.2606 26.0273 74.2705 25.9115 74.2772 25.7941C74.2838 25.6767 74.2871 25.558 74.2871 25.438C74.2867 25.3182 74.2834 25.1989 74.2772 25.0801C74.271 24.9614 74.261 24.8435 74.2472 24.7265C74.2338 24.6096 74.2172 24.4936 74.1974 24.3785C74.1776 24.2635 74.1544 24.1497 74.128 24.0371C74.1025 23.9283 74.0742 23.8219 74.0432 23.7181C74.0125 23.6156 73.9788 23.5146 73.942 23.4151C73.9052 23.3156 73.8661 23.2192 73.8248 23.1258C73.7832 23.0325 73.7389 22.942 73.6919 22.8543C73.645 22.7665 73.5961 22.683 73.5454 22.6038C73.4947 22.5246 73.4422 22.4495 73.3877 22.3785C73.3333 22.3076 73.2771 22.2412 73.2191 22.1793C73.1626 22.1187 73.1028 22.0612 73.0401 22.007C72.9787 21.9539 72.9141 21.9047 72.8465 21.8596C72.7828 21.8171 72.7162 21.7791 72.6471 21.746C72.5811 21.7143 72.5127 21.6878 72.4425 21.6666C72.3741 21.6461 72.3042 21.6313 72.2334 21.6222Z" fill="#6A48D7"/>
<path id="Rectangle 3 - Outline" d="M72.2334 35.3744L24.4071 34.229C24.1476 34.2226 23.8884 34.249 23.6356 34.3077C23.5081 34.3374 23.3826 34.375 23.2597 34.4203C23.1341 34.4666 23.0114 34.5205 22.8923 34.5815C22.7747 34.6418 22.6605 34.7086 22.5503 34.7815C22.438 34.8559 22.3297 34.9363 22.226 35.0223C22.1196 35.1106 22.0178 35.2042 21.921 35.3029C21.8225 35.4032 21.7276 35.5099 21.6363 35.6228C21.5449 35.7361 21.4584 35.8541 21.3767 35.9768C21.295 36.0996 21.2183 36.2269 21.1467 36.3587C21.0751 36.4906 21.0086 36.6268 20.9473 36.7675C20.886 36.9081 20.83 37.0528 20.7795 37.2014C20.7271 37.3553 20.6812 37.5117 20.6418 37.6705C20.6024 37.8294 20.5695 37.9903 20.5431 38.1533C20.5172 38.3163 20.4973 38.4811 20.4836 38.6478C20.4698 38.8145 20.4629 38.9825 20.4629 39.1518C20.4634 39.3211 20.4703 39.4891 20.4836 39.6556C20.4968 39.8222 20.5166 39.9869 20.5431 40.1498C20.5698 40.3118 20.6029 40.4721 20.6423 40.6306C20.6817 40.7892 20.7275 40.9453 20.7799 41.0989C20.8304 41.248 20.8864 41.3926 20.9477 41.5329C21.009 41.6731 21.0755 41.809 21.1471 41.9404C21.2188 42.0718 21.2954 42.1986 21.3771 42.3208C21.4587 42.4426 21.5452 42.5597 21.6367 42.6721C21.7281 42.7846 21.8231 42.8906 21.9214 42.9902C22.0182 43.0883 22.1201 43.1813 22.2265 43.269C22.3302 43.3543 22.4384 43.434 22.5507 43.5076C22.6609 43.5799 22.7751 43.6459 22.8927 43.7054C23.0119 43.7657 23.1346 43.8188 23.2601 43.8643C23.383 43.9088 23.5086 43.9456 23.636 43.9745C23.7622 44.0032 23.8901 44.0239 24.019 44.0365C24.1481 44.0488 24.2778 44.053 24.4075 44.0491L72.2334 42.594C72.3036 42.5919 72.3736 42.5838 72.4425 42.5699C72.5122 42.5557 72.5806 42.5359 72.6471 42.5105C72.7159 42.4843 72.7825 42.4527 72.8465 42.4163C72.9139 42.3779 72.9786 42.335 73.0401 42.2878C73.1028 42.2397 73.1626 42.1879 73.2191 42.1328C73.2785 42.0749 73.3348 42.0139 73.3877 41.9501C73.442 41.8851 73.4946 41.8152 73.5454 41.7404C73.5962 41.6655 73.6451 41.5868 73.6919 41.5042C73.7388 41.4209 73.7831 41.3347 73.8248 41.2454C73.8666 41.1561 73.9056 41.0638 73.942 40.9685C73.9785 40.8717 74.0122 40.7731 74.0432 40.6728C74.0742 40.5725 74.1025 40.4692 74.128 40.3628C74.1548 40.254 74.178 40.143 74.1974 40.0299C74.2168 39.9168 74.2334 39.8024 74.2472 39.6866C74.2606 39.5705 74.2705 39.4534 74.2772 39.3353C74.2838 39.2173 74.2871 39.0982 74.2871 38.9782C74.2867 38.8594 74.2834 38.7406 74.2772 38.622C74.271 38.5034 74.261 38.3863 74.2472 38.2707C74.2338 38.1547 74.2172 38.0404 74.1974 37.9278C74.1776 37.8153 74.1544 37.7039 74.128 37.5937C74.1023 37.4873 74.074 37.3837 74.043 37.2829C74.012 37.182 73.9783 37.0841 73.942 36.989C73.9057 36.894 73.8667 36.8019 73.825 36.7127C73.7833 36.6236 73.739 36.5377 73.6921 36.455C73.6452 36.3722 73.5963 36.2937 73.5456 36.2194C73.4949 36.1452 73.4424 36.0755 73.3879 36.0105C73.335 35.947 73.2787 35.8864 73.2193 35.8289C73.1628 35.7741 73.103 35.7228 73.0404 35.6751C72.9788 35.6283 72.9141 35.5857 72.8467 35.5478C72.7826 35.5119 72.7159 35.481 72.6471 35.4552C72.5806 35.4303 72.5122 35.4109 72.4425 35.3972C72.3736 35.3837 72.3036 35.3761 72.2334 35.3744Z" fill="#E4E4E4"/>
<path id="Rectangle 4 - Outline" d="M72.2334 48.2664L24.407 51.7642C24.2766 51.7737 24.1468 51.7913 24.0185 51.8169C23.889 51.8428 23.7611 51.8765 23.6356 51.9179C23.5075 51.9602 23.382 52.0099 23.2597 52.0669C23.1337 52.1257 23.011 52.1914 22.8923 52.2639C22.7744 52.3357 22.6602 52.4135 22.5503 52.497C22.439 52.582 22.3309 52.6727 22.226 52.7691C22.1212 52.866 22.0195 52.9693 21.921 53.0791C21.8225 53.1889 21.7276 53.3047 21.6363 53.4265C21.5449 53.5487 21.4584 53.6752 21.3767 53.8059C21.295 53.9366 21.2183 54.0714 21.1467 54.2101C21.0751 54.349 21.0086 54.4917 20.9473 54.6383C20.886 54.7849 20.83 54.935 20.7795 55.0886C20.7271 55.2473 20.6813 55.4082 20.6419 55.5711C20.6025 55.7341 20.5695 55.8983 20.5431 56.0636C20.5172 56.2292 20.4973 56.396 20.4836 56.5639C20.4698 56.7318 20.4629 56.9005 20.4629 57.0698C20.4634 57.2391 20.4703 57.4064 20.4836 57.5717C20.4968 57.7371 20.5166 57.8998 20.5431 58.06C20.5698 58.2207 20.6029 58.3783 20.6423 58.5329C20.6817 58.6874 20.7275 58.839 20.7799 58.9875C20.8305 59.1311 20.8864 59.2699 20.9477 59.4041C21.009 59.5384 21.0755 59.6678 21.1471 59.7922C21.2188 59.9166 21.2954 60.036 21.3771 60.1503C21.458 60.2637 21.5446 60.3728 21.6367 60.4773C21.7264 60.5787 21.8214 60.6753 21.9214 60.7666C22.0183 60.8553 22.1202 60.9384 22.2265 61.0156C22.3304 61.0908 22.4386 61.1598 22.5507 61.2222C22.6612 61.2842 22.7755 61.3394 22.8927 61.3876C23.0124 61.4368 23.1351 61.4782 23.2601 61.5116C23.3837 61.5442 23.5093 61.5688 23.636 61.5851C23.763 61.6014 23.8909 61.6095 24.019 61.6093C24.1489 61.609 24.2786 61.6006 24.4075 61.5841L72.2334 55.4881C72.3042 55.479 72.3741 55.4641 72.4425 55.4436C72.5127 55.4225 72.5811 55.396 72.6471 55.3643C72.7162 55.3311 72.7828 55.2931 72.8465 55.2506C72.9141 55.2056 72.9787 55.1564 73.0401 55.1033C73.1028 55.0491 73.1626 54.9915 73.2191 54.9309C73.2764 54.8689 73.3326 54.8025 73.3877 54.7317C73.442 54.6609 73.4946 54.5858 73.5454 54.5065C73.5962 54.4271 73.6451 54.3436 73.6919 54.256C73.7388 54.1689 73.7831 54.0784 73.8248 53.9845C73.8665 53.8905 73.9056 53.7941 73.942 53.6951C73.9785 53.5958 74.0122 53.4942 74.0432 53.3903C74.0742 53.2865 74.1025 53.1801 74.128 53.0713C74.1548 52.9586 74.178 52.8447 74.1974 52.7297C74.2168 52.6146 74.2334 52.4986 74.2472 52.3817C74.2606 52.2647 74.2705 52.1468 74.2772 52.0281C74.2838 51.9093 74.2871 51.7899 74.2871 51.67C74.2865 51.5506 74.2832 51.4323 74.277 51.3149C74.2708 51.1976 74.2608 51.0817 74.247 50.9673C74.2338 50.8526 74.2172 50.7397 74.1974 50.6286C74.1776 50.5176 74.1544 50.4085 74.128 50.3013C74.1025 50.1976 74.0742 50.0968 74.0432 49.9992C74.0126 49.9015 73.979 49.8068 73.9422 49.7152C73.9054 49.6236 73.8663 49.5353 73.825 49.4503C73.783 49.366 73.7385 49.2846 73.6915 49.206C73.6445 49.1275 73.5957 49.0538 73.545 48.9849C73.4959 48.9177 73.4432 48.8532 73.3873 48.7915C73.3344 48.7331 73.2781 48.6779 73.2187 48.6262C73.1621 48.5769 73.1023 48.5313 73.0397 48.4898C72.978 48.4488 72.9133 48.4125 72.8461 48.3813C72.7818 48.3513 72.7151 48.3267 72.6467 48.3077C72.5123 48.2702 72.3725 48.2563 72.2334 48.2664Z" fill="#E4E4E4"/>
<path id="Path 5" d="M46.1656 48.9075C46.4686 49.4112 46.946 49.7861 47.5071 49.961C48.0683 50.136 48.6741 50.0988 49.2097 49.8565C49.7452 49.6142 50.1732 49.1838 50.4122 48.6468C50.6513 48.1098 50.6849 47.5037 50.5067 46.9436L59.7759 27.9006L55.339 25.2109L47.334 45.4385C47.3034 45.4504 47.2732 45.4628 47.2436 45.4759C47.2139 45.4889 47.1843 45.5025 47.1549 45.5167C47.1255 45.5309 47.0962 45.5458 47.0672 45.5615C47.0382 45.5771 47.0094 45.5936 46.9808 45.6109C46.4357 45.9399 46.0435 46.472 45.8906 47.0902C45.7377 47.7084 45.8365 48.3619 46.1654 48.9072L46.1656 48.9075Z" fill="#9E616A"/>
<path id="Path 8" d="M58.0059 35.2436L51.4209 33.5559C51.4209 33.5559 51.6359 33.0698 51.9853 32.2647C52.3347 31.4595 52.823 30.3367 53.3721 29.062C53.9213 27.7872 54.5307 26.3629 55.1258 24.955C55.721 23.5471 56.2998 22.156 56.7873 20.9503C57.2748 19.7446 57.8286 19.0225 58.3852 18.6177C58.8458 18.2676 59.426 18.1134 59.9997 18.1885C60.4457 18.2549 60.8719 18.4172 61.2491 18.6641C61.4277 18.7752 61.5956 18.9026 61.7506 19.0447L63.2774 21.8212L58.0059 35.2436Z" fill="#CCCCCC"/>
<path id="Ellipse 3 - Outline" d="M5.30681 33.7355C5.14734 33.7472 4.98866 33.7679 4.83151 33.7974C4.67334 33.8271 4.51694 33.8654 4.36303 33.9123C4.20677 33.9601 4.0532 34.0162 3.90302 34.0806C3.74931 34.1464 3.59915 34.2202 3.45314 34.3017C3.31027 34.382 3.17065 34.4693 3.03425 34.5637C2.89786 34.6581 2.7654 34.7595 2.63686 34.8679C2.50846 34.976 2.38385 35.0914 2.26303 35.2138C2.1422 35.3363 2.02579 35.4655 1.91379 35.6013C1.80178 35.7371 1.69563 35.8779 1.59533 36.0235C1.49504 36.1691 1.40094 36.3191 1.31305 36.4736C1.22598 36.6283 1.14455 36.7872 1.06878 36.9503C0.993008 37.1134 0.924127 37.2803 0.862131 37.451C0.797518 37.6281 0.740964 37.807 0.692469 37.9877C0.643973 38.1685 0.603538 38.3507 0.571163 38.5345C0.538649 38.7183 0.514267 38.9033 0.49801 39.0896C0.481754 39.2758 0.473628 39.4629 0.473633 39.6506C0.473633 39.8384 0.481758 40.0238 0.49801 40.2067C0.514262 40.3897 0.538645 40.5698 0.571163 40.7471C0.603539 40.9245 0.643974 41.0986 0.692469 41.2696C0.740963 41.4405 0.797312 41.608 0.861513 41.7719C0.924058 41.9302 0.992941 42.0834 1.06816 42.2313C1.14252 42.3778 1.22417 42.5204 1.31284 42.6587C1.40011 42.7943 1.49434 42.9254 1.59513 43.0513C1.69496 43.1765 1.80133 43.2963 1.91378 43.4103C2.02439 43.5223 2.14097 43.6283 2.26303 43.7277C2.38255 43.825 2.50742 43.9156 2.63706 43.999C2.89291 44.1637 3.1668 44.2985 3.45334 44.4008C3.74709 44.5057 4.05235 44.5751 4.36261 44.6074C4.51823 44.6235 4.67466 44.6304 4.83109 44.6281C4.99004 44.6258 5.14872 44.6146 5.30639 44.5944C5.46548 44.5741 5.62333 44.5451 5.77921 44.5074C5.93557 44.4696 6.08975 44.4233 6.24108 44.3687C6.39413 44.3135 6.54416 44.2503 6.69055 44.1792C6.8397 44.1069 6.9851 44.027 7.12617 43.9399C7.26353 43.8542 7.3973 43.7623 7.52749 43.6643C7.65768 43.5662 7.78381 43.4616 7.90587 43.3506C8.02793 43.2395 8.14579 43.1224 8.25945 42.9992C8.37311 42.8761 8.48236 42.7469 8.5872 42.6116C8.69273 42.4764 8.79206 42.3372 8.88519 42.1939C8.97833 42.0506 9.06553 41.9036 9.14682 41.7527C9.22811 41.6019 9.30333 41.4475 9.37249 41.2896C9.44164 41.1317 9.50467 40.9705 9.56157 40.8061C9.62054 40.6358 9.67213 40.464 9.71636 40.2909C9.76058 40.1177 9.7975 39.9433 9.82712 39.7676C9.8566 39.5918 9.87878 39.4151 9.89366 39.2376C9.90854 39.06 9.91598 38.8816 9.91598 38.7025C9.91584 38.5234 9.9084 38.3465 9.89366 38.1719C9.87892 37.9972 9.85674 37.825 9.82712 37.6552C9.79764 37.4858 9.76072 37.3188 9.71636 37.1543C9.672 36.9898 9.6204 36.8284 9.56157 36.6701C9.5044 36.5169 9.44137 36.3683 9.37249 36.2244C9.30264 36.0808 9.22707 35.9415 9.14579 35.8065C8.98488 35.5397 8.79776 35.2896 8.58721 35.0599C8.48388 34.9469 8.37476 34.8394 8.26028 34.7377C8.14755 34.6379 8.02952 34.5443 7.9067 34.4573C7.78506 34.3711 7.65874 34.2917 7.52832 34.2194C7.398 34.1472 7.26374 34.0824 7.12618 34.0252C6.84215 33.9069 6.54512 33.8226 6.24129 33.7741C6.08837 33.7497 5.93415 33.7343 5.77943 33.728C5.6218 33.7216 5.46393 33.7242 5.30661 33.7359" fill="#E4E4E4"/>
<path id="Ellipse 3 - Outline_2" d="M5.30681 53.1607C5.14734 53.1725 4.98866 53.1932 4.83151 53.2227C4.67334 53.2523 4.51694 53.2907 4.36303 53.3376C4.20677 53.3854 4.0532 53.4415 3.90302 53.5059C3.74931 53.5717 3.59915 53.6455 3.45314 53.727C3.31027 53.8073 3.17065 53.8946 3.03425 53.989C2.89786 54.0834 2.7654 54.1848 2.63686 54.2932C2.50846 54.4013 2.38385 54.5167 2.26303 54.6391C2.1422 54.7616 2.02579 54.8908 1.91379 55.0266C1.80178 55.1624 1.69563 55.3032 1.59533 55.4488C1.49504 55.5944 1.40094 55.7444 1.31305 55.8989C1.22598 56.0536 1.14455 56.2125 1.06878 56.3756C0.993008 56.5387 0.924127 56.7056 0.862131 56.8763C0.797518 57.0534 0.740964 57.2323 0.692469 57.413C0.643973 57.5938 0.603538 57.776 0.571163 57.9598C0.538649 58.1436 0.514267 58.3286 0.49801 58.5149C0.481754 58.7011 0.473628 58.8882 0.473633 59.0759C0.473633 59.2637 0.481758 59.4491 0.49801 59.632C0.514262 59.815 0.538645 59.9951 0.571163 60.1724C0.603539 60.3497 0.643974 60.5239 0.692469 60.6948C0.740963 60.8658 0.797312 61.0333 0.861513 61.1972C0.924058 61.3555 0.992941 61.5087 1.06816 61.6566C1.14252 61.8031 1.22417 61.9457 1.31284 62.084C1.40011 62.2196 1.49434 62.3507 1.59513 62.4766C1.69496 62.6018 1.80133 62.7216 1.91378 62.8356C2.02439 62.9476 2.14097 63.0536 2.26303 63.153C2.38255 63.2503 2.50742 63.3409 2.63706 63.4243C2.89291 63.589 3.1668 63.7238 3.45334 63.8261C3.74709 63.931 4.05235 64.0004 4.36261 64.0327C4.51823 64.0488 4.67466 64.0557 4.83109 64.0534C4.99004 64.0511 5.14872 64.0399 5.30639 64.0197C5.46548 63.9994 5.62333 63.9704 5.77921 63.9327C5.93557 63.8949 6.08975 63.8486 6.24108 63.794C6.39413 63.7388 6.54416 63.6756 6.69055 63.6045C6.8397 63.5322 6.9851 63.4523 7.12617 63.3652C7.26353 63.2795 7.3973 63.1876 7.52749 63.0895C7.65768 62.9915 7.78381 62.8869 7.90587 62.7758C8.02793 62.6648 8.14579 62.5477 8.25945 62.4245C8.37311 62.3014 8.48236 62.1721 8.5872 62.0369C8.69273 61.9017 8.79206 61.7625 8.88519 61.6192C8.97833 61.4759 9.06553 61.3289 9.14682 61.178C9.22811 61.0272 9.30333 60.8728 9.37249 60.7149C9.44164 60.557 9.50467 60.3958 9.56157 60.2313C9.62054 60.0611 9.67213 59.8893 9.71636 59.7162C9.76058 59.543 9.7975 59.3686 9.82712 59.1929C9.8566 59.0171 9.87878 58.8404 9.89366 58.6628C9.90854 58.4853 9.91598 58.3069 9.91598 58.1278C9.91584 57.9487 9.9084 57.7718 9.89366 57.5971C9.87892 57.4225 9.85674 57.2502 9.82712 57.0805C9.79764 56.9111 9.76072 56.7441 9.71636 56.5796C9.672 56.4151 9.6204 56.2537 9.56157 56.0954C9.5044 55.9422 9.44137 55.7936 9.37249 55.6497C9.30264 55.5061 9.22707 55.3668 9.14579 55.2318C8.98488 54.965 8.79776 54.7149 8.58721 54.4852C8.48388 54.3722 8.37475 54.2647 8.26028 54.163C8.14755 54.0632 8.02952 53.9696 7.9067 53.8826C7.78506 53.7964 7.65874 53.717 7.52832 53.6447C7.398 53.5725 7.26374 53.5077 7.12618 53.4505C6.84215 53.3322 6.54512 53.2479 6.24129 53.1994C6.08837 53.175 5.93415 53.1596 5.77943 53.1533C5.6218 53.1469 5.46393 53.1495 5.30661 53.1611" fill="#E4E4E4"/>
<path id="Ellipse 2 - Outline" d="M5.30785 12.692C5.14925 12.6882 4.99056 12.6934 4.83255 12.7075C4.67519 12.7217 4.51877 12.7449 4.36407 12.777C4.2085 12.8095 4.0549 12.8509 3.90406 12.901C3.7509 12.9517 3.6007 13.0109 3.45418 13.0785C3.31077 13.1445 3.17094 13.2182 3.0353 13.299C2.89832 13.3806 2.76567 13.4693 2.6379 13.5647C2.50807 13.6617 2.38324 13.7651 2.26387 13.8747C2.14249 13.9862 2.02587 14.1043 1.91401 14.2291C1.802 14.3541 1.69585 14.4845 1.59555 14.6205C1.49525 14.7565 1.40116 14.8974 1.31326 15.0433C1.22578 15.1912 1.14415 15.3426 1.06838 15.4977C0.992607 15.6529 0.923726 15.8131 0.861729 15.9784C0.79753 16.1488 0.74118 16.3221 0.692685 16.4982C0.644189 16.6742 0.603754 16.8526 0.57138 17.0332C0.538866 17.2143 0.514483 17.397 0.498226 17.5812C0.48197 17.7654 0.473844 17.9514 0.473849 18.1392C0.473849 18.3267 0.481975 18.5127 0.498226 18.6971C0.514478 18.8816 0.538861 19.0641 0.57138 19.2446C0.603755 19.425 0.644191 19.6031 0.692685 19.7788C0.741179 19.9544 0.797528 20.1273 0.861729 20.2975C0.924274 20.4618 0.993156 20.6216 1.06838 20.7769C1.14415 20.9316 1.22598 21.0817 1.31387 21.2272C1.40176 21.3727 1.49586 21.513 1.59616 21.6481C1.69632 21.7837 1.80247 21.9135 1.91461 22.0375C2.02676 22.1615 2.14317 22.2786 2.26386 22.3888C2.3826 22.4979 2.50682 22.601 2.63603 22.6975C2.76382 22.7921 2.89647 22.8799 3.03343 22.9606C3.1691 23.0406 3.30892 23.1133 3.45231 23.1784C3.59887 23.245 3.74907 23.3033 3.9022 23.353C4.20351 23.4505 4.51506 23.5129 4.83068 23.539C5.14672 23.5652 5.46472 23.5556 5.7786 23.5103C5.93421 23.4878 6.08841 23.4565 6.24047 23.4165C6.3929 23.3763 6.54296 23.3276 6.68993 23.2706C6.83862 23.2129 6.98405 23.1472 7.12556 23.0736C7.26354 23.0019 7.39777 22.9232 7.5277 22.8378C7.65839 22.7518 7.78467 22.6594 7.90608 22.5607C8.02814 22.4615 8.146 22.3558 8.25966 22.2437C8.37332 22.1316 8.48257 22.0129 8.58741 21.8878C8.69294 21.7628 8.79227 21.6331 8.88541 21.4989C8.97854 21.3647 9.06575 21.2261 9.14703 21.0831C9.22859 20.9401 9.30381 20.7931 9.3727 20.6419C9.44158 20.4908 9.50461 20.336 9.56178 20.1776C9.62075 20.0131 9.67234 19.8464 9.71657 19.6775C9.76079 19.5086 9.79771 19.3378 9.82733 19.165C9.85681 18.9915 9.87899 18.8167 9.89387 18.6405C9.90875 18.4643 9.91619 18.2867 9.91619 18.1076C9.91605 17.9286 9.90862 17.751 9.89387 17.5748C9.87913 17.3986 9.85695 17.2243 9.82733 17.0518C9.79785 16.8792 9.76093 16.7085 9.71657 16.5397C9.67221 16.3709 9.62061 16.2045 9.56178 16.0404C9.50461 15.8818 9.44158 15.7272 9.3727 15.5765C9.30381 15.4258 9.22825 15.279 9.146 15.1361C9.06472 14.9945 8.97751 14.8567 8.88437 14.7228C8.79123 14.5889 8.69225 14.4599 8.58741 14.336C8.48326 14.2121 8.37429 14.0944 8.26049 13.9828C8.14669 13.8712 8.02883 13.7663 7.9069 13.6681C7.78557 13.57 7.65935 13.4781 7.52873 13.3928C7.39878 13.3082 7.26456 13.2303 7.12659 13.1595C6.98505 13.0868 6.83962 13.0219 6.69096 12.9652C6.54395 12.9092 6.39389 12.8614 6.2415 12.8222C6.0894 12.7832 5.93519 12.7528 5.77963 12.7313C5.62287 12.7097 5.46501 12.697 5.30681 12.6933M5.30681 12.1762C6.00101 12.1952 6.68186 12.3715 7.29811 12.6916C7.91051 13.0118 8.45332 13.4504 8.89512 13.9818C9.35693 14.5356 9.71659 15.1671 9.95731 15.8468C10.4728 17.3098 10.4728 18.9051 9.95731 20.3681C9.71634 21.0498 9.35675 21.6835 8.89512 22.24C8.45326 22.7739 7.91051 23.2155 7.2979 23.5396C6.68246 23.8636 6.00172 24.0443 5.3066 24.068C4.60721 24.091 3.91194 23.9524 3.2748 23.663C2.63159 23.3684 2.05617 22.9441 1.58459 22.4167C1.08382 21.8582 0.691888 21.211 0.428992 20.5085C-0.140393 18.979 -0.140393 17.2958 0.428992 15.7664C0.692146 15.0618 1.084 14.4122 1.58459 13.8507C2.05602 13.3204 2.6313 12.8925 3.2748 12.5935C3.91144 12.3 4.60707 12.157 5.30784 12.1754L5.30681 12.1762Z" fill="#6A48D7"/>
<path id="Path 1" d="M5.30749 19.5834L3.67969 16.1922L4.06613 15.9405L5.40688 18.7264L11.0365 12.1094L11.3773 12.4725L5.30749 19.5834Z" fill="#6A48D7"/>
<g id="Group 1">
<path id="Path 1-2" d="M64.5502 86.5343L60.5205 86.5186L61.8199 97.0481L64.5502 97.0617V86.5343Z" fill="#9E616A"/>
<path id="Path 2" d="M65.2461 99.711L56.4473 99.6645V99.5534C56.4471 99.3275 56.4691 99.1022 56.513 98.8807C56.5995 98.4437 56.7719 98.0282 57.0203 97.6584C57.2726 97.2835 57.5959 96.9618 57.9719 96.7115C58.343 96.4648 58.7593 96.2941 59.1968 96.2095C59.4186 96.1669 59.644 96.1461 59.8698 96.1475L65.2461 96.174V99.711Z" fill="#2F2E41"/>
</g>
<g id="Group 2">
<path id="Path 3" d="M51.6471 86.484L47.6289 86.4683L48.9242 96.9835L51.6471 96.9972V86.484Z" fill="#9E616A"/>
<path id="Path 4" d="M52.3411 99.6424L43.5654 99.5963V99.4851C43.5654 99.2596 43.5874 99.0347 43.6311 98.8135C43.7174 98.3772 43.8894 97.9623 44.137 97.5928C44.3885 97.2184 44.711 96.8969 45.0864 96.6468C45.4564 96.4006 45.8717 96.2304 46.3081 96.146C46.5293 96.1034 46.7542 96.0827 46.9795 96.084L52.3411 96.1103V99.6424Z" fill="#2F2E41"/>
</g>
<path id="Path 6" d="M51.4766 43.4473L44.7197 68.6634L47.1929 92.8348L52.6692 92.9859L51.4768 71.1603L58.3086 60.2685L59.7902 93.1345L64.7577 92.7832L67.5211 64.5252C68.4597 62.3187 69.148 60.014 69.5732 57.6542C69.9073 55.8019 70.0698 53.9227 70.0586 52.0405C70.0529 50.7733 69.9555 49.5083 69.7672 48.2552C69.6999 47.7883 69.6088 47.325 69.4942 46.8674L67.4796 44.825L51.4766 43.4473Z" fill="#2F2E41"/>
<path id="Vector_6" d="M60.4286 47.6646C59.2923 47.6646 58.2261 47.6281 57.2593 47.5561C56.2717 47.4884 55.2892 47.359 54.3178 47.1689C53.4906 47.0144 52.6851 46.7608 51.9186 46.4136C51.3016 46.1471 50.7651 45.7237 50.3625 45.1855L50.3164 45.1185L52.1633 33.099L54.1549 19.5846C54.286 18.6903 54.7413 17.8754 55.4343 17.295C56.1273 16.7147 57.0094 16.4094 57.9129 16.4373L64.1503 16.6284C64.6181 16.6428 65.0782 16.7509 65.5033 16.9463C65.9285 17.1418 66.3101 17.4206 66.6256 17.7663C66.941 18.112 67.1838 18.5175 67.3396 18.9588C67.4954 19.4 67.561 19.8681 67.5326 20.3352L66.7138 33.7754L69.734 47.0328L69.5202 47.0626C69.4341 47.074 69.1026 47.1178 68.5834 47.1762C67.9048 47.2525 67.2118 47.3212 66.5238 47.3806C65.5504 47.4645 64.5979 47.5305 63.6928 47.5767C62.5449 47.6352 61.4446 47.6636 60.4286 47.6646Z" fill="#CCCCCC"/>
<path id="Path 9" d="M56.9676 14.0489C56.966 14.0489 56.9643 14.0489 56.9626 14.0489C56.8318 14.0489 56.7022 14.023 56.5814 13.9729C56.4605 13.9227 56.3507 13.8492 56.2582 13.7566C56.1657 13.664 56.0924 13.5542 56.0424 13.4332C55.9924 13.3123 55.9667 13.1827 55.9668 13.0518V7.49084C55.9658 6.49453 56.1652 5.50819 56.5531 4.59048C57.3126 2.79959 58.7339 1.37088 60.5208 0.602091C61.6509 0.117351 62.8837 -0.079539 64.1086 0.0290499C65.3335 0.137639 66.5124 0.548316 67.5396 1.22431C68.5669 1.9003 69.4104 2.82051 69.9948 3.90252C70.5791 4.98454 70.886 6.19458 70.8879 7.4243V12.9938C70.8881 13.1278 70.8612 13.2605 70.809 13.3839C70.7066 13.6247 70.5151 13.8166 70.2746 13.9196C70.1511 13.9723 70.0184 13.9996 69.8842 14L56.9668 14.0489H56.9676Z" fill="#2F2E41"/>
<path id="Ellipse 1" d="M66.7952 5.58366C67.3156 6.53401 67.5426 7.61724 67.4477 8.69654C67.3527 9.77584 66.9401 10.8028 66.2618 11.6477C65.5836 12.4926 64.6701 13.1176 63.6369 13.4437C62.6037 13.7698 61.497 13.7824 60.4566 13.4798C59.7677 13.2819 59.1249 12.9492 58.5655 12.501C58.0061 12.0528 57.5412 11.4981 57.1977 10.869C56.6786 9.91907 56.4524 8.83672 56.5476 7.7584C56.6428 6.68009 57.0551 5.65411 57.7326 4.80981C58.4101 3.96551 59.3224 3.34069 60.3544 3.01414C61.3865 2.6876 62.4922 2.67394 63.532 2.97489C64.2215 3.17213 64.8651 3.50431 65.4252 3.95217C65.9854 4.40003 66.4511 4.95466 66.7952 5.58388V5.58366Z" fill="#9E616A"/>
<path id="Path 10" d="M54.2031 7.94346C54.2024 7.1555 54.3601 6.37544 54.6668 5.64963C55.2674 4.23349 56.3914 3.1038 57.8045 2.49612C58.5295 2.18548 59.3095 2.02384 60.0983 2.02081L61.2113 2.01523C61.2238 2.01516 61.2363 2.01513 61.2488 2.01514C62.0195 2.01561 62.7826 2.16789 63.4945 2.46326C64.2063 2.75864 64.8531 3.19134 65.3977 3.73666C65.9424 4.28197 66.3743 4.92923 66.6688 5.64146C66.9633 6.35369 67.1146 7.11695 67.1141 7.88767V7.99905L64.7595 8.00856L63.9567 5.76555L63.7961 8.0129L62.58 8.01827L62.1751 6.88664L62.0939 8.01971L54.2042 8.05505L54.2031 7.94346Z" fill="#2F2E41"/>
<path id="Path 11" d="M44.7236 19.6422C44.3613 19.7308 44.0225 19.8969 43.7305 20.1289C43.5022 20.3095 43.3071 20.5283 43.1537 20.7756C42.8512 21.265 42.7179 21.8403 42.7744 22.4129C42.8029 22.7021 42.8813 22.9842 43.0063 23.2467C43.1603 23.5737 43.3819 23.8644 43.6565 24.0995C43.9312 24.3346 44.2525 24.5087 44.5994 24.6105C44.9463 24.7122 45.3109 24.7392 45.669 24.6897C46.0271 24.6402 46.3706 24.5153 46.6768 24.3232C46.6994 24.3086 46.7218 24.2938 46.7439 24.2788C46.766 24.2638 46.7878 24.2485 46.8091 24.2329C46.8306 24.2172 46.8517 24.2013 46.8724 24.1852C46.8932 24.1691 46.9138 24.1527 46.9342 24.1361L59.927 28.7603C60.3267 28.9025 60.7619 28.911 61.1669 28.7845C61.5719 28.658 61.9249 28.4033 62.1726 28.0589L65.2529 23.794L61.5288 21.2862L59.5745 23.5063L47.6839 21.141C47.671 21.1102 47.6575 21.0796 47.6436 21.0491C47.6297 21.0186 47.6152 20.9882 47.6001 20.9579C47.5847 20.9278 47.5689 20.8978 47.5526 20.868C47.5363 20.8381 47.5191 20.8085 47.5009 20.7792C47.2172 20.3208 46.7958 19.964 46.2969 19.7597C45.798 19.5555 45.2473 19.5144 44.7236 19.6422Z" fill="#9E616A"/>
<path id="Path 12" d="M59.7845 22.1063C60.1732 21.6212 60.7166 20.9915 61.2687 20.3668C61.8208 19.7422 62.3811 19.1231 62.8037 18.66C63.2264 18.1968 63.5108 17.8899 63.5108 17.8899C63.9009 17.3 64.4831 16.8634 65.1586 16.6542C65.8341 16.4449 66.5613 16.476 67.2165 16.7421C67.8717 17.0081 68.4146 17.4928 68.753 18.1138C69.0914 18.7347 69.2044 19.4537 69.0728 20.1485C68.9976 20.5485 68.8423 20.9292 68.6161 21.2676C68.6161 21.2676 68.1923 21.8223 67.5524 22.6502C66.9126 23.4781 66.0565 24.5802 65.193 25.6759C64.3295 26.7716 63.4576 27.8616 62.7853 28.6662C62.1129 29.4709 61.6398 29.9907 61.5732 29.9461L59.2281 22.9753C59.1614 22.9308 59.3959 22.5913 59.7845 22.1063Z" fill="#CCCCCC"/>
<path id="Path 13" d="M61.1762 13.8735C61.1394 14.0533 61.1537 14.2398 61.2176 14.4118C61.2496 14.4999 61.2939 14.583 61.349 14.6588C61.3962 14.7233 61.4509 14.7821 61.5118 14.8338C61.6925 14.9865 61.9217 15.0698 62.1583 15.0688C62.173 15.0686 62.1877 15.0682 62.2025 15.0675C62.2172 15.0668 62.232 15.0658 62.2467 15.0644C62.2616 15.0632 62.2764 15.0615 62.2911 15.0595C62.3059 15.0574 62.3207 15.055 62.3356 15.0524L63.1713 14.9005L64.3223 12.4414V14.6939L68.1218 14.0099V4.45117L61.7522 4.48175L61.9097 4.66464C62.4323 5.2783 62.7756 6.02427 62.9016 6.82044C63.0252 7.62685 63.0096 8.44847 62.8557 9.24963C62.7061 10.0603 62.479 10.8547 62.1775 11.622C61.9139 12.3017 61.6115 12.9657 61.2715 13.6106C61.2276 13.6933 61.1956 13.7818 61.1762 13.8735Z" fill="#2F2E41"/>
<path id="Vector_7" d="M17.0563 100H95.7907C95.8455 100 95.8981 99.9784 95.9368 99.9397C95.9756 99.9009 95.9974 99.8484 95.9974 99.7936C95.9974 99.7388 95.9756 99.6862 95.9368 99.6474C95.8981 99.6087 95.8455 99.5869 95.7907 99.5869H17.0563C17.0015 99.5869 16.9489 99.6087 16.9101 99.6474C16.8714 99.6862 16.8496 99.7388 16.8496 99.7936C16.8496 99.8484 16.8714 99.9009 16.9101 99.9397C16.9489 99.9784 17.0015 100 17.0563 100Z" fill="#CACACA"/>
</g>
<defs>
<clipPath id="clip0_1199_242">
<rect width="95.9956" height="100" fill="white" transform="translate(0.00195312)"/>
</clipPath>
</defs>
</svg>
