<svg width="198" height="35" fill="none" xmlns="http://www.w3.org/2000/svg"><path d="M1.336 26.133a1.09 1.09 0 01-.164-.211 1.541 1.541 0 01-.117-.352 3.08 3.08 0 01-.516-.914 4.95 4.95 0 01-.258-1.054 5.418 5.418 0 01-.023-1.125 7.1 7.1 0 01.164-1.055c.047-.156.086-.32.117-.492.078-.297.156-.586.234-.867.079-.297.196-.54.352-.727a.783.783 0 01.023-.563c.079-.203.157-.39.235-.562.031-.047.054-.086.07-.117a.907.907 0 01.047-.117l.54-1.57c.187-.516.366-1.009.538-1.477.313-.86.61-1.703.89-2.532.298-.828.563-1.71.798-2.648a1.22 1.22 0 01.328-.188.91.91 0 01.117-.046.52.52 0 01.164-.024c.328.172.71.336 1.148.492.454.141.836.211 1.149.211l.398.352c.203.234.375.484.516.75.156.25.203.578.14.984-.093.14-.171.227-.234.258a8.78 8.78 0 01-.304.961c-.11.266-.22.523-.329.773a19.32 19.32 0 00-.351.844c-.11.281-.203.625-.281 1.031-.094.11-.157.204-.188.282-.016.078-.039.156-.07.234-.032.094-.07.195-.117.305a.81.81 0 01-.211.258c-.063.484-.157.882-.282 1.195l-.375.89a34.846 34.846 0 00-.609 1.641c-.188.531-.297 1.14-.328 1.828.187-.047.36-.07.516-.07.203 0 .398.031.585.094a5.139 5.139 0 011.829-.516 28.929 28.929 0 011.992-.117c.547 0 1.054-.024 1.523-.07.156.109.258.171.305.187h.374c.048 0 .11.008.188.023.22.22.43.375.633.47.203.077.422.155.656.234.204.078.399.164.586.257.204.079.399.188.586.329l.211 1.195c.125.172.18.289.164.351a.578.578 0 01-.093.329l.046.304c-.296.063-.492.133-.585.211a2.06 2.06 0 00-.305.258 5.453 5.453 0 01-.492.023c-.313 0-.633.047-.961.141a4.463 4.463 0 00-1.547-.258 9.364 9.364 0 00-1.336.094l-.703.094c-.235.015-.469.023-.703.023-.188.031-.32.055-.399.07-.078.016-.156.04-.234.07-.531.173-1.11.345-1.735.516a6.789 6.789 0 01-1.851.258c-.922 0-1.664-.234-2.227-.703a2.235 2.235 0 00-.14-.281 1.536 1.536 0 01-.094-.164zm26.25-1.102c-.094.266-.234.54-.422.82a3.466 3.466 0 01-.633.727c-.234.203-.5.375-.797.516a2.44 2.44 0 01-.937.234c-.203-.047-.344-.101-.422-.164a2.473 2.473 0 00-.21-.14.597.597 0 00-.142-.07.368.368 0 00-.093-.071l-.282-.117.094-.305c.031-.125.024-.219-.023-.281a1.507 1.507 0 00-.282-.305l-.14-.14a.932.932 0 01-.117-.141l-.399-.446.633-.164c.39-.109.648-.25.773-.422.141-.171.196-.46.165-.867-.313-.062-.579-.07-.797-.023-.203.047-.414.101-.633.164-.281.078-.57.148-.867.21-.282.048-.594.071-.938.071h-.351l-.352-.047-.234-.047c-.032-.171-.063-.265-.094-.28l-.094-.095a2.868 2.868 0 01-.258-.304c-.078-.14-.093-.313-.047-.516a1.121 1.121 0 01-.14-.422 2.628 2.628 0 00-.211.586l-.094.235-.234.046c-.031.016-.055.055-.07.118a.387.387 0 00-.024.117l-.117.398-.094.094a.368.368 0 00-.094.07c-.03.14-.07.282-.117.422s-.094.274-.14.399a9.367 9.367 0 00-.211.609 1.717 1.717 0 00-.047.563L18 26.32a1.208 1.208 0 01-.258.235l-.281.14a.544.544 0 01-.14.094.912.912 0 00-.118.047l-.07.258-.281.047c-.172.03-.297.054-.375.07a.982.982 0 01-.235.023l-.234-.023c-.172-.14-.305-.25-.399-.328a1.845 1.845 0 00-.328-.258c-.14-.188-.219-.328-.234-.422a8.48 8.48 0 00-.047-.258.773.773 0 01-.047-.234.297.297 0 00-.07-.14l-.305-.282.258-.21.023-.4c.313-.796.641-1.562.985-2.296l1.101-2.25c.125-.25.242-.5.352-.75l.375-.75a.517.517 0 01.023-.375c.172-.266.313-.5.422-.703l.328-.657c.125-.265.25-.523.375-.773.14-.25.313-.508.516-.773l.375-.165c.047-.015.102-.03.164-.046a.466.466 0 01.21-.047l.352.047c.438-.204.82-.485 1.149-.844.328-.375.664-.82 1.008-1.336l.234-.328.305.187c.078.047.187.094.328.14.14.032.289.071.445.118.282.063.547.133.797.211.25.078.453.195.61.352.093.25.148.437.164.562.015.125.039.25.07.375.047.266.086.531.117.797.047.266.078.563.094.89.078.266.14.532.187.797.063.25.117.508.164.774.078.375.157.742.235 1.102.078.343.18.671.304.984.125 0 .204.008.235.023.078-.03.156-.054.234-.07.094-.016.195-.031.305-.047l.258-.023.093.234c.016.078.094.156.235.234.203.016.351.063.445.141.094.063.18.133.258.211.062.063.125.11.187.14l.352.141-.188.352a3.211 3.211 0 01-.68.82c-.28.25-.6.461-.96.633.015.094.023.187.023.281.016.078.04.164.07.258.047.266.087.54.118.82.031.282.031.57 0 .867l-.047.094zm-6.773-4.054c.468-.032.89-.063 1.265-.094.39-.047.82-.117 1.29-.211-.11-.469-.227-.953-.352-1.453a43.36 43.36 0 00-.399-1.524l-.14.235a11.04 11.04 0 00-.915 1.101c-.28.407-.523.79-.726 1.149-.094.14-.188.28-.281.422-.094.14-.18.28-.258.421a1.58 1.58 0 01.258-.023c.093 0 .18-.008.258-.023zm13.125 1.757a.421.421 0 00-.305.258 9.724 9.724 0 00-.188.399 3.03 3.03 0 01-.164.398c-.047.11-.125.164-.234.164a.622.622 0 01-.14.328 5.25 5.25 0 00-.188.305c-.063.094-.11.203-.14.328-.032.11-.017.242.046.398a.614.614 0 00-.234.399c-.032.172-.07.336-.118.492a.858.858 0 01-.187.399c-.094.109-.266.156-.516.14-.047.063-.054.102-.023.117.031.016.055.07.07.164-.172-.03-.305-.023-.398.024a.597.597 0 01-.305.117 1.62 1.62 0 01-.75-.492 5.55 5.55 0 01-.516-.774 22.22 22.22 0 01-.398-.89 7.7 7.7 0 00-.328-.774 1.06 1.06 0 00.023-.492 1.036 1.036 0 00-.164-.422c.766-1.625 1.602-3.36 2.508-5.203a187.851 187.851 0 002.578-5.46c.36.14.711.304 1.055.491.36.172.68.375.96.61a3.4 3.4 0 01.75.82c.204.297.337.633.4 1.008-.032.094-.071.133-.118.117-.031-.031-.062-.023-.094.024.063.078.094.132.094.164a.1.1 0 010 .093v.141c0 .047.023.117.07.21-.062-.015-.109-.007-.14.024-.016.032-.063.032-.14 0 .062.172.077.313.046.422a.987.987 0 01-.094.305 1.174 1.174 0 00-.117.281c-.031.094-.023.219.023.375a.159.159 0 00-.117.047.274.274 0 00-.047.07l-.07.07c-.016.016-.047.016-.094 0a5.7 5.7 0 01.047 1.032l-.047 1.055c0 .343.008.71.024 1.101.015.375.07.766.164 1.172a3.851 3.851 0 001.336-1.266 6.823 6.823 0 00.82-1.734c.219-.64.383-1.328.492-2.062.11-.735.227-1.485.352-2.25.14-.141.25-.313.328-.516.078-.203.148-.414.21-.633.063-.234.126-.46.188-.68a3.34 3.34 0 01.235-.632c.234.03.43.109.586.234.172.11.328.234.468.375.141.125.29.25.446.375.156.11.351.18.586.21.187.267.36.524.515.774.157.25.258.516.305.797-.078.125-.14.266-.187.422-.032.156-.07.313-.118.469-.047.156-.109.305-.187.445a1.093 1.093 0 01-.328.328c-.047.407-.11.782-.188 1.125a22.01 22.01 0 01-.21.985c-.063.328-.118.672-.165 1.03a6.717 6.717 0 00-.047 1.15l-.398 1.148c-.14.406-.25.773-.328 1.101-.25.203-.446.446-.586.727-.14.281-.29.562-.445.844-.063.062-.102.078-.118.047-.015-.032-.07-.055-.164-.07.016.062.016.109 0 .14a.368.368 0 01-.07.094.256.256 0 00-.047.093c0 .047.016.11.047.188a1.854 1.854 0 00-.586.398c-.172.172-.36.328-.562.47-.188.14-.422.233-.704.28-.265.047-.617-.008-1.054-.164a9.33 9.33 0 01-1.711-1.617c-.485-.61-.883-1.336-1.196-2.18zm25.359.047a4.208 4.208 0 01-1.477 1.57c-.61.36-1.28.665-2.015.915-.735.234-1.508.445-2.32.632-.797.188-1.57.43-2.32.727-.22 0-.415.008-.587.023-.156.016-.312.04-.469.07a3.94 3.94 0 00-.422.071 23.8 23.8 0 01-.468.047c-.063-.016-.102 0-.117.047a.369.369 0 01-.07.094c-.266.046-.509.07-.727.07h-.516c-.187 0-.383.023-.586.07-.187.063-.36.086-.516.07-1.171-.062-2.093-.476-2.765-1.242-.656-.78-1.024-1.86-1.102-3.234.016-.078 0-.125-.047-.14a.368.368 0 01-.093-.071c0-.156.015-.29.047-.398.046-.11.054-.25.023-.422.406-.86.867-1.657 1.383-2.39a8.859 8.859 0 011.851-1.97c.11-.093.203-.187.282-.28.078-.095.148-.188.21-.282.079-.094.165-.172.258-.235a.815.815 0 01.352-.164 6.296 6.296 0 011.172-1.03c.453-.313.93-.61 1.43-.892.5-.296.992-.585 1.476-.867.5-.297.953-.625 1.36-.984.171.078.296.101.374.07a.366.366 0 01.258 0c.11.235.258.399.446.492.203.094.398.196.586.305.203.094.39.211.562.352.172.14.305.328.398.562-.093 0-.14.04-.14.117.015.063.039.133.07.211a.32.32 0 01.024.211c0 .063-.055.094-.164.094a.166.166 0 00.14.14c.094 0 .14.04.14.118 0 .078-.023.14-.07.187-.03.047-.03.125 0 .235a9.405 9.405 0 01-1.054.586c-.375.187-.774.39-1.196.609-.406.203-.836.43-1.289.68a10.49 10.49 0 00-1.289.82c-.422.313-.851.664-1.289 1.055a18.227 18.227 0 00-2.414 2.508c-.36.437-.664.875-.914 1.312.031.078.063.14.094.188a.343.343 0 01.117.164c.5.03.961.03 1.383 0a4.125 4.125 0 011.312.07.228.228 0 00.094-.14.21.21 0 01.117-.141c.89-.094 1.72-.235 2.485-.422.765-.203 1.547-.414 2.343-.633a4.645 4.645 0 00-.351-.117 2.138 2.138 0 00-.281-.117c-.078-.079-.078-.141 0-.188.093-.062.172-.125.234-.187a1.747 1.747 0 01-.54-.47c-.124-.187-.202-.437-.233-.75a.355.355 0 00.14-.28.294.294 0 00-.14-.258c-.063-.016-.102-.016-.118 0a.271.271 0 00-.047.07.208.208 0 01-.023.094c-.016.015-.055.008-.117-.024.016-.14.047-.257.094-.351a1.04 1.04 0 00.14-.328l1.617-1.078c.172.125.383.265.633.421.25.141.508.29.774.446.28.14.562.289.843.445.297.14.57.281.82.422.22.094.415.219.587.375s.336.32.492.492l.469.469c.172.156.367.289.586.398-.032.203-.024.367.023.492s.063.282.047.47zm12.867-9.117c.031.344.086.64.164.89.078.25.164.493.258.727.078.219.148.438.21.656.079.204.134.454.165.75a9.846 9.846 0 00-.281 1.125c-.047.344-.102.704-.164 1.079-.25.547-.493 1.03-.727 1.453-.234.422-.422.789-.562 1.101a1.32 1.32 0 00-.211.282 6.194 6.194 0 01-.164.304 2.06 2.06 0 00-.118.211.793.793 0 01-.117.188l-.469-.164-.093.586-.328.093-.235.282c-.297.515-.61.953-.937 1.312a6.638 6.638 0 01-1.125.938 9.802 9.802 0 01-1.407.75 89.21 89.21 0 01-1.757.773 6.113 6.113 0 00-.704-.047 67.209 67.209 0 01-.539-.047c-.296 0-.664-.023-1.101-.07a.446.446 0 00-.211-.258.583.583 0 00-.258-.07 1.37 1.37 0 01-.61-.54c-.124-.25-.25-.515-.374-.796a6.597 6.597 0 00-.235-.469 7.025 7.025 0 00-.257-.469l.398-.117-.516-.562a.42.42 0 00-.117-.117.927.927 0 01-.117-.141l-.023-.375a68.42 68.42 0 01-.07-2.953c.015-.907.14-1.711.374-2.414v-.258c.047-.344.094-.625.14-.844.048-.234.087-.453.118-.656.047-.344.117-.664.211-.961.219-.047.383-.133.492-.258.11-.14.203-.265.281-.375.22-.015.368.016.446.094.078.078.156.203.234.375.078.14.172.297.281.469.125.171.305.304.54.398.03.125.07.258.117.399.062.124.125.265.187.421.125.266.234.547.328.844a2.7 2.7 0 01.188.82c-.157.297-.282.641-.375 1.032-.078.39-.133.789-.164 1.195-.016.39-.008.773.023 1.148.047.36.117.665.211.915l.14.304.4-.047c.468-.125.89-.258 1.265-.398a6.674 6.674 0 002.016-1.242c.296-.282.609-.602.937-.961.328-.36.61-.766.844-1.219.25-.469.453-.953.609-1.453.172-.5.297-.992.375-1.477.094-.5.156-.968.188-1.406.265-.094.398-.281.398-.562l-.047-.258c-.062-.094-.062-.203 0-.328.094-.297.313-.524.656-.68.25.156.47.328.657.516.203.187.39.375.562.562zm11.883 11.367a3.73 3.73 0 01-.422.82 3.466 3.466 0 01-.633.727c-.234.203-.5.375-.797.516a2.44 2.44 0 01-.937.234c-.203-.047-.344-.101-.422-.164a2.473 2.473 0 00-.211-.14.598.598 0 00-.14-.07.368.368 0 00-.094-.071l-.282-.117.094-.305c.031-.125.024-.219-.023-.281a1.504 1.504 0 00-.282-.305 93.189 93.189 0 00-.14-.14.938.938 0 01-.117-.141l-.399-.446.633-.164c.39-.109.648-.25.773-.422.141-.171.196-.46.165-.867-.313-.062-.579-.07-.797-.023-.204.047-.414.101-.633.164-.281.078-.57.148-.867.21-.282.048-.594.071-.938.071h-.351l-.352-.047-.234-.047c-.032-.171-.063-.265-.094-.28l-.094-.095a2.88 2.88 0 01-.258-.304c-.078-.14-.093-.313-.047-.516a1.121 1.121 0 01-.14-.422 2.633 2.633 0 00-.211.586l-.094.235-.234.046c-.031.016-.055.055-.07.118a.387.387 0 00-.024.117l-.117.398-.094.094a.368.368 0 00-.094.07c-.03.14-.07.282-.117.422s-.094.274-.14.399a9.426 9.426 0 00-.211.609 1.717 1.717 0 00-.047.563l-.094.257a1.206 1.206 0 01-.258.235l-.281.14a.545.545 0 01-.14.094.91.91 0 00-.118.047l-.07.258-.281.047c-.172.03-.297.054-.376.07a.982.982 0 01-.234.023l-.234-.023c-.172-.14-.305-.25-.399-.328a1.84 1.84 0 00-.328-.258c-.14-.188-.219-.328-.234-.422a7.903 7.903 0 00-.047-.258.772.772 0 01-.047-.234.298.298 0 00-.07-.14l-.305-.282.258-.21.023-.4c.313-.796.64-1.562.985-2.296l1.101-2.25c.125-.25.242-.5.352-.75l.375-.75a.52.52 0 01.023-.375c.172-.266.313-.5.422-.703l.328-.657c.125-.265.25-.523.375-.773.14-.25.313-.508.516-.773l.375-.165c.047-.015.101-.03.164-.046a.466.466 0 01.21-.047l.352.047c.438-.204.82-.485 1.149-.844.328-.375.664-.82 1.008-1.336l.234-.328.305.187c.078.047.187.094.328.14.14.032.289.071.445.118.281.063.547.133.797.211.25.078.453.195.61.352.093.25.148.437.163.562.016.125.04.25.07.375.048.266.087.531.118.797.047.266.078.563.094.89.078.266.14.532.187.797.063.25.117.508.164.774.078.375.157.742.235 1.102.078.343.18.671.304.984.125 0 .204.008.235.023.078-.03.156-.054.234-.07.094-.016.195-.031.305-.047l.258-.023.093.234c.016.078.094.156.235.234.203.016.351.063.445.141.094.063.18.133.258.211.062.063.125.11.187.14l.352.141-.188.352a3.21 3.21 0 01-.68.82c-.28.25-.6.461-.96.633.015.094.023.187.023.281.016.078.04.164.07.258.047.266.087.54.118.82.031.282.031.57 0 .867l-.047.094zm-6.774-4.054c.47-.032.891-.063 1.266-.094.39-.047.82-.117 1.29-.211-.11-.469-.227-.953-.352-1.453a43.14 43.14 0 00-.399-1.524l-.14.235a11.04 11.04 0 00-.915 1.101c-.28.407-.523.79-.726 1.149-.094.14-.188.28-.281.422-.094.14-.18.28-.258.421.094-.015.18-.023.258-.023.093 0 .18-.008.257-.023zm24.938 1.804a4.205 4.205 0 01-1.477 1.57c-.609.36-1.28.665-2.015.915-.735.234-1.508.445-2.32.632-.797.188-1.57.43-2.32.727-.22 0-.415.008-.587.023-.156.016-.312.04-.469.07-.14.016-.28.04-.421.071-.141.016-.297.031-.47.047-.062-.016-.1 0-.116.047a.366.366 0 01-.07.094c-.266.046-.508.07-.727.07h-.516c-.187 0-.383.023-.586.07-.187.063-.36.086-.515.07-1.172-.062-2.094-.476-2.766-1.242-.656-.78-1.023-1.86-1.102-3.234.016-.078 0-.125-.046-.14a.366.366 0 01-.094-.071c0-.156.015-.29.047-.398.046-.11.054-.25.023-.422.406-.86.867-1.657 1.383-2.39a8.86 8.86 0 011.851-1.97c.11-.093.204-.187.282-.28.078-.095.148-.188.21-.282.079-.094.165-.172.258-.235A.816.816 0 0190 16.36a6.293 6.293 0 011.172-1.03c.453-.313.93-.61 1.43-.892.5-.296.992-.585 1.476-.867.5-.297.953-.625 1.36-.984.171.078.296.101.374.07a.366.366 0 01.258 0c.11.235.258.399.446.492.203.094.398.196.586.305.203.094.39.211.562.352.172.14.305.328.398.562-.093 0-.14.04-.14.117.016.063.039.133.07.211a.32.32 0 01.024.211c0 .063-.055.094-.164.094a.166.166 0 00.14.14c.094 0 .14.04.14.118 0 .078-.023.14-.07.187-.03.047-.03.125 0 .235a9.406 9.406 0 01-1.054.586c-.375.187-.774.39-1.195.609-.407.203-.836.43-1.29.68-.437.234-.867.508-1.289.82-.421.313-.851.664-1.289 1.055a18.182 18.182 0 00-2.414 2.508c-.36.437-.664.875-.914 1.312.031.078.063.14.094.188a.342.342 0 01.117.164c.5.03.961.03 1.383 0a4.125 4.125 0 011.312.07.227.227 0 00.094-.14.21.21 0 01.117-.141c.891-.094 1.72-.235 2.485-.422a284.66 284.66 0 002.344-.633 4.632 4.632 0 00-.352-.117 2.137 2.137 0 00-.281-.117c-.078-.079-.078-.141 0-.188.093-.062.172-.125.234-.187a1.746 1.746 0 01-.539-.47c-.125-.187-.203-.437-.234-.75a.355.355 0 00.14-.28.294.294 0 00-.14-.258c-.063-.016-.102-.016-.118 0a.271.271 0 00-.046.07.207.207 0 01-.024.094c-.016.015-.055.008-.117-.024.016-.14.047-.257.094-.351a1.04 1.04 0 00.14-.328l1.618-1.078c.171.125.382.265.632.421.25.141.508.29.774.446.281.14.562.289.844.445.296.14.57.281.82.422.219.094.414.219.586.375s.336.32.492.492l.469.469c.172.156.367.289.586.398-.032.203-.024.367.023.492s.063.282.047.47zm12.117-8.976a.686.686 0 010 .258.46.46 0 01-.023.14v.164c0 .047.015.125.047.235-.329.53-.711.898-1.149 1.101a6.219 6.219 0 01-1.383.422c-.5.078-1.015.164-1.547.258a4.556 4.556 0 00-1.546.61.705.705 0 00-.563 0c-.156.077-.391.1-.703.07a.883.883 0 01-.352.21c-.14.032-.281.07-.421.118.062.14.085.289.07.445 0 .14.023.258.07.352.547.046 1.149.039 1.805-.024a28.84 28.84 0 011.969-.117c.015.078.007.133-.024.164-.031.016-.039.055-.023.117.109.078.218.18.328.305l.328.328c.109.11.219.203.328.281a.758.758 0 00.422.07c.062.125.101.266.117.422a.744.744 0 01-.047.446c-.25.172-.5.351-.75.539-.25.172-.515.328-.797.468a4.76 4.76 0 01-.867.352c-.297.078-.633.11-1.008.094h-.187c-.031 0-.078-.024-.141-.07-.125.078-.304.101-.539.07-.219-.031-.39-.008-.515.07a1.323 1.323 0 00-.633-.094c-.235 0-.446-.03-.633-.093-.25.328-.477.68-.68 1.054a9.24 9.24 0 00-.539 1.196c.531.078.969.109 1.313.093.359-.015.695-.039 1.007-.07.313-.047.633-.086.961-.117a7.421 7.421 0 011.243-.047 2.932 2.932 0 011.101-.328 6.37 6.37 0 001.195-.281.731.731 0 01.329.257c.093.11.179.22.257.329.094.093.188.18.282.257.093.078.211.11.351.094.063.063.102.14.117.235.032.078.055.156.071.234a.822.822 0 00.07.21c.047.048.117.063.211.048-.234.515-.508.914-.82 1.195a3.11 3.11 0 01-1.032.61c-.39.14-.828.25-1.312.328a72.99 72.99 0 00-1.57.28.523.523 0 01-.352-.023 1.04 1.04 0 00-.328-.047c-.359.079-.789.149-1.289.211-.5.063-1.008.086-1.524.07a6.475 6.475 0 01-1.476-.21c-.469-.11-.852-.313-1.149-.61a.855.855 0 01-.257-.375c-.032-.156-.133-.273-.305-.351a6.448 6.448 0 00-.094-.68c-.047-.25-.094-.508-.14-.773a18.15 18.15 0 01-.118-.82 2.73 2.73 0 01.047-.727c.047-.235.141-.445.281-.633a.689.689 0 00.165-.61c.078-.015.125-.054.14-.117.016-.078.078-.109.188-.093a9.29 9.29 0 01.304-.797c.11-.25.219-.492.329-.727.124-.234.242-.468.351-.703.125-.25.242-.523.352-.82a2.138 2.138 0 01-.493-.656 4.675 4.675 0 01-.21-.727c-.047-.25-.086-.5-.118-.75a4.803 4.803 0 00-.164-.797c.156-.234.344-.422.563-.562.234-.157.484-.282.75-.375a6.32 6.32 0 01.867-.235c.312-.062.641-.133.984-.21.625-.204 1.18-.36 1.664-.47.5-.109.985-.195 1.454-.257a38.23 38.23 0 011.5-.211 26.666 26.666 0 001.757-.281c.141.14.274.21.399.21.062-.14.133-.18.211-.117.093.047.133 0 .117-.14.156.265.351.492.586.68.25.171.523.32.82.445zm9.375 6.586c.016-.063.047-.086.094-.07a.522.522 0 00.164-.024.857.857 0 01-.234-.492 1.01 1.01 0 00-.235-.54c.031-.078.055-.156.07-.234.032-.078.102-.11.211-.093a2.814 2.814 0 01.024-.961c.062-.297.156-.579.281-.844.141-.266.297-.524.469-.774.187-.265.367-.53.539-.797.141-.03.226-.015.258.047.031.047.086.032.164-.046.25-.172.422-.36.515-.563.094-.219.141-.453.141-.703.141-.406.297-.805.469-1.195a7.67 7.67 0 01.633-1.125c.234-.344.484-.641.75-.891.265-.266.554-.469.867-.61.219-.187.492-.359.82-.515a5.124 5.124 0 011.078-.352c.391-.093.789-.14 1.196-.14.406-.016.781.023 1.125.117.078.031.125.016.14-.047.016-.078.055-.117.117-.117.782.094 1.477.25 2.086.469a4.68 4.68 0 011.594.914c.297.468.578.976.844 1.523.265.531.469 1.094.609 1.688.156.578.227 1.18.211 1.804a5.369 5.369 0 01-.398 1.875 6.405 6.405 0 01-1.993 1.664c-.781.407-1.624.75-2.531 1.032-.89.265-1.82.484-2.789.656-.953.172-1.883.36-2.789.562.016.422.016.875 0 1.36-.015.468-.07.945-.164 1.43-.078.468-.203.93-.375 1.382a4.874 4.874 0 01-.656 1.266 3.622 3.622 0 00-.985.094c-.328.078-.625.156-.89.234l-.375-.234a1.042 1.042 0 00-.422-.118c.047-.187 0-.382-.141-.585a7.605 7.605 0 00-.398-.586 2.107 2.107 0 01-.258-.586c-.031-.203.063-.383.281-.54-.125-.109-.187-.28-.187-.515.062.062.14.094.234.094-.031-.282 0-.617.094-1.008.109-.39.195-.774.258-1.149.078-.39.093-.742.047-1.054-.047-.328-.235-.563-.563-.703zm6.094-5.485c-.063.172-.117.328-.164.469a2.392 2.392 0 01-.117.352c-.047.109-.102.218-.164.328-.047.11-.102.234-.164.375a.353.353 0 00.187.21.353.353 0 01.187.212c.219-.11.438-.188.657-.235.219-.062.437-.11.656-.14.219-.032.437-.07.656-.118.219-.047.446-.125.68-.234.234-.11.477-.195.727-.258.265-.078.523-.156.773-.234.25-.078.492-.164.727-.258.234-.11.437-.25.609-.422-.219-.203-.547-.383-.985-.539a5.156 5.156 0 00-1.429-.281 5.041 5.041 0 00-1.524.094c-.5.109-.937.335-1.312.68zm21.398 5.063c-.015.187 0 .367.047.539.047.172.102.344.164.515.078.157.149.32.211.493.063.172.11.343.141.515.031.219.031.461 0 .727-.031.25-.086.5-.164.75a3.14 3.14 0 01-.305.656 1.265 1.265 0 01-.445.422c-.219.281-.485.5-.797.656a4.542 4.542 0 00-.867.563 1.78 1.78 0 01-.586.234c-.203.047-.414.094-.633.14-.172.094-.375.196-.609.305-.235.094-.477.188-.727.282-.25.078-.5.14-.75.187a3.21 3.21 0 01-.656.024c-.469.171-.93.28-1.383.328-.438.062-.953.03-1.547-.094a4.022 4.022 0 01-1.57-.07 3.913 3.913 0 01-1.266-.586 5.225 5.225 0 01-.961-.985 6.622 6.622 0 01-.656-1.218c-.125-.891-.094-1.696.094-2.415a8.189 8.189 0 01.797-2.015 10.53 10.53 0 011.218-1.711c.453-.531.891-1.047 1.313-1.547.094.031.164.031.211 0a.833.833 0 00.164-.164c.047-.078.094-.148.14-.21a.41.41 0 01.211-.118c.11-.235.266-.406.469-.516a1.36 1.36 0 00.516-.515c.14-.032.258-.079.351-.141.094-.063.18-.133.258-.21.094-.08.188-.15.281-.212a.811.811 0 01.329-.164v-.258c.281-.125.484-.265.609-.422.141-.171.305-.375.492-.609.141-.016.25-.023.328-.023.094 0 .227-.016.399-.047.125-.22.234-.383.328-.492.109-.11.265-.227.468-.352.188.094.391.156.61.187.234.032.437.133.609.305a.68.68 0 00.141.375c.078.078.164.156.258.235.093.062.179.132.258.21a.576.576 0 01.187.329c.063.015.102.007.117-.024.031-.031.078-.039.141-.023.047.218.101.367.164.445.062.063.125.195.187.398-.078.157-.14.32-.187.493a.488.488 0 01-.281.351c-.016.11.015.172.093.188.079 0 .125.039.141.117.016.14-.008.242-.07.305.375.609.711 1.257 1.008 1.945.296.672.632 1.312 1.007 1.922zm-2.929 2.226c.062-.172.14-.312.234-.422.109-.109.172-.273.188-.492a1.09 1.09 0 01-.141-.281 1.897 1.897 0 01-.024-.352c-.343-.484-.64-1-.89-1.546a11.472 11.472 0 00-.844-1.57.587.587 0 01-.164.187c-.078.062-.164.047-.258-.047a.501.501 0 01-.164.281.491.491 0 01-.258.07 2.772 2.772 0 01-.304-.07 1.436 1.436 0 01-.258-.164c-.453.36-.906.711-1.36 1.055a6.769 6.769 0 00-1.218 1.195.425.425 0 01-.117.047c-.016-.016-.063-.008-.141.023-.125.297-.281.57-.469.82a29.3 29.3 0 00-.516.727c-.171.25-.32.516-.445.797s-.195.61-.211.985c.266.218.578.351.938.398.359.047.726.055 1.101.023.391-.03.766-.078 1.125-.14a5.086 5.086 0 011.032-.117c.656-.157 1.218-.36 1.687-.61.469-.265.961-.531 1.477-.797zm17.554 5.11a3.114 3.114 0 01-1.312-1.102 21.186 21.186 0 01-.938-1.617l-.14-.281a3.817 3.817 0 00-.141-.258l-.328-.61-.188-.375-.281.258-.422.375-.234.235c-.406.375-.82.75-1.242 1.125-.406.36-.844.687-1.313.984a7.79 7.79 0 01-1.453.703c-.5.172-1.047.266-1.64.281l-.516-.257a12.98 12.98 0 01-.75-.422 4.049 4.049 0 01-.703-.586 9.896 9.896 0 01-.211-.399 4.065 4.065 0 00-.164-.375 10.41 10.41 0 01-.422-.843c-.11-.25-.219-.532-.328-.844.047-.219.117-.586.211-1.102.093-.53.203-1.11.328-1.734l.422-1.875c.156-.64.312-1.195.468-1.664.141-.406.297-.836.469-1.29.188-.452.383-.866.586-1.241.219-.391.453-.72.703-.985.25-.281.516-.445.797-.492.078.11.164.188.258.234.094.047.18.086.258.118.218.312.429.578.633.796.218.22.468.438.75.657-.079.39-.196.828-.352 1.312-.141.469-.297.946-.469 1.43-.156.469-.312.93-.468 1.383-.157.453-.282.843-.376 1.172a6.292 6.292 0 00-.234.89c-.14.578-.273 1.367-.398 2.367.187-.046.39-.148.609-.304.219-.157.43-.32.633-.492a10.874 10.874 0 001.453-1.453c.203-.25.391-.508.563-.774.187-.266.374-.555.562-.867.188-.328.414-.711.68-1.149.234-.375.476-.773.726-1.195.266-.437.524-.852.774-1.242.265-.406.523-.774.773-1.102.25-.328.477-.586.68-.773.125.156.281.305.469.445.203.14.414.25.632.328.094.14.18.274.258.399.094.11.18.21.258.304.094.141.18.274.258.399.094.125.18.25.258.375a11.82 11.82 0 01-.188.984c-.031.203-.07.414-.117.633-.047.203-.094.398-.141.586l-.281 1.336c-.062.297-.109.531-.141.703-.015.172-.031.32-.046.445v.47c-.016.155-.008.312.023.468.016.14.047.289.094.445.047.156.109.297.187.422l.938-.727a3.53 3.53 0 00.75-.82c.25-.36.484-.765.703-1.219.234-.468.461-.976.68-1.523.218-.547.437-1.102.656-1.664.328-.828.656-1.633.984-2.414.344-.781.672-1.383.985-1.805.343.219.64.445.89.68.266.219.492.46.68.726.187.266.336.57.445.915.125.343.211.75.258 1.218-.281.547-.555 1.11-.82 1.688-.25.578-.493 1.156-.727 1.734-.312.75-.64 1.5-.984 2.25-.328.75-.696 1.469-1.102 2.156a13.665 13.665 0 01-1.359 1.875 7.292 7.292 0 01-1.735 1.43 1.722 1.722 0 00-.445-.07c-.25 0-.461.07-.633.21zm19.688-13.5a.73.73 0 010 .258.433.433 0 01-.024.14v.164c0 .047.016.125.047.235-.328.53-.711.898-1.148 1.101a6.219 6.219 0 01-1.383.422c-.5.078-1.016.164-1.547.258a4.57 4.57 0 00-1.547.61.702.702 0 00-.562 0c-.156.077-.391.1-.703.07a.883.883 0 01-.352.21c-.141.032-.281.07-.422.118.063.14.086.289.071.445 0 .14.023.258.07.352.547.046 1.148.039 1.804-.024a28.877 28.877 0 011.969-.117c.016.078.008.133-.023.164-.031.016-.039.055-.024.117.11.078.219.18.328.305l.329.328c.109.11.218.203.328.281a.756.756 0 00.422.07c.062.125.101.266.117.422a.752.752 0 01-.047.446c-.25.172-.5.351-.75.539-.25.172-.516.328-.797.468a4.82 4.82 0 01-.867.352c-.297.078-.633.11-1.008.094h-.187c-.032 0-.079-.024-.141-.07-.125.078-.305.101-.539.07-.219-.031-.391-.008-.516.07a1.323 1.323 0 00-.633-.094 1.99 1.99 0 01-.632-.093c-.25.328-.477.68-.68 1.054a9.24 9.24 0 00-.539 1.196c.531.078.969.109 1.312.093.36-.015.696-.039 1.008-.07.313-.047.633-.086.961-.117a7.404 7.404 0 011.242-.047c.313-.172.68-.281 1.102-.328a6.389 6.389 0 001.195-.281.729.729 0 01.328.257c.094.11.18.22.258.329.094.093.188.18.281.257.094.078.211.11.352.094.062.063.101.14.117.235.031.078.055.156.07.234.016.078.04.148.071.21.047.048.117.063.211.048-.235.515-.508.914-.821 1.195-.297.266-.64.469-1.031.61-.39.14-.828.25-1.312.328-.469.078-.993.171-1.571.28a.52.52 0 01-.351-.023 1.04 1.04 0 00-.328-.047c-.36.079-.789.149-1.289.211-.5.063-1.008.086-1.524.07a6.467 6.467 0 01-1.476-.21c-.469-.11-.852-.313-1.149-.61a.857.857 0 01-.258-.375c-.031-.156-.132-.273-.304-.351a6.448 6.448 0 00-.094-.68c-.047-.25-.094-.508-.141-.773a16.798 16.798 0 01-.117-.82 2.69 2.69 0 01.047-.727c.047-.235.141-.445.281-.633a.688.688 0 00.164-.61c.078-.015.125-.054.141-.117.015-.078.078-.109.187-.093.094-.282.196-.547.305-.797a33 33 0 01.328-.727c.125-.234.242-.468.352-.703.125-.25.242-.523.351-.82a2.15 2.15 0 01-.492-.656 4.683 4.683 0 01-.211-.727c-.047-.25-.086-.5-.117-.75a4.803 4.803 0 00-.164-.797c.156-.234.344-.422.562-.562.235-.157.485-.282.75-.375.266-.094.555-.172.868-.235.312-.062.64-.133.984-.21.625-.204 1.18-.36 1.664-.47.5-.109.984-.195 1.453-.257a38.77 38.77 0 011.5-.211 26.582 26.582 0 001.758-.281c.141.14.273.21.398.21.063-.14.133-.18.211-.117.094.047.133 0 .118-.14.156.265.351.492.586.68.25.171.523.32.82.445zm2.976 10.758c-.172.625-.328 1.101-.468 1.43-.125.312-.321.64-.586.984-.203-.032-.344-.008-.422.07a1.671 1.671 0 01-.258.21c-.141.032-.242.032-.305 0a.634.634 0 01-.164-.116 5.068 5.068 0 00-.187-.118.73.73 0 00-.305-.046 2.28 2.28 0 00-.117-.352c-.031-.11-.133-.148-.305-.117a.735.735 0 00-.047-.54 3.54 3.54 0 00-.047-.21.618.618 0 01.024-.281c-.078 0-.141-.055-.188-.165a3.136 3.136 0 00-.164-.328 40 40 0 01.141-.797c.047-.25.102-.484.164-.703.078-.218.141-.437.188-.656a1.156 1.156 0 00-.071-.68c.063.047.11.04.141-.023.031-.078.054-.172.07-.281.016-.125.024-.242.024-.352a1.57 1.57 0 00-.024-.305 8.8 8.8 0 00.375-1.242c.109-.437.203-.867.281-1.289.094-.422.188-.836.282-1.242.093-.406.218-.781.375-1.125.171-.031.359-.008.562.07.219.063.352.149.399.258a5.295 5.295 0 001.078-1.125c.312-.453.632-.89.961-1.312a7.35 7.35 0 011.078-1.125c.406-.328.914-.524 1.523-.586.313.234.656.476 1.031.726.391.235.711.547.961.938.125.062.227.133.305.21.094.063.203.134.328.212v.28c.188.173.336.376.445.61.126.22.235.461.329.727.093.25.187.508.281.773.094.25.203.492.328.727a.581.581 0 00-.047.21c0 .048.008.102.024.165a.952.952 0 01.07.187.73.73 0 010 .258c-.047.688-.274 1.242-.68 1.664a4.92 4.92 0 01-1.429 1.055c-.563.266-1.165.492-1.805.68-.641.187-1.219.39-1.735.609 0 .063.024.094.071.094.062 0 .086.039.07.117.375.234.672.422.891.562.218.141.422.258.609.352.203.094.414.18.633.258.234.062.555.14.961.234.406.094.719.172.937.235.235.046.446.093.633.14l.563.094c.203.016.484.039.843.07.141.14.258.313.352.516.109.187.18.383.211.586.031.187.039.375.023.562a.726.726 0 01-.164.422c.016.047.047.07.094.07a.38.38 0 01.187 0 .852.852 0 00-.234.235l-.187.281a1.038 1.038 0 01-.211.235.532.532 0 01-.328.14c-.485.188-1.094.195-1.829.024-.734-.157-1.664-.454-2.789-.891a39.172 39.172 0 01-1.382-.563 15.045 15.045 0 01-.914-.492 8.374 8.374 0 01-.704-.539 64.48 64.48 0 00-.75-.68zm3.352-8.04c-.172.25-.367.477-.586.68-.203.203-.406.414-.609.633-.188.203-.36.437-.516.703-.156.25-.266.547-.328.89a6.763 6.763 0 001.711-.445c.594-.25 1.156-.484 1.687-.703-.062-.484-.234-.875-.515-1.172-.266-.297-.547-.492-.844-.586z" fill="#FFD300"/></svg>