<svg width="115" height="100" viewBox="0 0 115 100" fill="none" xmlns="http://www.w3.org/2000/svg">
<g clip-path="url(#clip0_1199_808)">
<path d="M114.873 98.7603L32.6414 100L0 94.2148H50.9577L114.873 98.7603Z" fill="#E6E6E6"/>
<path d="M94.6933 26.3085C101.958 26.3085 107.848 20.4192 107.848 13.1543C107.848 5.88937 101.958 0 94.6933 0C87.4284 0 81.5391 5.88937 81.5391 13.1543C81.5391 20.4192 87.4284 26.3085 94.6933 26.3085Z" fill="#FF6584"/>
<path d="M23.2705 94.9023C23.2705 94.9023 23.4629 90.8705 27.4074 91.3392L23.2705 94.9023Z" fill="#3F3D56"/>
<path d="M22.1558 91.0656C23.2461 91.0656 24.13 90.1817 24.13 89.0914C24.13 88.0011 23.2461 87.1172 22.1558 87.1172C21.0655 87.1172 20.1816 88.0011 20.1816 89.0914C20.1816 90.1817 21.0655 91.0656 22.1558 91.0656Z" fill="#FDA50F"/>
<path d="M22.3922 92.416H21.835V96.3169H22.3922V92.416Z" fill="#3F3D56"/>
<path d="M88.2842 95.5913C88.2842 95.5913 88.4766 91.5595 92.4211 92.0281L88.2842 95.5913Z" fill="#3F3D56"/>
<path d="M87.1695 91.7545C88.2598 91.7545 89.1437 90.8706 89.1437 89.7803C89.1437 88.69 88.2598 87.8062 87.1695 87.8062C86.0792 87.8062 85.1953 88.69 85.1953 89.7803C85.1953 90.8706 86.0792 91.7545 87.1695 91.7545Z" fill="#FDA50F"/>
<path d="M87.4059 93.1045H86.8486V97.0054H87.4059V93.1045Z" fill="#3F3D56"/>
<path d="M97.7881 96.2797C97.7881 96.2797 97.9805 92.248 101.925 92.7166L97.7881 96.2797Z" fill="#3F3D56"/>
<path d="M96.6734 92.443C97.7637 92.443 98.6476 91.5591 98.6476 90.4688C98.6476 89.3785 97.7637 88.4946 96.6734 88.4946C95.5831 88.4946 94.6992 89.3785 94.6992 90.4688C94.6992 91.5591 95.5831 92.443 96.6734 92.443Z" fill="#FDA50F"/>
<path d="M96.9098 93.7935H96.3525V97.6943H96.9098V93.7935Z" fill="#3F3D56"/>
<path d="M38.835 92.9741C38.835 92.9741 39.0274 88.9423 42.9719 89.411L38.835 92.9741Z" fill="#3F3D56"/>
<path d="M37.7203 89.1373C38.8106 89.1373 39.6945 88.2535 39.6945 87.1631C39.6945 86.0728 38.8106 85.189 37.7203 85.189C36.63 85.189 35.7461 86.0728 35.7461 87.1631C35.7461 88.2535 36.63 89.1373 37.7203 89.1373Z" fill="#FDA50F"/>
<path d="M37.9567 90.4873H37.3994V94.3882H37.9567V90.4873Z" fill="#3F3D56"/>
<path d="M9.49609 93.6626C9.49609 93.6626 9.6885 89.6308 13.633 90.0994L9.49609 93.6626Z" fill="#3F3D56"/>
<path d="M8.38141 89.8258C9.47172 89.8258 10.3556 88.9419 10.3556 87.8516C10.3556 86.7613 9.47172 85.8774 8.38141 85.8774C7.2911 85.8774 6.40723 86.7613 6.40723 87.8516C6.40723 88.9419 7.2911 89.8258 8.38141 89.8258Z" fill="#FDA50F"/>
<path d="M8.61781 91.1763H8.06055V95.0771H8.61781V91.1763Z" fill="#3F3D56"/>
<path d="M57.2278 86.6567C69.1069 86.6567 78.7368 77.0268 78.7368 65.1477C78.7368 53.2686 69.1069 43.6387 57.2278 43.6387C45.3487 43.6387 35.7188 53.2686 35.7188 65.1477C35.7188 77.0268 45.3487 86.6567 57.2278 86.6567Z" fill="#3F3D56"/>
<path d="M43.6874 66.8742C44.2216 66.2347 44.8897 65.7203 45.6445 65.3673C46.3993 65.0143 47.2224 64.8313 48.0557 64.8313C48.889 64.8313 49.7121 65.0143 50.4669 65.3673C51.2217 65.7203 51.8898 66.2347 52.424 66.8742C53.338 66.0016 53.9698 64.8752 54.2379 63.6403C54.506 62.4054 54.398 61.1184 53.928 59.9454C53.458 58.7723 52.6474 57.767 51.6008 57.0588C50.5541 56.3506 49.3194 55.9722 48.0557 55.9722C46.792 55.9722 45.5572 56.3506 44.5106 57.0588C43.4639 57.767 42.6534 58.7723 42.1834 59.9454C41.7133 61.1184 41.6054 62.4054 41.8735 63.6403C42.1415 64.8752 42.7733 66.0016 43.6874 66.8742Z" fill="white"/>
<path d="M60.7675 66.8742C61.3017 66.2347 61.9697 65.7203 62.7246 65.3673C63.4794 65.0143 64.3025 64.8313 65.1358 64.8313C65.969 64.8313 66.7921 65.0143 67.547 65.3673C68.3018 65.7203 68.9699 66.2347 69.504 66.8742C70.4181 66.0016 71.0499 64.8753 71.318 63.6403C71.586 62.4054 71.4781 61.1184 71.0081 59.9454C70.538 58.7723 69.7275 57.767 68.6808 57.0588C67.6342 56.3506 66.3995 55.9722 65.1358 55.9722C63.8721 55.9722 62.6373 56.3506 61.5907 57.0588C60.544 57.767 59.7335 58.7723 59.2634 59.9454C58.7934 61.1184 58.6855 62.4054 58.9535 63.6403C59.2216 64.8753 59.8534 66.0016 60.7675 66.8742Z" fill="white"/>
<path d="M45.8968 62.3205C47.0987 62.3205 48.073 61.3463 48.073 60.1444C48.073 58.9426 47.0987 57.9683 45.8968 57.9683C44.695 57.9683 43.7207 58.9426 43.7207 60.1444C43.7207 61.3463 44.695 62.3205 45.8968 62.3205Z" fill="#3F3D56"/>
<path d="M62.9769 62.3205C64.1788 62.3205 65.1531 61.3463 65.1531 60.1444C65.1531 58.9426 64.1788 57.9683 62.9769 57.9683C61.7751 57.9683 60.8008 58.9426 60.8008 60.1444C60.8008 61.3463 61.7751 62.3205 62.9769 62.3205Z" fill="#3F3D56"/>
<path d="M41.7287 73.0556C43.1263 73.0556 44.2592 71.9226 44.2592 70.5251C44.2592 69.1276 43.1263 67.9946 41.7287 67.9946C40.3312 67.9946 39.1982 69.1276 39.1982 70.5251C39.1982 71.9226 40.3312 73.0556 41.7287 73.0556Z" fill="#FF6584"/>
<path d="M70.8293 73.0556C72.2268 73.0556 73.3598 71.9226 73.3598 70.5251C73.3598 69.1276 72.2268 67.9946 70.8293 67.9946C69.4318 67.9946 68.2988 69.1276 68.2988 70.5251C68.2988 71.9226 69.4318 73.0556 70.8293 73.0556Z" fill="#FF6584"/>
<path d="M56.2797 65.4639L54.3818 73.6879L57.5449 70.5249L56.2797 65.4639Z" fill="#FF6584"/>
<path d="M66.0313 97.0951L63.8766 95.2867L63.9269 97.0951H63.2576L63.2042 95.1829L60.295 97.0951H59.0771L63.1824 94.3967L63.0234 88.7307L62.9046 84.4515L63.5722 84.4331L63.6926 88.7307L63.8515 94.3917L67.0718 97.0951H66.0313Z" fill="#3F3D56"/>
<path d="M55.9085 97.0951L53.7539 95.2867L53.8041 97.0951H53.1367L53.0831 95.1829L50.1739 97.0951H48.9561L53.0597 94.3967L52.9008 88.7307L52.782 84.4515L53.4511 84.4331L53.5716 88.7307L53.7288 94.3917L56.9491 97.0951H55.9085Z" fill="#3F3D56"/>
<path d="M57.5447 42.0573C56.9546 42.0573 56.4339 42.5158 56.0858 43.2199C55.779 42.1611 55.1344 41.4247 54.3816 41.4247C54.3305 41.4298 54.2797 41.4383 54.2297 41.4502C53.9404 40.3197 53.2678 39.5269 52.4838 39.5269C51.4356 39.5269 50.5859 40.943 50.5859 42.6899C50.5859 44.4369 51.4356 45.853 52.4838 45.853C52.535 45.848 52.5857 45.8394 52.6357 45.8275C52.9251 46.958 53.5976 47.7509 54.3816 47.7509C54.9718 47.7509 55.4925 47.2924 55.8406 46.5883C56.1474 47.6471 56.792 48.3835 57.5447 48.3835C58.5929 48.3835 59.4426 46.9673 59.4426 45.2204C59.4426 43.4735 58.5929 42.0573 57.5447 42.0573Z" fill="#3F3D56"/>
<path d="M37.0391 73.2988C36.2083 73.2988 35.3857 73.1352 34.6181 72.8173C33.8506 72.4994 33.1532 72.0334 32.5658 71.4459C31.9783 70.8585 31.5124 70.1611 31.1944 69.3936C30.8765 68.6261 30.7129 67.8034 30.7129 66.9727V63.8095C30.7129 62.1317 31.3794 60.5227 32.5658 59.3363C33.7522 58.1499 35.3613 57.4834 37.0391 57.4834V73.2988Z" fill="#FDA50F"/>
<path d="M77.417 57.4834C78.2478 57.4834 79.0704 57.647 79.8379 57.9649C80.6054 58.2829 81.3028 58.7488 81.8903 59.3363C82.4777 59.9237 82.9437 60.6211 83.2616 61.3886C83.5795 62.1562 83.7432 62.9788 83.7432 63.8096V66.9727C83.7432 67.8034 83.5795 68.6261 83.2616 69.3936C82.9437 70.1611 82.4777 70.8585 81.8903 71.446C81.3028 72.0334 80.6054 72.4994 79.8379 72.8173C79.0704 73.1352 78.2478 73.2988 77.417 73.2988L77.417 57.4834Z" fill="#FDA50F"/>
<path d="M80.7317 64.3063H79.728C79.728 51.5768 69.3718 41.2205 56.6422 41.2205C43.9127 41.2205 33.5565 51.5768 33.5565 64.3063H32.5527C32.5527 51.0233 43.3592 40.2168 56.6422 40.2168C69.9253 40.2168 80.7317 51.0233 80.7317 64.3063Z" fill="#FDA50F"/>
<path d="M22.1977 44.9609L22.1979 44.9605L21.7263 44.7642L19.7367 43.9231L19.0235 43.6216L18.9688 43.7598L18.0107 46.1787L20.7069 47.3198L20.7211 47.3326L20.5394 47.761C20.5145 47.8002 20.4933 47.8416 20.476 47.8847C20.3487 48.206 20.5891 48.5257 20.8163 48.6157C21.0436 48.7057 21.331 48.5181 21.4582 48.1968C21.5838 47.8798 21.4611 47.4771 21.2396 47.3798L21.2398 47.3794L20.7683 47.1831L19.1552 46.556L20.0769 44.2288L19.9403 44.1747L19.0182 46.5027L18.8187 46.4252L19.7444 44.088L19.7688 44.0984L21.6649 44.9009L21.6791 44.9137L21.4974 45.3421C21.4725 45.3813 21.4513 45.4227 21.434 45.4658C21.3067 45.7871 21.5471 46.1068 21.7743 46.1968C22.0016 46.2868 22.289 46.0992 22.4163 45.7779C22.5418 45.4609 22.4191 45.0582 22.1977 44.9609Z" fill="#3F3D56"/>
<path d="M31.5294 50.8994C30.5507 50.3398 30.7465 49.1118 30.7465 49.1118C30.7219 48.314 30.0628 48.4269 30.0628 48.4269L29.8229 48.4817C29.7115 48.43 29.5888 48.4073 29.4662 48.4157L29.1014 48.4771C29.9322 48.6724 29.864 49.3674 29.864 49.3674L29.9804 50.1802L27.8032 49.3019L28.0532 48.7125C28.0877 48.658 28.1172 48.6006 28.1412 48.5407C28.318 48.0944 27.9841 47.6504 27.6685 47.5255C27.3529 47.4004 26.9538 47.6609 26.777 48.1073C26.6026 48.5475 26.773 49.1068 27.0806 49.2419L27.0803 49.2425L27.7353 49.5152L27.7401 49.4998L31.5294 50.8994ZM30.4238 49.4714L30.4936 50.2493C30.2471 49.9034 30.1313 49.4813 30.1668 49.058C30.161 48.9074 30.1103 48.7621 30.021 48.6407C30.1582 48.7285 30.2684 48.8526 30.3395 48.9992C30.4106 49.1458 30.4398 49.3092 30.4238 49.4714Z" fill="#3F3D56"/>
<path d="M14.9212 39.3949L14.9214 39.3944L14.2665 39.1216L11.5292 38.0576L12.2201 37.4429C12.3552 37.2627 12.5548 37.1418 12.7771 37.1054C12.9994 37.069 13.2271 37.1199 13.4127 37.2475L13.1983 36.9289C13.1983 36.9289 12.7952 36.3953 12.2311 36.9599C12.2311 36.9599 11.533 37.989 10.4365 37.7267L14.1812 39.3116L14.2009 39.3294L13.9486 39.9244C13.914 39.9788 13.8845 40.0363 13.8605 40.0961C13.6837 40.5425 14.0176 40.9864 14.3332 41.1114C14.6488 41.2364 15.048 40.9759 15.2248 40.5296C15.3991 40.0894 15.2287 39.5301 14.9212 39.3949Z" fill="#3F3D56"/>
<path d="M24.9431 35.9121L24.6907 36.5071C24.6562 36.5615 24.6267 36.619 24.6027 36.6788C24.4259 37.1252 24.7598 37.5691 25.0754 37.6941C25.391 37.8191 25.7902 37.5586 25.9669 37.1123C26.1413 36.6721 25.9709 36.1128 25.6633 35.9776L25.6636 35.9771L25.0087 35.7044L22.7682 34.8334L24.0483 31.6011L23.8586 31.526L22.578 34.7595L22.3009 34.6518L23.5865 31.4057L23.6204 31.42L26.254 32.5347L26.2737 32.5525L26.0213 33.1475C25.9868 33.2019 25.9573 33.2594 25.9333 33.3192C25.7565 33.7655 26.0904 34.2095 26.406 34.3345C26.7216 34.4595 27.1208 34.199 27.2975 33.7527C27.4719 33.3124 27.3015 32.7531 26.9939 32.618L26.9942 32.6175L26.3393 32.3447L23.6628 31.2133L23.5758 31.1765L22.5853 30.7578L21.1787 34.3094L24.9234 35.8943L24.9431 35.9121Z" fill="#3F3D56"/>
<path d="M13.0755 17.7234L13.0759 17.7225L11.9485 17.253L7.23646 15.4213L8.42573 14.3632C8.42573 14.3632 9.21681 13.2655 10.4787 14.0269L10.1097 13.4784C10.1097 13.4784 9.41586 12.5598 8.44467 13.5317C8.44467 13.5317 7.243 15.3032 5.35547 14.8516L11.8018 17.58L11.8356 17.6107L11.4012 18.6349C11.3417 18.7286 11.291 18.8275 11.2496 18.9305C10.9453 19.6988 11.5201 20.4631 12.0634 20.6783C12.6067 20.8935 13.2938 20.445 13.5981 19.6767C13.8983 18.9189 13.6049 17.9561 13.0755 17.7234Z" fill="#3F3D56"/>
<path d="M16.5358 33.1104C14.1957 31.7724 14.664 28.8364 14.664 28.8364C14.6051 26.9291 13.0293 27.1991 13.0293 27.1991L12.4557 27.3299C12.1893 27.2063 11.8959 27.152 11.6029 27.1722L10.7305 27.319C12.7171 27.7858 12.5538 29.4477 12.5538 29.4477L12.8322 31.3908L7.62674 29.2909L8.22441 27.8817C8.30701 27.7515 8.37748 27.6141 8.43493 27.4711C8.85758 26.4039 8.05934 25.3425 7.30472 25.0436C6.55011 24.7447 5.59575 25.3676 5.1731 26.4347C4.75621 27.4873 5.16363 28.8245 5.89898 29.1476L5.89836 29.1489L7.46427 29.801L7.47593 29.764L16.5358 33.1104ZM13.8924 29.6962L14.0599 31.5625C13.0771 30.2578 13.278 28.7078 13.278 28.7078C13.2641 28.3478 13.1427 28.0003 12.9293 27.71C14.0583 28.3856 13.8924 29.6962 13.8924 29.6962Z" fill="#3F3D56"/>
</g>
<defs>
<clipPath id="clip0_1199_808">
<rect width="114.873" height="100" fill="white"/>
</clipPath>
</defs>
</svg>
