<svg width="128" height="100" viewBox="0 0 128 100" fill="none" xmlns="http://www.w3.org/2000/svg">
<g id="undraw_check_boxes_re_v40f (1) 1" clip-path="url(#clip0_1199_960)">
<path id="Vector" d="M78.4967 88.8174L75.106 91.9389L77.8007 87.4174C75.6777 83.5675 72.2055 80.2402 72.2055 80.2402C72.2055 80.2402 65.002 87.1418 65.002 92.5669C65.002 97.992 68.2271 99.8862 72.2055 99.8862C76.1839 99.8862 79.409 97.992 79.409 92.5669C79.409 91.3594 79.0516 90.0788 78.4967 88.8174Z" fill="#F2F2F2"/>
<path id="Vector_2" d="M74.2337 92.108V92.3754C74.2178 95.4837 73.6936 97.9089 72.665 99.6166C72.6504 99.6418 72.6345 99.6656 72.6199 99.6908L72.5048 99.6206L72.3949 99.5518C73.536 97.7077 73.9398 95.1011 73.9543 92.3899C73.9557 92.3025 73.957 92.2139 73.9557 92.1252C73.9517 90.9774 73.8815 89.8164 73.769 88.6885C73.7611 88.6012 73.7518 88.5125 73.7425 88.4238C73.5863 86.9358 73.3613 85.514 73.1309 84.2789C73.1151 84.1915 73.0978 84.1042 73.0806 84.0181C72.6822 81.9291 72.2757 80.416 72.1831 80.0811C72.1725 80.0401 72.1659 80.0176 72.1646 80.0123L72.2903 79.9765L72.2916 79.9752L72.4187 79.9395C72.42 79.9448 72.4425 80.0202 72.4796 80.1605C72.6213 80.6848 72.9893 82.1079 73.3507 83.985C73.3666 84.0698 73.3838 84.1571 73.3997 84.2445C73.5876 85.2466 73.7717 86.3666 73.9173 87.5421C73.9543 87.8373 73.9874 88.1286 74.0166 88.4158C74.0271 88.5045 74.0364 88.5932 74.0444 88.6806C74.1662 89.8998 74.2293 91.0423 74.2337 92.108Z" fill="white"/>
<path id="Vector_3" d="M73.3508 83.985C73.2621 83.9969 73.1721 84.0088 73.0807 84.0181C72.8327 84.0436 72.5835 84.0564 72.3341 84.0565C71.2714 84.0579 70.2218 83.8208 69.2629 83.3628C69.2072 83.433 69.1516 83.5031 69.0947 83.5746C70.1035 84.067 71.2115 84.3224 72.3341 84.3212C72.6003 84.3212 72.8663 84.307 73.131 84.2789C73.2211 84.2696 73.3111 84.2577 73.3998 84.2445C74.1319 84.1394 74.8439 83.9238 75.5113 83.605C75.4543 83.5322 75.3987 83.4608 75.3445 83.3906C74.7128 83.6858 74.041 83.8861 73.3508 83.985Z" fill="white"/>
<path id="Vector_4" d="M74.0168 88.416C73.9255 88.4213 73.8341 88.4239 73.7428 88.4239C73.715 88.4253 73.6859 88.4253 73.6581 88.4253C72.5065 88.4253 71.372 88.1468 70.3513 87.6137C69.3306 87.0805 68.454 86.3084 67.7962 85.3633C67.7433 85.4414 67.6903 85.5195 67.6387 85.5989C68.3243 86.5553 69.228 87.3345 70.2747 87.872C71.3215 88.4096 72.4813 88.69 73.6581 88.69C73.6951 88.69 73.7322 88.69 73.7693 88.6887C73.8619 88.6874 73.9533 88.6847 74.0446 88.6808C75.4581 88.6083 76.8207 88.1304 77.9697 87.304C77.9274 87.2259 77.885 87.1478 77.8413 87.0697C76.7246 87.881 75.3955 88.3489 74.0168 88.416Z" fill="white"/>
<path id="Vector_5" d="M74.2339 92.108C74.1413 92.1159 74.0486 92.1212 73.9559 92.1252C73.8567 92.1291 73.7574 92.1318 73.6581 92.1318C72.1107 92.13 70.6055 91.6271 69.3679 90.6982C68.1303 89.7694 67.2268 88.4647 66.7928 86.9795C66.7332 87.0867 66.6736 87.1926 66.6167 87.2999C67.1058 88.7817 68.0494 90.0717 69.3134 90.9866C70.5774 91.9015 72.0977 92.3949 73.6581 92.3966C73.7574 92.3966 73.8566 92.3952 73.9546 92.3899C74.0486 92.3873 74.1413 92.382 74.2339 92.3754C76.1057 92.2289 77.8518 91.3767 79.1188 89.9912C79.091 89.8932 79.0592 89.7966 79.0275 89.6986C77.8037 91.0945 76.0843 91.9587 74.2339 92.108Z" fill="white"/>
<path id="Vector_6" d="M17.8527 35.2874C27.4501 35.2874 35.2303 27.5072 35.2303 17.9098C35.2303 8.31244 27.4501 0.532227 17.8527 0.532227C8.25531 0.532227 0.475098 8.31244 0.475098 17.9098C0.475098 27.5072 8.25531 35.2874 17.8527 35.2874Z" fill="#E4E4E4"/>
<path id="Vector_7" d="M17.8529 32.3909C25.8507 32.3909 32.3342 25.9074 32.3342 17.9096C32.3342 9.91174 25.8507 3.42822 17.8529 3.42822C9.8551 3.42822 3.37158 9.91174 3.37158 17.9096C3.37158 25.9074 9.8551 32.3909 17.8529 32.3909Z" fill="#367B48"/>
<path id="Vector_8" d="M63.9997 35.2874C73.5971 35.2874 81.3773 27.5072 81.3773 17.9098C81.3773 8.31244 73.5971 0.532227 63.9997 0.532227C54.4023 0.532227 46.6221 8.31244 46.6221 17.9098C46.6221 27.5072 54.4023 35.2874 63.9997 35.2874Z" fill="#E4E4E4"/>
<path id="Vector_9" d="M63.9999 32.3909C71.9977 32.3909 78.4812 25.9074 78.4812 17.9096C78.4812 9.91174 71.9977 3.42822 63.9999 3.42822C56.0021 3.42822 49.5186 9.91174 49.5186 17.9096C49.5186 25.9074 56.0021 32.3909 63.9999 32.3909Z" fill="white"/>
<path id="Vector_10" d="M110.147 35.2874C119.745 35.2874 127.525 27.5072 127.525 17.9098C127.525 8.31244 119.745 0.532227 110.147 0.532227C100.55 0.532227 92.7695 8.31244 92.7695 17.9098C92.7695 27.5072 100.55 35.2874 110.147 35.2874Z" fill="#E4E4E4"/>
<path id="Vector_11" d="M110.147 32.3909C118.145 32.3909 124.628 25.9074 124.628 17.9096C124.628 9.91174 118.145 3.42822 110.147 3.42822C102.149 3.42822 95.6655 9.91174 95.6655 17.9096C95.6655 25.9074 102.149 32.3909 110.147 32.3909Z" fill="white"/>
<path id="Vector_12" d="M16.622 23.1468C16.5961 23.1468 16.5702 23.1461 16.5442 23.1449C16.3152 23.1338 16.0913 23.0734 15.8878 22.9677C15.6844 22.862 15.5062 22.7135 15.3655 22.5324L13.1441 19.6764C12.8854 19.343 12.7696 18.9207 12.8219 18.5021C12.8742 18.0834 13.0904 17.7026 13.4232 17.4432L13.5031 17.381C13.8364 17.1223 14.2588 17.0064 14.6774 17.0588C15.0961 17.1111 15.477 17.3273 15.7364 17.66C15.8616 17.821 16.0201 17.953 16.2011 18.0471C16.382 18.1411 16.5812 18.1949 16.7849 18.2049C16.9886 18.2148 17.192 18.1806 17.3812 18.1046C17.5705 18.0286 17.7411 17.9126 17.8813 17.7646L22.3918 13.0033C22.5356 12.8516 22.7078 12.7296 22.8987 12.6445C23.0895 12.5593 23.2953 12.5126 23.5042 12.5069C23.7131 12.5013 23.9211 12.5369 24.1163 12.6116C24.3115 12.6863 24.49 12.7988 24.6417 12.9426L24.7154 13.0123C25.0217 13.3026 25.2003 13.7027 25.2116 14.1246C25.223 14.5465 25.0664 14.9556 24.7761 15.262L17.777 22.6498C17.6284 22.8068 17.4493 22.9319 17.2507 23.0173C17.0521 23.1028 16.8382 23.1468 16.622 23.1468Z" fill="white"/>
<path id="Vector_13" d="M56.373 14.3913H44.9351V4.44383C44.9468 3.82791 45.2023 3.24178 45.6456 2.81393C46.0888 2.38609 46.6836 2.15145 47.2996 2.16144H51.1016C54.0083 2.16144 56.373 4.44408 56.373 7.24982V14.3913Z" fill="#2F2E41"/>
<path id="Vector_14" d="M60.6077 97.6308L58.4364 97.6306L57.4033 89.2554L60.6081 89.2555L60.6077 97.6308Z" fill="#FFB6B6"/>
<path id="Vector_15" d="M61.1611 99.7358L54.1597 99.7355V99.647C54.1597 98.9243 54.4468 98.2311 54.9579 97.7201C55.469 97.209 56.1621 96.9219 56.8848 96.9219L61.1612 96.922L61.1611 99.7358Z" fill="#2F2E41"/>
<path id="Vector_16" d="M40.5936 97.6308L38.4221 97.6306L37.3892 89.2554L40.5939 89.2555L40.5936 97.6308Z" fill="#FFB6B6"/>
<path id="Vector_17" d="M41.1474 99.7358L34.146 99.7355V99.647C34.146 98.9243 34.4332 98.2311 34.9442 97.7201C35.4553 97.209 36.1484 96.9219 36.8712 96.9219L41.1476 96.922L41.1474 99.7358Z" fill="#2F2E41"/>
<path id="Vector_18" d="M43.2157 30.3457L41.7988 39.3785L55.2594 39.5556L53.4883 30.8771L43.2157 30.3457Z" fill="#FFB6B6"/>
<path id="Vector_19" d="M42.1891 37.1729L37.9019 48.5883L37.3706 95.8958H41.0014L49.68 57.8868L57.6501 94.9036H61.1924L58.7128 53.2818C58.7128 53.2818 59.444 44.9279 55.7019 39.9983L54.791 37.3667L42.1891 37.1729Z" fill="#2F2E41"/>
<path id="Vector_20" d="M60.5787 46.0717C60.2039 45.9695 59.8561 45.7865 59.5597 45.5354C59.2633 45.2842 59.0256 44.9712 58.8633 44.6183C58.701 44.2654 58.618 43.8812 58.6203 43.4927C58.6225 43.1042 58.7099 42.721 58.8763 42.37L53.1499 23.7007L57.3619 22.8657L62.5992 41.1656C63.1704 41.4842 63.6048 42.0012 63.8203 42.6187C64.0357 43.2362 64.0171 43.9113 63.7681 44.5161C63.519 45.1208 63.0568 45.6132 62.469 45.8999C61.8812 46.1866 61.2086 46.2477 60.5787 46.0717Z" fill="#FFB6B6"/>
<path id="Vector_21" d="M53.0004 35.334L43.7216 35.1549C43.4564 35.1492 43.2004 35.0568 42.9927 34.8918C42.785 34.7267 42.6372 34.4982 42.5718 34.2411C42.0744 32.2716 40.98 27.1391 41.5605 22.027C41.6751 21.0367 41.9871 20.0794 42.4781 19.2118C42.9691 18.3442 43.6292 17.5839 44.4192 16.9759C45.2092 16.3678 46.1132 15.9244 47.0776 15.6719C48.042 15.4193 49.0473 15.3628 50.0339 15.5056C51.0747 15.6546 52.0722 16.022 52.9611 16.5836C53.8499 17.1453 54.6099 17.8885 55.1913 18.7645C55.7727 19.6406 56.1622 20.6297 56.3345 21.6669C56.5067 22.7041 56.4577 23.766 56.1907 24.7829C55.0227 29.2184 54.3629 32.3916 54.2298 34.2146C54.2101 34.4781 54.1047 34.728 53.9296 34.926C53.7545 35.124 53.5194 35.2593 53.2603 35.3112C53.1832 35.3265 53.1048 35.3342 53.0262 35.3343C53.0176 35.3343 53.009 35.3342 53.0004 35.334Z" fill="#E4E4E4"/>
<path id="Vector_22" d="M24.8156 18.9349C24.8714 19.0599 24.9172 19.1892 24.9526 19.3214L36.567 23.268L38.8112 21.3074L42.2127 24.3077L38.5771 28.1646C38.2834 28.4762 37.8965 28.6841 37.4746 28.7571C37.0526 28.8301 36.6184 28.7643 36.2371 28.5695L23.809 22.2212C23.3595 22.4969 22.8368 22.6292 22.3103 22.6006C21.7839 22.5719 21.2786 22.3837 20.8617 22.0609C20.4448 21.7381 20.1361 21.296 19.9766 20.7934C19.8171 20.2909 19.8144 19.7517 19.9688 19.2476C20.1233 18.7434 20.4275 18.2983 20.8411 17.9713C21.2547 17.6443 21.7581 17.4509 22.2843 17.417C22.8104 17.3831 23.3344 17.5101 23.7866 17.7813C24.2388 18.0524 24.5977 18.4548 24.8156 18.9349Z" fill="#FFB6B6"/>
<path id="Vector_23" d="M36.5908 22.6387C36.5917 22.4788 36.6271 22.3209 36.6946 22.1759C36.7621 22.0309 36.8601 21.9021 36.9819 21.7984L41.2345 18.176C41.7727 17.5592 42.5335 17.1811 43.35 17.1246C44.1666 17.068 44.9722 17.3376 45.5903 17.8743C46.2083 18.4109 46.5883 19.1707 46.6469 19.9871C46.7055 20.8036 46.4378 21.6099 45.9027 22.2292L42.8743 26.9451C42.7879 27.0796 42.6735 27.194 42.5388 27.2804C42.4042 27.3668 42.2525 27.4231 42.0942 27.4456C41.9358 27.468 41.7745 27.4561 41.6211 27.4106C41.4678 27.3651 41.3261 27.2871 41.2056 27.1819L36.9717 23.4839C36.8511 23.3787 36.7547 23.2487 36.689 23.1029C36.6233 22.957 36.5898 22.7987 36.5908 22.6387Z" fill="#E4E4E4"/>
<path id="Vector_24" d="M52.8931 28.4296C52.7515 28.3552 52.6277 28.2511 52.53 28.1244C52.4323 27.9977 52.3632 27.8515 52.3272 27.6956L51.0699 22.2526C50.7704 21.4909 50.7852 20.6416 51.111 19.8908C51.4368 19.1401 52.0471 18.5491 52.8079 18.2477C53.5688 17.9462 54.4181 17.9587 55.1698 18.2826C55.9214 18.6064 56.5139 19.2151 56.8174 19.9751L59.609 24.8349C59.6887 24.9736 59.7375 25.1278 59.7522 25.2871C59.7669 25.4464 59.7471 25.607 59.6941 25.7579C59.6411 25.9088 59.5562 26.0465 59.4452 26.1617C59.3342 26.2768 59.1997 26.3667 59.0508 26.4252L53.8186 28.4808C53.6697 28.5393 53.51 28.5651 53.3502 28.5563C53.1905 28.5474 53.0346 28.5043 52.8931 28.4296Z" fill="#E4E4E4"/>
<path id="Vector_25" d="M57.3944 3.1332C57.824 2.12744 57.0852 0.847753 55.7442 0.274923C54.4032 -0.297907 52.9678 0.0530418 52.5382 1.0588C52.1085 2.06455 52.8474 3.34425 54.1884 3.91708C55.5294 4.48991 56.9647 4.13896 57.3944 3.1332Z" fill="#2F2E41"/>
<path id="Vector_26" d="M53.2343 10.6093C54.6689 7.98503 53.7044 4.69464 51.0801 3.26006C48.4558 1.82548 45.1654 2.78995 43.7308 5.41427C42.2963 8.03858 43.2607 11.329 45.885 12.7636C48.5094 14.1981 51.7998 13.2337 53.2343 10.6093Z" fill="#FFB6B6"/>
<path id="Vector_27" d="M51.4533 1.80923H45.259C44.8049 1.80336 44.3654 1.96938 44.0285 2.27401C43.6917 2.57865 43.4825 2.99936 43.4429 3.45178C43.4268 3.6922 43.4604 3.93335 43.5414 4.16029C43.6223 4.38723 43.7491 4.59512 43.9137 4.77107C44.0783 4.94703 44.2773 5.08731 44.4984 5.18321C44.7194 5.27911 44.9578 5.3286 45.1987 5.32861C45.6654 5.32861 46.113 5.51401 46.443 5.84401C46.773 6.17402 46.9584 6.6216 46.9584 7.0883V14.303H56.6367V6.99269C56.6367 6.31199 56.5026 5.63795 56.2422 5.00907C55.9817 4.38018 55.5999 3.80876 55.1185 3.32743C54.6372 2.8461 54.0658 2.46429 53.4369 2.2038C52.808 1.94331 52.134 1.80923 51.4533 1.80923Z" fill="#2F2E41"/>
<path id="Vector_28" d="M81.9882 99.9999H14.944C14.8974 99.9999 14.8526 99.9813 14.8196 99.9483C14.7866 99.9153 14.7681 99.8706 14.7681 99.8239C14.7681 99.7772 14.7866 99.7325 14.8196 99.6995C14.8526 99.6665 14.8974 99.6479 14.944 99.6479H81.9882C82.0349 99.6479 82.0796 99.6665 82.1126 99.6995C82.1456 99.7325 82.1642 99.7772 82.1642 99.8239C82.1642 99.8706 82.1456 99.9153 82.1126 99.9483C82.0796 99.9813 82.0349 99.9999 81.9882 99.9999Z" fill="#CACACA"/>
</g>
<defs>
<clipPath id="clip0_1199_960">
<rect width="127.05" height="100" fill="white" transform="translate(0.475098)"/>
</clipPath>
</defs>
</svg>
