<svg width="150" height="100" viewBox="0 0 150 100" fill="none" xmlns="http://www.w3.org/2000/svg">
<g id="undraw_exams_re_4ios (1) 1" clip-path="url(#clip0_1199_889)">
<g id="Group">
<path id="Vector" d="M26.8361 77.1838C26.6251 76.8278 25.7119 77.2089 25.5441 76.8859C25.3768 76.5641 26.2252 76.0737 26.7099 74.9535C26.7973 74.7515 27.3481 73.4784 26.9404 73.0856C26.1674 72.341 22.6305 75.4137 21.3927 74.4082C21.121 74.1875 20.9313 73.747 20.1091 73.0317C19.7821 72.7472 19.5843 72.6187 19.3929 72.6665C19.1213 72.7343 19.0998 73.0978 18.8086 73.8125C18.3718 74.8843 18.1135 74.8196 17.859 75.6747C17.6701 76.3095 17.7133 76.6786 17.491 76.7505C17.1764 76.8523 16.8869 76.1789 16.4882 76.2392C16.0814 76.3008 15.8355 77.0847 15.7578 77.6717C15.612 78.7732 16.0166 79.5001 16.2408 80.2644C16.4844 81.0949 16.629 82.3581 16.0663 84.1463L10.4971 99.8377C11.7266 96.6179 15.2867 87.7914 16.7826 84.5115C17.2144 83.5646 17.6913 82.6042 18.6703 82.2251C19.6129 81.8602 20.9075 82.0781 22.5579 81.6805C22.7506 81.6341 23.2855 81.498 23.3528 81.1834C23.4085 80.9233 23.0939 80.7781 23.1422 80.5345C23.2071 80.2078 23.8257 80.2037 24.586 79.8268C25.1222 79.5609 25.4562 79.2448 25.7434 78.9729C25.83 78.891 27.1171 77.6575 26.8361 77.1838Z" fill="#F2F2F2"/>
<path id="Vector_2" d="M4.9246 85.4443C4.68901 85.4452 4.61259 86.0034 4.40562 85.9926C4.19939 85.9818 4.2035 85.4239 3.79355 84.8628C3.71962 84.7616 3.25372 84.1239 2.94326 84.2107C2.3548 84.3753 2.84239 86.9978 1.99172 87.3152C1.80504 87.3848 1.53406 87.3509 0.9458 87.548C0.711776 87.6264 0.591661 87.6864 0.559891 87.7942C0.514817 87.947 0.687003 88.0625 0.95375 88.4116C1.35379 88.9352 1.24749 89.0433 1.59377 89.415C1.85083 89.6909 2.04443 89.7762 2.01558 89.906C1.97476 90.0898 1.56074 90.0376 1.47531 90.2506C1.38814 90.468 1.70196 90.815 1.96763 91.0224C2.4662 91.4118 2.93966 91.423 3.37947 91.5335C3.85743 91.6535 4.51911 91.947 5.2344 92.7391L11.329 100C10.1034 98.4676 6.79851 94.1736 5.62031 92.493C5.28018 92.0078 4.94639 91.4967 5.04285 90.9068C5.13571 90.3388 5.61617 89.7663 5.89722 88.8416C5.93005 88.7336 6.01758 88.4318 5.8826 88.308C5.77101 88.2056 5.60897 88.3182 5.50336 88.2241C5.3617 88.098 5.53824 87.7932 5.57258 87.3113C5.5968 86.9715 5.538 86.7163 5.48744 86.4969C5.4722 86.4308 5.2382 85.4431 4.9246 85.4443Z" fill="#F2F2F2"/>
<path id="Vector_3" d="M9.62436 86.4994L9.48242 85.2324L9.54727 85.1363C9.84736 84.6922 10.0003 84.2584 10.0021 83.8466C10.0024 83.7812 9.99939 83.7157 9.99633 83.649C9.98409 83.3847 9.9688 83.0562 10.1401 82.6732C10.2362 82.4597 10.506 81.9654 10.9116 82.0265C11.0208 82.0418 11.1034 82.092 11.1661 82.1507C11.1753 82.1361 11.1848 82.1214 11.1949 82.1055C11.3212 81.9127 11.4212 81.8302 11.5176 81.7506C11.5916 81.6894 11.6681 81.6264 11.788 81.4771C11.8406 81.4117 11.8816 81.3542 11.9162 81.3058C12.0211 81.1596 12.1581 80.9853 12.3998 80.9883C12.658 81.0006 12.7932 81.2141 12.8828 81.3554C13.0428 81.6075 13.1153 81.7892 13.1633 81.9097C13.1808 81.9537 13.2006 82.0033 13.2107 82.0186C13.2939 82.141 13.9703 82.0265 14.2251 81.9849C14.7974 81.8895 15.2927 81.8069 15.4967 82.1679C15.6429 82.426 15.5344 82.7674 15.1642 83.2098C15.0489 83.3474 14.9262 83.452 14.8173 83.534C14.9076 83.5879 14.9883 83.6705 15.021 83.8002C15.0981 84.1073 14.8341 84.415 14.2367 84.716C14.0884 84.7913 13.8886 84.8916 13.6087 84.9399C13.4769 84.9626 13.3582 84.9681 13.2566 84.9711C13.2545 85.0299 13.2407 85.0935 13.2049 85.159C13.1 85.3517 12.8816 85.4435 12.5524 85.4214C12.1902 85.4025 11.892 85.3333 11.6289 85.2728C11.3992 85.2201 11.2013 85.1755 11.0459 85.1859C10.7577 85.2091 10.5356 85.4398 10.275 85.739L9.62436 86.4994Z" fill="#F2F2F2"/>
<path id="Vector_4" d="M10.2832 78.9554L9.09362 79.414L8.98426 79.3757C8.4785 79.1981 8.02013 79.1601 7.62138 79.2628C7.55798 79.2791 7.49544 79.2987 7.43171 79.3185C7.17916 79.3974 6.86524 79.4955 6.45134 79.427C6.22043 79.3882 5.67383 79.2526 5.63013 78.8448C5.61722 78.7353 5.6448 78.6426 5.68571 78.5671C5.66917 78.5619 5.65256 78.5565 5.63462 78.5508C5.41616 78.4774 5.3109 78.4016 5.20952 78.3286C5.13156 78.2725 5.05121 78.2145 4.8764 78.1364C4.79973 78.1021 4.73371 78.077 4.67819 78.0558C4.51013 77.9914 4.30671 77.9031 4.24838 77.6686C4.19473 77.4157 4.36697 77.2308 4.48094 77.1083C4.68417 76.8896 4.84154 76.7733 4.94595 76.6963C4.98413 76.6683 5.02702 76.6365 5.03926 76.6228C5.13651 76.5113 4.85429 75.8861 4.74942 75.6502C4.51193 75.1208 4.30642 74.6627 4.60382 74.3737C4.81647 74.1668 5.17423 74.1853 5.69599 74.4311C5.8584 74.5077 5.9907 74.5999 6.09763 74.6844C6.12682 74.5835 6.18622 74.4844 6.30339 74.4198C6.58091 74.2674 6.94554 74.4447 7.38825 74.9462C7.49866 75.0706 7.64639 75.2384 7.76414 75.4969C7.81947 75.6187 7.8549 75.7321 7.88363 75.8295C7.94099 75.8167 8.00602 75.8139 8.07842 75.8319C8.29145 75.8845 8.43562 76.0725 8.4978 76.3965C8.57132 76.7516 8.5801 77.0577 8.58825 77.3275C8.59562 77.5631 8.60262 77.7658 8.6521 77.9135C8.74768 78.1863 9.02712 78.3427 9.38262 78.5189L10.2832 78.9554Z" fill="#F2F2F2"/>
<path id="Vector_5" d="M9.62436 75.2226L9.48242 73.9555L9.54727 73.8595C9.84736 73.4153 10.0003 72.9815 10.0021 72.5698C10.0024 72.5043 9.99939 72.4389 9.99633 72.3722C9.98409 72.1079 9.9688 71.7794 10.1401 71.3964C10.2362 71.1829 10.506 70.6885 10.9116 70.7497C11.0208 70.765 11.1034 70.8152 11.1661 70.8739C11.1753 70.8592 11.1848 70.8445 11.1949 70.8286C11.3212 70.6359 11.4212 70.5533 11.5176 70.4738C11.5916 70.4126 11.6681 70.3496 11.788 70.2003C11.8406 70.1348 11.8816 70.0773 11.9162 70.029C12.0211 69.8828 12.1581 69.7084 12.3998 69.7115C12.658 69.7237 12.7932 69.9372 12.8828 70.0785C13.0428 70.3306 13.1153 70.5123 13.1633 70.6328C13.1808 70.6769 13.2006 70.7264 13.2107 70.7417C13.2939 70.8641 13.9703 70.7497 14.2251 70.7081C14.7974 70.6126 15.2927 70.5301 15.4967 70.891C15.6429 71.1492 15.5344 71.4906 15.1642 71.9329C15.0489 72.0706 14.9262 72.1752 14.8173 72.2572C14.9076 72.311 14.9883 72.3936 15.021 72.5233C15.0981 72.8304 14.8341 73.1382 14.2367 73.4392C14.0884 73.5144 13.8886 73.6148 13.6087 73.6631C13.4769 73.6857 13.3582 73.6912 13.2566 73.6943C13.2545 73.753 13.2407 73.8167 13.2049 73.8821C13.1 74.0748 12.8816 74.1666 12.5524 74.1446C12.1902 74.1256 11.892 74.0565 11.6289 73.9959C11.3992 73.9433 11.2013 73.8986 11.0459 73.909C10.7577 73.9323 10.5356 74.1629 10.275 74.4621L9.62436 75.2226Z" fill="#F2F2F2"/>
<path id="Vector_6" d="M10.9209 99.8171L10.6554 99.6507L10.3458 99.6862C10.3409 99.6574 10.3241 99.5913 10.2987 99.488C10.1601 98.9214 9.73769 97.1974 9.38529 94.4822C9.13934 92.5869 9.00016 90.6383 8.97141 88.6897C8.94265 86.7381 9.03504 85.2605 9.10906 84.0731C9.16504 83.1774 9.23296 82.3245 9.29964 81.4937C9.47706 79.2741 9.64439 77.1775 9.51988 74.8563C9.49235 74.3381 9.43453 73.2595 8.80438 72.1118C8.43883 71.4461 7.93532 70.8551 7.30762 70.3559L7.69794 69.8652C8.3908 70.4171 8.94785 71.0717 9.35378 71.8108C10.0525 73.0833 10.1155 74.2586 10.1458 74.8233C10.2724 77.1854 10.1032 79.3023 9.92398 81.5433C9.8579 82.371 9.78999 83.2202 9.73432 84.1122C9.6609 85.2887 9.56944 86.7534 9.59789 88.6799C9.62603 90.6052 9.76368 92.53 10.0063 94.4015C10.3544 97.0824 10.7707 98.7807 10.9074 99.3387C10.9803 99.6366 10.9955 99.699 10.9209 99.8171Z" fill="#F2F2F2"/>
<path id="Vector_7" d="M6.15891 71.3512C6.13321 71.3512 6.10721 71.3506 6.0809 71.3488C5.54741 71.32 5.05339 71.0007 4.61228 70.3999C4.40549 70.1172 4.29965 69.7948 4.08858 69.1518C4.05585 69.0527 3.89678 68.5498 3.80011 67.8579C3.73679 67.4057 3.74474 67.2167 3.83437 67.0497C3.93379 66.8637 4.0947 66.734 4.27579 66.6465C4.26784 66.5865 4.27425 66.5248 4.30026 66.4617C4.40702 66.2005 4.69089 66.2348 4.84446 66.2513C4.92216 66.2611 5.01912 66.2739 5.12375 66.2684C5.28832 66.2605 5.37673 66.2115 5.51071 66.1381C5.63888 66.0677 5.79825 65.9802 6.03472 65.9319C6.50091 65.8346 6.89154 65.9668 7.02032 66.0102C7.69789 66.236 8.03193 66.7627 8.41859 67.3727C8.49567 67.4951 8.76028 67.9404 8.93494 68.551C9.06097 68.9915 9.04323 69.1873 9.0053 69.3329C8.92821 69.6321 8.74621 69.8034 8.28399 70.1815C7.80128 70.5773 7.55901 70.7755 7.351 70.8961C6.86676 71.1756 6.56269 71.3512 6.15891 71.3512Z" fill="#F2F2F2"/>
</g>
<path id="Vector_8" d="M146.149 99.5323C146.149 99.6482 146.055 99.7423 145.939 99.7423H0.389648V99.3223H145.939C146.055 99.3223 146.149 99.4163 146.149 99.5323Z" fill="#E6E6E6"/>
<g id="Group_2">
<g id="Group_3">
<path id="Vector_9" d="M104.131 33.1488C104.131 33.1488 96.2964 34.0911 97.618 27.8965C98.9395 21.702 106.433 10.2603 106.433 10.2603L110.685 12.6449L105.803 24.1843L107.905 25.8422L104.131 33.1488Z" fill="#A0616A"/>
<path id="Vector_10" d="M129.805 25.6077L128.701 34.6877L101.037 34.5522L106.593 24.896L129.805 25.6077Z" fill="#145114"/>
<path id="Vector_11" d="M113.366 10.7431C115.059 8.37867 115.195 5.5765 113.669 4.48425C112.144 3.392 109.535 4.42329 107.842 6.7877C106.149 9.15211 106.013 11.9543 107.538 13.0465C109.064 14.1388 111.673 13.1075 113.366 10.7431Z" fill="#A0616A"/>
</g>
<path id="Vector_12" d="M127.146 60.2254V99.6313H128.844V60.2254H127.146Z" fill="#3F3D56"/>
<path id="Vector_13" d="M118.993 60.2254V99.6313H120.692V60.2254H118.993Z" fill="#3F3D56"/>
<path id="Vector_14" d="M73.3027 35.4268V99.6313H75.0013V35.4268H73.3027Z" fill="#E6E6E6"/>
<path id="Vector_15" d="M100.648 60.2254V99.6313H102.347V60.2254H100.648Z" fill="#3F3D56"/>
<path id="Vector_16" d="M94.1484 60.2254V99.6313H95.847V60.2254H94.1484Z" fill="#3F3D56"/>
<path id="Vector_17" d="M125.617 59.376H92.8165L86.5244 68.3009L119.162 70.2466L125.617 59.376Z" fill="#3F3D56"/>
<g id="Group_4">
<g id="Group_5">
<path id="Vector_18" d="M65.5571 28.8406L65.7061 22.3682L45.9098 23.8908L45.8086 28.2767L65.5571 28.8406Z" fill="#A0616A"/>
<path id="Vector_19" d="M52.1586 23.1176L51.2118 25.3955L49.852 25.439C49.852 25.439 51.4441 25.9265 51.8864 28.8196L50.5799 29.2112C50.5799 29.2112 49.3252 30.3818 46.9797 30.2683L40.6909 29.7422L40.6667 27.5499L45.0132 27.0476C45.0132 27.0476 45.9817 26.4104 41.1873 23.7909C41.1873 23.7909 39.5992 22.8197 41.0275 18.0238C41.2239 17.3646 41.8169 16.8912 42.5045 16.8763C42.884 16.8681 43.2396 17.0044 43.3815 17.4758C43.7428 18.6756 43.3772 19.8716 44.3702 20.6206C45.3632 21.3695 52.1586 23.1176 52.1586 23.1176Z" fill="#2F2E41"/>
</g>
<path id="Vector_20" d="M123.163 53.5854C123.163 53.5854 116.332 65.2027 100.877 63.109C97.1986 62.6108 93.9627 60.424 92.1191 57.2026C88.5559 50.9762 83.1451 40.0739 84.8992 33.9005L58.7588 28.9114L56.6992 22.563L84.9898 18.888C87.4922 18.563 89.9434 19.7798 91.1974 21.9697L104.978 46.0367L109.087 46.4853L123.163 53.5854Z" fill="#2F2E41"/>
</g>
<g id="Group_6">
<g id="Group_7">
<path id="Vector_21" d="M66.0726 31.4898L65.7004 25.0264L46.0908 28.1368L46.3427 32.5165L66.0726 31.4898Z" fill="#A0616A"/>
<path id="Vector_22" d="M52.2571 26.8633L51.4967 29.21L50.1448 29.3626C50.1448 29.3626 51.7709 29.7205 52.4445 32.5686L51.1738 33.0641C51.1738 33.0641 50.0173 34.3319 47.6703 34.4074L41.3596 34.389L41.1591 32.2057L45.451 31.3554C45.451 31.3554 46.3651 30.6423 41.3756 28.417C41.3756 28.417 39.7144 27.5767 40.7523 22.6815C40.895 22.0087 41.448 21.4891 42.1322 21.4189C42.5097 21.3802 42.8752 21.4875 43.0546 21.9459C43.5112 23.1127 43.2431 24.3343 44.2931 25.0009C45.3431 25.6675 52.2571 26.8633 52.2571 26.8633Z" fill="#2F2E41"/>
</g>
<path id="Vector_23" d="M125.482 51.5197C125.482 51.5197 119.609 63.6488 104.035 62.8054C100.328 62.6047 96.927 60.6854 94.8302 57.6227C90.7776 51.7031 84.5072 41.2715 85.759 34.977L59.302 32.1071L56.7383 25.945L84.6415 20.0059C87.1096 19.4806 89.6508 20.4963 91.0769 22.5782L106.749 45.4584L110.881 45.575L125.482 51.5197Z" fill="#2F2E41"/>
</g>
<path id="Vector_24" d="M107.578 0.301758L106.219 1.32088L113.353 11.1724L114.711 10.8327L107.578 0.301758Z" fill="#3F3D56"/>
<path id="Vector_25" d="M126.126 22.1781L133.94 21.8384L137.337 37.1252C137.337 37.1252 130.203 63.962 121.71 62.9428C121.71 62.9428 116.445 59.0362 116.445 57.6774C116.445 56.3186 109.311 52.9215 109.311 52.9215L107.612 47.1465L112.708 39.3333C112.708 39.3333 114.746 33.2185 121.54 29.8215L126.126 22.1781Z" fill="#145114"/>
<path id="Vector_26" d="M81.4553 34.0679H11.9854V35.7664H45.956V99.6312H47.6545V35.7664H81.4553V34.0679Z" fill="#E6E6E6"/>
<path id="Vector_27" d="M130.203 20.8192C135.269 20.8192 139.375 16.7128 139.375 11.6472C139.375 6.58157 135.269 2.4751 130.203 2.4751C125.138 2.4751 121.031 6.58157 121.031 11.6472C121.031 16.7128 125.138 20.8192 130.203 20.8192Z" fill="#A0616A"/>
<path id="Vector_28" d="M98.2227 23.3672L91.8164 25.915L104.386 42.5606L108.802 39.1635L98.2227 23.3672Z" fill="#E6E6E6"/>
<g id="Group_8">
<path id="Vector_29" d="M123.24 55.2993C123.24 55.2993 120.862 62.8237 115.766 59.0615C110.671 55.2993 103.346 43.7493 103.346 43.7493L107.274 40.8618L115.766 50.074L118.144 48.8449L123.24 55.2993Z" fill="#A0616A"/>
<path id="Vector_30" d="M126.976 28.8022L134.789 33.5581L123.239 58.6964L115.766 48.5052L126.976 28.8022Z" fill="#145114"/>
<path id="Vector_31" d="M106.339 43.8932C107.964 42.9551 108.102 40.1531 106.648 37.6346C105.194 35.1162 102.699 33.8351 101.074 34.7731C99.449 35.7112 99.3105 38.5133 100.765 41.0317C102.219 43.5501 104.714 44.8312 106.339 43.8932Z" fill="#A0616A"/>
</g>
<path id="Vector_32" d="M131.206 39.4174C133.56 31.7003 136.086 29.2581 138.742 30.7871C140.763 31.951 141.372 34.6001 140.187 36.6094C137.167 41.7312 130.945 53.4664 132.241 61.2442C132.241 61.2442 134.279 72.1148 117.973 72.1148C101.668 72.1148 86.041 68.378 86.041 68.378L94.5337 67.0192L113.847 68.3987C118.26 68.7139 121.979 64.9383 121.389 60.5539C121.37 60.4092 121.347 60.2629 121.32 60.1149C120.351 54.7898 131.206 39.4174 131.206 39.4174Z" fill="#3F3D56"/>
</g>
<path id="Vector_33" d="M126.765 7.84489C126.016 9.94284 127.663 12.1213 129.885 11.9731L129.938 11.9696C131.433 13.8373 131.474 16.4795 130.039 18.393C129.921 20.8593 130.307 23.3237 131.174 25.6356L133.61 32.1313L137.36 30.3813L139.14 35.1313L149.61 29.7375L143.264 15.4597L141.328 7.71361C139.95 2.20264 134.328 -1.11451 128.838 0.34382L124.626 1.46268C121.298 2.34661 119.383 5.8307 120.42 9.11402L126.765 7.84489Z" fill="#2F2E41"/>
</g>
<defs>
<clipPath id="clip0_1199_889">
<rect width="149.22" height="100" fill="white" transform="translate(0.389648)"/>
</clipPath>
</defs>
</svg>
