<svg xmlns="http://www.w3.org/2000/svg" width="20" height="20" fill="none">
    <g clip-path="url(#a)">
        <path fill="#704C25"
            d="M13.875 1.888c-.384-.488-2.015-.437-1.652.587.051.15.704-.94 1.158.047.155.336-.107 1.233-2.709.105C9.44 2.092 8.3 1.353 7.096.752 5.747.078 4.24-.41 2.796.248c-.572.26-1.223.853-1.369 1.46-.839 3.479 1.518 3.44 2.213 3.48.494.03.982-.002 1.476-.025.902-.042 1.685.215 2.533.475 1.75.537 8.531-.828 6.227-3.75" />
        <path fill="#5C3C1D"
            d="M13.875 1.887c-.111-.142-.33-.236-.571-.276.048.041.104.076.146.124 2.055 2.391-3.257 3.282-4.508 3.21-1.93-.114-6.64-.498-6.505-3.305C2.476.816 2.966.288 3.638 0a3.389 3.389 0 0 0-.842.249c-.572.26-1.223.853-1.369 1.46-.839 3.479 1.518 3.44 2.213 3.48.494.03.982-.003 1.476-.025.902-.043 1.685.215 2.533.474 1.75.537 8.531-.828 6.227-3.75" />
        <path fill="#FBBF67"
            d="M8.668 10.118c.142-.046.583.192.747.173.09-.01.767.116 0-.63-1.816-1.776-2.752-3.119-3.008-4.136-.291-.66-1.39-.034-1.762-.623.686-.732 1.107-3.614-.25-3.275-2.92-.496-1.684 2.31-.944 3.121-3.887 1.095 1.182 6.459 3.584 5.997.23-.947-.992-.947-1.535-1.384-1.107-.89-.998-1.869-1.58-2.74 2.607-.073 3.044 2.133 4.749 3.498m-.334 3.202c-.645.237-.866 1.662-.02 3.367.835 1.686 2.005-4.097.02-3.367Z" />
        <path fill="#EF7D8B"
            d="M18.348 7.453c-.466-.84-1.6-1.043-2.525-.773-1.33.388-1.408 1.334-.219 1.962.32.17-.679-1.435.606-1.063.736.213.321 1.132.186 1.575a2.306 2.306 0 0 1-.988 1.293c-.133.076-.27.15-.41.225-.442.201-.95.322-1.478.388a6.2 6.2 0 0 1-3.593-.636c-.506-.253-.991-.49-1.55-.633-.628-.16-1.274-.23-1.807-.596-.132-.231-.253-.465-.437-.61-.134-.643.36-1.422-.012-2.053-.295-.498-1.339-.797-1.926-.717-.662.089-.994.438-.895 1.057.07.438.371.86.547 1.268.231.537.18 1.1.06 1.65-.023.01-.04.023-.046.038-.743 2.003.033 4.566 2.428 5.606 4.715 2.05 7.787-.132 8.92-1 .263-.201 1.364-1.185 1.591-1.48 1.43-1.597 2.536-3.723 1.55-5.502" />
        <path fill="#E27784"
            d="M18.348 7.453a1.411 1.411 0 0 0-.171-.243c.274 1.089-2.791 8.8-10.016 7.244-3.858-.833-2.963-4.694-4.658-8.348-.183.179-.26.432-.206.767.07.438.371.86.547 1.269.231.536.18 1.1.06 1.65-.023.01-.04.023-.047.038-.743 2.003.033 4.566 2.428 5.606 4.716 2.05 7.787-.132 8.92-1 .264-.201 1.365-1.185 1.592-1.48 1.43-1.596 2.536-3.723 1.55-5.501" />
        <path fill="#FBBF67"
            d="M5.497 9.479C4.4 8.594 3.171 5.892 2.121 5.892c-.716 1.907 2.97 5.344 4.912 4.97.231-.943-.992-.946-1.536-1.383Zm2.914 6.865c-.693.04-1.405 1.328-1.206 3.188.198 1.837 3.347-3.312 1.206-3.188Z" />
        <path fill="#EF7D8B"
            d="M7.977 18.481c-.051.02-.188-.586-.238-.8-.166-.042-.33-.088-.498-.123a7.656 7.656 0 0 0-.067 2.006c.117 1.225 1.156-.008 1.824-1.48-.093-.04-.19-.066-.285-.1-.219.202-.458.38-.736.497Z" />
        <path fill="#FBBF67"
            d="M7.615 13.702c-.99-.585-3.584.31-5.669 2.722-2.06 2.385 8.72-.917 5.669-2.722Z" />
        <path fill="#EF7D8B"
            d="M3.947 16.05c-.139-.06.084-.899.268-1.113-.088-.113-.174-.227-.265-.34a11.186 11.186 0 0 0-2.147 1.914c-1.137 1.315 1.293 1.05 3.56.212-.093-.183-.191-.363-.294-.54-.38.029-.756.025-1.122-.133Z" />
    </g>
    <defs>
        <clipPath id="a">
            <path fill="#fff" d="M0 0h20v20H0z" />
        </clipPath>
    </defs>
</svg>