<svg xmlns="http://www.w3.org/2000/svg" width="20" height="20" fill="none">
    <path fill="url(#a)"
        d="M13.755 5.01a.205.205 0 0 1 .278.056c.328.475 1.202 2.058.87 5.073-.215 1.958-1.325 4.785-1.701 5.7a.206.206 0 0 1-.332.074c-.378-.346-1.301-.928-2.982-.538-.533.124-2.196 1.79-3.532.29-.825-.927-.223-1.473-.217-2.805.008-1.716-1.718-2.243-2.283-2.524a.206.206 0 0 1-.02-.358c.655-.425 1.574-.625 2.728-1.543C8.03 7.27 8.042 6.18 8.342 5.802c.152-.19 1.346-.727 1.346-.727s.834.222.875.238l1.489.657c.06.022.126.016.181-.018l1.522-.942Z" />
    <path fill="url(#b)"
        d="M14.131 11.514c.846-2.617.233-4.767.233-4.767s-2.481.877-2.487.978c-.005.102-1.613 3.924-1.613 3.924s-1.17 3.165-2.655 4.637c1.064-.116 1.925-.83 2.278-.91 1.108-.259 1.885-.093 2.396.15.28-.446 1.255-2.171 1.848-4.012Z" />
    <path fill="url(#c)"
        d="m10.62 6.815-.792-.359s-1.256 2.867-1.892 3.856c-.637.99-1.797 2.547-1.797 2.547.002 1.333-.61 1.878.217 2.805.055.062.113.117.17.169.529-.636 1.404-1.879 2.06-2.81 1.774-2.517 2.034-6.208 2.034-6.208Z" />
    <path fill="url(#d)"
        d="M16.178 3.806c-.158-.43-.93-1.662-.93-1.662l-.896.43.356 1.541-1.605 1.336a5.453 5.453 0 0 0-2.023-.08c-.46-.035-1.766-.02-2.26 1.182l-.715 1.703-.58.202c-.161.336.367.639.703.798.336.16.625.036.9-.319.164-.212.545-.808.823-1.25.063.474.107 1.052.11 1.755l1.301.627 1.585.067c.578-1.308.876-2.303 1.028-3.008.523-.59 1.88-2.125 2.055-2.369.215-.3.306-.523.148-.953Z" />
    <path fill="url(#e)"
        d="M6.502 6.035c.092-.17.381-.285.589-.349.126-.039.26.027.31.147l.309.737a.26.26 0 0 1-.046.27l-.289.326c.106.144.24.26.392.351.261.158.522.152.549.174.331.267.578.58.384 1.092-.192.51-.854.353-.854.353s-.68-.478-1.118-1.516c-.142-.332-.418-1.235-.226-1.585Z" />
    <path fill="url(#f)"
        d="M8.231 12.945s-.865.805-.93 1.166c-.106.598.4 1.152.663.938.57-.463.725-1.036 1.008-1.452.281-.416-.366-1.031-.74-.652Z" />
    <path fill="url(#g)"
        d="m11.156 10.433-.039.106c-.07-.26-.236-.497-.46-.617 0 0-.904-.298-1.13.122 0 0-1.083 1.706-1.255 2.181-.174.475-.167.863.239 1.114.328.202.769.105 1.172-.353.181-.206.6-.836.919-1.325.05-.078.17-.017.137.07l-1.894 4.986.846.538s2.515-4.02 2.886-4.79c.37-.768.501-1.896.501-1.896l-1.922-.136Z" />
    <path fill="#212121"
        d="m9.569 9.983.312-.51a.175.175 0 0 1 .247-.087c1.035.59 1.585.748 2.761.678.108-.006.197.09.19.208l-.041.548s-.432.244-1.749-.036c-.934-.198-1.72-.801-1.72-.801Z"
        opacity=".4" />
    <path fill="url(#h)"
        d="M12.981 10.772c-1.325.07-2.155-.169-3.31-.783a.193.193 0 0 1-.084-.253l.186-.394a.193.193 0 0 1 .264-.087c1.108.59 1.697.747 2.96.678a.192.192 0 0 1 .201.208l-.036.453a.193.193 0 0 1-.18.178Z" />
    <path fill="#FDD835"
        d="m11.808 10.467-.361.24a.154.154 0 0 1-.214-.044l-.24-.361a.154.154 0 0 1 .044-.214l.361-.24a.153.153 0 0 1 .214.044l.24.361a.154.154 0 0 1-.044.214Z" />
    <path fill="#E53935"
        d="M11.013 7.034c.2-.087.572-.209 1.107-.23h.099c.483 0 .778.13.93.223l-1.085 1.165-1.051-1.158Z" />
    <path fill="#FDD835"
        d="M12.22 6.966c.295 0 .513.053.664.11l-.817.879-.773-.852c.198-.062.478-.123.832-.136l.094-.001Zm0-.324c-.034 0-.069 0-.104.002-.902.032-1.364.343-1.364.343l1.312 1.446 1.325-1.425c-.002 0-.342-.366-1.169-.366Z" />
    <path fill="url(#i)"
        d="M10.752 6.987s.462-.31 1.364-.343c.901-.033 1.273.364 1.273.364l-1.325 1.425-1.313-1.446Z"
        opacity=".42" />
    <path fill="url(#j)"
        d="M9.04 15.25s-.25 1.51-.871 2.497c-.303.401-.797.731-1.053 1.42-.117.317.567.619 1.1.327.32-.177.804-1.255.804-1.255.429-.778 1.704-2.019 1.704-2.019-.246-1.139-1.683-.97-1.683-.97Z" />
    <path fill="#ED4132"
        d="M8.344 5.8s.889-1.122 2.476-.802c1.18.238.932.996.932.996s-.596.004-1.132-.119c-.542-.125-1.025-.377-1.312-.347l-.964.272Z" />
    <path fill="#ED4132"
        d="M11.752 5.996s.073-.768.592-.954c.518-.186 1.68-.357 1.68-.357s-.363.712-.644.937c-.594.474-1.629.374-1.629.374Z" />
    <path fill="#212121"
        d="M8.927 6.333s.51-.46 1.284-.273c1.116.267 1.54-.064 1.54-.064s.821.295 1.598-.079c.532-.256.678-1.232.678-1.232l-.183.206s-.684.745-1.366.947c-.498.148-.725.158-.725.158s-1.837-.63-2.256-.455c-.419.175-.57.792-.57.792Z"
        opacity=".4" />
    <path fill="url(#k)"
        d="M14.481 3.894c-.021-.146-.298-2.366-.817-2.481 0 0-.275.003-.556.028-.222.007-.369-.052-.411-.191-.052-.106.002-.344.09-.61.09-.267.249-.3.376-.302.245-.007.664.242 1.239.739 1.106.956 1.71 2.398 1.71 2.398-.02 0-.732.973-1.63.419Z" />
    <path fill="#E59600"
        d="m11.714 4.887-.503.014.014.391c0 .494.525.703.525.703s.48-.258.48-.71l-.014-.41-.502.012Zm1.172-1.523-.324.006-1.751.036-.324.006c-.258.005-.465.235-.459.511.006.277.222.497.48.49l.323-.005 1.752-.036.323-.007c.258-.004.466-.234.46-.51-.005-.276-.22-.496-.48-.491Z" />
    <path fill="#FFCA28"
        d="M11.645 1.617c-.764.016-1.454.847-1.43 2.022.024 1.169.765 1.733 1.508 1.717.742-.015 1.46-.607 1.436-1.778-.025-1.175-.75-1.976-1.514-1.96Z" />
    <path fill="#404040"
        d="M11.001 4.037a.22.22 0 0 0 .212-.228.22.22 0 0 0-.22-.219.22.22 0 0 0-.212.228.22.22 0 0 0 .22.22ZM12.444 4.008a.22.22 0 0 0 .21-.228.22.22 0 0 0-.22-.219.22.22 0 0 0-.21.228.22.22 0 0 0 .22.219Z" />
    <path fill="#E59600"
        d="M11.886 4.194a.047.047 0 0 0-.014-.004l-.31.007-.014.003c-.028.012-.042.04-.028.072a.217.217 0 0 0 .202.114.218.218 0 0 0 .197-.122c.012-.031-.005-.06-.033-.07Z" />
    <path fill="#795548"
        d="M12.09 4.597c-.137.087-.598.1-.74.02-.081-.045-.162.03-.126.102.034.07.29.23.507.225.218-.007.461-.18.491-.254.031-.071-.051-.143-.131-.093Z" />
    <path fill="#6D4C41"
        d="M11.306 3.422c-.045-.067-.148-.164-.342-.16a.373.373 0 0 0-.331.18.083.083 0 0 0 .001.088c.013.019.05.037.09.019.038-.02.117-.07.246-.074.131-.003.211.044.252.06.04.015.076-.005.087-.025a.081.081 0 0 0-.003-.088Zm1.453-.044c-.045-.067-.148-.164-.342-.16-.194.007-.29.11-.331.18a.083.083 0 0 0 .002.088c.012.019.05.038.089.019.039-.019.117-.069.246-.074.132-.003.211.044.252.06.04.015.076-.005.087-.025a.085.085 0 0 0-.003-.088Z" />
    <path fill="#543930"
        d="M11.639 1.377c-1.998.062-1.53 2.332-1.53 2.332s.096.233.14.336c.006.014.027.013.03-.003.038-.192.174-.872.246-1.08a.269.269 0 0 1 .294-.176c.197.03.51.066.853.058h.006c.344-.01.655-.061.85-.102a.267.267 0 0 1 .303.161c.083.203.252.872.3 1.064.005.016.027.017.031.002l.122-.34c.002-.002.352-2.293-1.645-2.252Z" />
    <path fill="url(#l)"
        d="M13.286 3.627s.35-2.293-1.649-2.25l-.09.004c-.06.005-.117.01-.172.019h-.002l-.01.002c-1.676.254-1.252 2.307-1.252 2.307l.139.335c.006.014.028.012.031-.003.038-.194.173-.872.245-1.079a.268.268 0 0 1 .294-.176c.197.03.51.066.853.058h.007c.343-.01.654-.061.85-.102a.267.267 0 0 1 .303.161c.082.203.253.877.301 1.066.005.015.025.017.031.001l.12-.343Z" />
    <defs>
        <linearGradient id="a" x1="12.433" x2="7.982" y1="7.662" y2="13.623"
            gradientUnits="userSpaceOnUse">
            <stop stop-color="#A52714" />
            <stop offset=".529" stop-color="#D23F31" />
            <stop offset="1" stop-color="#ED4132" />
        </linearGradient>
        <linearGradient id="c" x1="6.939" x2="9.234" y1="8.609" y2="12.573"
            gradientUnits="userSpaceOnUse">
            <stop stop-color="#212121" />
            <stop offset=".999" stop-color="#212121" stop-opacity="0" />
        </linearGradient>
        <linearGradient id="d" x1="11.876" x2="11.849" y1="6.472" y2="9.546"
            gradientUnits="userSpaceOnUse">
            <stop stop-color="#42A5F5" />
            <stop offset="1" stop-color="#1E88E5" />
        </linearGradient>
        <linearGradient id="e" x1="7.87" x2="6.845" y1="8.223" y2="5.999"
            gradientUnits="userSpaceOnUse">
            <stop stop-color="#A52714" />
            <stop offset=".529" stop-color="#D23F31" />
            <stop offset="1" stop-color="#DB4437" />
        </linearGradient>
        <linearGradient id="f" x1="8.614" x2="7.833" y1="13.13" y2="14.341"
            gradientUnits="userSpaceOnUse">
            <stop offset=".001" stop-color="#851F10" />
            <stop offset=".841" stop-color="#A52714" />
        </linearGradient>
        <linearGradient id="g" x1="10.905" x2="9.475" y1="11.262" y2="14.471"
            gradientUnits="userSpaceOnUse">
            <stop stop-color="#42A5F5" />
            <stop offset="1" stop-color="#1E88E5" />
        </linearGradient>
        <linearGradient id="h" x1="9.797" x2="13.175" y1="9.758" y2="10.496"
            gradientUnits="userSpaceOnUse">
            <stop stop-color="#D32F2F" />
            <stop offset=".23" stop-color="#F44336" />
            <stop offset=".742" stop-color="#F44336" />
            <stop offset="1" stop-color="#D32F2F" />
        </linearGradient>
        <linearGradient id="i" x1="12.07" x2="12.07" y1="6.991" y2="8.531"
            gradientUnits="userSpaceOnUse">
            <stop stop-color="#0D47A1" stop-opacity="0" />
            <stop offset="1" stop-color="#0D47A1" />
        </linearGradient>
        <linearGradient id="j" x1="10.328" x2="6.841" y1="15.684" y2="19.171"
            gradientUnits="userSpaceOnUse">
            <stop stop-color="#A52714" />
            <stop offset=".529" stop-color="#D23F31" />
            <stop offset="1" stop-color="#ED4132" />
        </linearGradient>
        <linearGradient id="k" x1="15.37" x2="13.213" y1="3.737" y2=".473"
            gradientUnits="userSpaceOnUse">
            <stop stop-color="#A52714" />
            <stop offset=".529" stop-color="#D23F31" />
            <stop offset="1" stop-color="#DB4437" />
        </linearGradient>
        <radialGradient id="b" cx="0" cy="0" r="1"
            gradientTransform="matrix(2.71776 1.0204 -1.97733 5.26653 11.7 9.902)"
            gradientUnits="userSpaceOnUse">
            <stop stop-color="#212121" />
            <stop offset=".999" stop-color="#212121" stop-opacity="0" />
        </radialGradient>
        <radialGradient id="l" cx="0" cy="0" r="1"
            gradientTransform="matrix(1.67465 -.04355 .04913 1.88924 11.687 3.27)"
            gradientUnits="userSpaceOnUse">
            <stop offset=".794" stop-color="#6D4C41" stop-opacity="0" />
            <stop offset="1" stop-color="#6D4C41" />
        </radialGradient>
    </defs>
</svg>